STARTFONT 2.1
COMMENT
COMMENT Converted from OpenType font "Roboto-ThinItalic.ttf" by "otf2bdf 3.0".
COMMENT
FONT -FreeType-Roboto Thin-Medium-I-Normal--39-280-100-100-P-190-ISO10646-1
SIZE 28 100 100
FONTBOUNDINGBOX 72 51 -28 -11
STARTPROPERTIES 19
FOUNDRY "FreeType"
FAMILY_NAME "Roboto Thin"
WEIGHT_NAME "Medium"
SLANT "I"
SETWIDTH_NAME "Normal"
ADD_STYLE_NAME ""
PIXEL_SIZE 39
POINT_SIZE 280
RESOLUTION_X 100
RESOLUTION_Y 100
SPACING "P"
AVERAGE_WIDTH 190
CHARSET_REGISTRY "ISO10646"
CHARSET_ENCODING "1"
FONT_ASCENT 36
FONT_DESCENT 9
COPYRIGHT "Copyright 2011 The Roboto Project Authors (https://github.com/googlefonts/roboto-classic)"
_OTF_FONTFILE "Roboto-ThinItalic.ttf"
_OTF_PSNAME "Roboto-ThinItalic"
ENDPROPERTIES
CHARS 922
STARTCHAR 0000
ENCODING 0
SWIDTH 0 0
DWIDTH 0 0
BBX 0 0 0 0
BITMAP
ENDCHAR
STARTCHAR 0002
ENCODING 2
SWIDTH 0 0
DWIDTH 0 0
BBX 0 0 0 0
BITMAP
ENDCHAR
STARTCHAR 000D
ENCODING 13
SWIDTH 231 0
DWIDTH 9 0
BBX 0 0 0 0
BITMAP
ENDCHAR
STARTCHAR 0020
ENCODING 32
SWIDTH 231 0
DWIDTH 9 0
BBX 0 0 0 0
BITMAP
ENDCHAR
STARTCHAR 0021
ENCODING 33
SWIDTH 180 0
DWIDTH 7 0
BBX 6 28 1 0
BITMAP
04
04
0C
08
08
08
08
08
18
10
10
10
10
10
20
20
20
20
20
20
00
00
00
00
00
00
C0
C0
ENDCHAR
STARTCHAR 0022
ENCODING 34
SWIDTH 231 0
DWIDTH 9 0
BBX 6 8 4 21
BITMAP
64
44
44
44
44
48
48
88
ENDCHAR
STARTCHAR 0023
ENCODING 35
SWIDTH 514 0
DWIDTH 20 0
BBX 23 28 0 0
BITMAP
000808
000808
001810
001010
001010
003020
002020
002060
0FFFFE
004040
0040C0
008080
008080
008100
010100
010100
010200
020200
020200
FFFFF0
040400
040400
040800
080800
080800
181000
101000
103000
ENDCHAR
STARTCHAR 0024
ENCODING 36
SWIDTH 514 0
DWIDTH 20 0
BBX 18 36 2 -4
BITMAP
001000
001000
001000
001000
00FC00
030300
040180
080080
180080
100040
100040
300040
300000
100000
100000
080000
060000
038000
006000
001800
000400
000200
000300
000100
800100
800100
800200
800200
800600
400C00
601800
1FE000
010000
020000
020000
020000
ENDCHAR
STARTCHAR 0025
ENCODING 37
SWIDTH 720 0
DWIDTH 28 0
BBX 21 28 4 0
BITMAP
0F0000
308000
604000
404020
804060
804040
804080
804100
808300
808600
810400
660800
3C1000
003000
002000
004000
0083F0
018418
030808
020808
041008
081008
181008
101008
201010
001010
000820
000FC0
ENDCHAR
STARTCHAR 0026
ENCODING 38
SWIDTH 565 0
DWIDTH 22 0
BBX 20 28 1 0
BITMAP
007C00
00C200
010100
020100
020100
060100
040100
040200
060400
020800
023000
016000
018000
038000
064000
084000
102010
201010
601820
400820
400460
800240
8002C0
800180
400380
6006C0
301840
1FE020
ENDCHAR
STARTCHAR 0027
ENCODING 39
SWIDTH 154 0
DWIDTH 6 0
BBX 2 8 4 21
BITMAP
40
40
40
40
40
80
80
80
ENDCHAR
STARTCHAR 0028
ENCODING 40
SWIDTH 282 0
DWIDTH 11 0
BBX 11 38 2 -8
BITMAP
0060
00C0
0180
0100
0200
0400
0400
0800
0800
1000
1000
1000
2000
2000
2000
4000
4000
4000
4000
4000
8000
8000
8000
8000
8000
8000
8000
8000
8000
8000
4000
4000
4000
4000
2000
2000
1000
0800
ENDCHAR
STARTCHAR 0029
ENCODING 41
SWIDTH 282 0
DWIDTH 11 0
BBX 11 38 -2 -8
BITMAP
0200
0100
0080
0080
0040
0040
0040
0040
0020
0020
0020
0020
0020
0020
0020
0020
0020
0020
0060
0040
0040
0040
0040
00C0
0080
0080
0180
0100
0100
0200
0200
0400
0400
0800
1800
3000
6000
C000
ENDCHAR
STARTCHAR 002A
ENCODING 42
SWIDTH 385 0
DWIDTH 15 0
BBX 14 15 3 13
BITMAP
0100
0100
0100
0100
0100
0204
E238
3AE0
0700
0600
0900
1180
3080
6040
C040
ENDCHAR
STARTCHAR 002B
ENCODING 43
SWIDTH 540 0
DWIDTH 21 0
BBX 18 20 2 3
BITMAP
002000
002000
004000
004000
004000
004000
004000
004000
008000
008000
FFFFC0
008000
008000
008000
010000
010000
010000
010000
010000
030000
ENDCHAR
STARTCHAR 002C
ENCODING 44
SWIDTH 180 0
DWIDTH 7 0
BBX 4 8 -1 -5
BITMAP
10
10
20
20
20
40
40
80
ENDCHAR
STARTCHAR 002D
ENCODING 45
SWIDTH 282 0
DWIDTH 11 0
BBX 9 1 1 12
BITMAP
FF80
ENDCHAR
STARTCHAR 002E
ENCODING 46
SWIDTH 205 0
DWIDTH 8 0
BBX 2 2 1 0
BITMAP
C0
C0
ENDCHAR
STARTCHAR 002F
ENCODING 47
SWIDTH 360 0
DWIDTH 14 0
BBX 17 30 -1 -2
BITMAP
000080
000100
000100
000200
000600
000400
000C00
000800
001000
001000
002000
002000
004000
004000
008000
018000
010000
030000
020000
040000
040000
080000
080000
100000
100000
200000
600000
400000
C00000
800000
ENDCHAR
STARTCHAR 0030
ENCODING 48
SWIDTH 514 0
DWIDTH 20 0
BBX 17 28 2 0
BITMAP
00FC00
030200
060100
0C0080
080080
100080
100080
200080
200080
200080
400080
400080
400080
400080
400080
C00080
800100
800100
800100
800100
800200
800200
800600
800400
400800
401800
203000
1FC000
ENDCHAR
STARTCHAR 0031
ENCODING 49
SWIDTH 514 0
DWIDTH 20 0
BBX 9 28 6 0
BITMAP
0080
0780
3880
E100
0100
0100
0100
0100
0100
0200
0200
0200
0200
0200
0200
0400
0400
0400
0400
0400
0C00
0800
0800
0800
0800
0800
1000
1000
ENDCHAR
STARTCHAR 0032
ENCODING 50
SWIDTH 514 0
DWIDTH 20 0
BBX 18 28 1 0
BITMAP
00FC00
018300
060080
0C00C0
080040
100040
100040
100040
000040
000080
000080
000100
000300
000600
000C00
000800
001000
002000
004000
008000
010000
020000
040000
080000
100000
200000
400000
FFFF00
ENDCHAR
STARTCHAR 0033
ENCODING 51
SWIDTH 514 0
DWIDTH 20 0
BBX 19 28 1 0
BITMAP
007E00
018100
020080
040040
080040
180040
100060
100040
000040
000040
000080
000100
000600
01F800
003C00
000200
000100
000080
000080
000080
800080
800080
800100
400100
400200
200600
300C00
0FF000
ENDCHAR
STARTCHAR 0034
ENCODING 52
SWIDTH 514 0
DWIDTH 20 0
BBX 19 28 1 0
BITMAP
000080
000180
000280
000680
000480
000900
001100
002100
006100
004100
008100
010200
020200
060200
0C0200
080200
100600
200400
400400
FFFFE0
000400
000400
000C00
000800
000800
000800
000800
000800
ENDCHAR
STARTCHAR 0035
ENCODING 53
SWIDTH 514 0
DWIDTH 20 0
BBX 18 28 3 0
BITMAP
07FFC0
040000
0C0000
080000
080000
080000
180000
100000
100000
100000
200000
27F000
380C00
200400
000200
000200
000200
000100
000100
000200
000200
800200
800600
800400
800C00
401800
203000
1FC000
ENDCHAR
STARTCHAR 0036
ENCODING 54
SWIDTH 514 0
DWIDTH 20 0
BBX 16 28 2 0
BITMAP
000F
0070
00C0
0300
0600
0400
0800
1000
1000
2000
23F8
4E04
5802
6001
4001
4001
8001
8001
8001
8001
8001
8001
8002
C002
4004
6008
3030
0FE0
ENDCHAR
STARTCHAR 0037
ENCODING 55
SWIDTH 514 0
DWIDTH 20 0
BBX 17 28 4 0
BITMAP
FFFF80
000080
000100
000300
000200
000400
000400
000800
000800
001000
002000
002000
004000
004000
008000
010000
010000
020000
020000
040000
080000
080000
100000
100000
200000
600000
400000
800000
ENDCHAR
STARTCHAR 0038
ENCODING 56
SWIDTH 514 0
DWIDTH 20 0
BBX 19 28 1 0
BITMAP
007E00
018180
0200C0
040040
080020
080020
100020
100020
100060
100040
1800C0
080180
040200
03FC00
071C00
180200
300100
600080
400080
C00080
800080
800080
800080
800100
C00300
400600
300C00
1FF000
ENDCHAR
STARTCHAR 0039
ENCODING 57
SWIDTH 514 0
DWIDTH 20 0
BBX 16 28 3 0
BITMAP
03F0
060C
0806
1002
2001
6001
4001
C001
8001
8001
8001
8001
8001
8003
8007
4006
601A
3072
1FC6
0004
0004
0008
0018
0030
0060
00C0
0380
7C00
ENDCHAR
STARTCHAR 003A
ENCODING 58
SWIDTH 154 0
DWIDTH 6 0
BBX 6 20 0 0
BITMAP
0C
08
00
00
00
00
00
00
00
00
00
00
00
00
00
00
00
00
40
C0
ENDCHAR
STARTCHAR 003B
ENCODING 59
SWIDTH 154 0
DWIDTH 6 0
BBX 7 25 -1 -5
BITMAP
06
04
00
00
00
00
00
00
00
00
00
00
00
00
00
00
00
10
20
20
20
20
40
C0
80
ENDCHAR
STARTCHAR 003C
ENCODING 60
SWIDTH 488 0
DWIDTH 19 0
BBX 16 15 2 5
BITMAP
0001
000E
0030
00C0
0700
1800
6000
8000
6000
1800
0600
0180
0060
0018
0004
ENDCHAR
STARTCHAR 003D
ENCODING 61
SWIDTH 540 0
DWIDTH 21 0
BBX 17 9 2 8
BITMAP
3FFF80
000000
000000
000000
000000
000000
000000
000000
FFFF00
ENDCHAR
STARTCHAR 003E
ENCODING 62
SWIDTH 488 0
DWIDTH 19 0
BBX 17 15 1 5
BITMAP
300000
0C0000
030000
00C000
003000
000C00
000300
000180
000600
003800
00C000
030000
1C0000
600000
800000
ENDCHAR
STARTCHAR 003F
ENCODING 63
SWIDTH 411 0
DWIDTH 16 0
BBX 14 28 3 0
BITMAP
07E0
0C30
1008
2008
4008
4004
C008
0008
0008
0008
0010
0020
0060
00C0
0100
0200
0400
0400
0800
0800
0000
0000
0000
0000
0000
0000
3000
3000
ENDCHAR
STARTCHAR 0040
ENCODING 64
SWIDTH 900 0
DWIDTH 35 0
BBX 32 36 1 -9
BITMAP
00007E00
000781C0
001C0030
00300018
0040000C
01800004
01000002
02000002
04007002
0C018C01
08020201
10040201
10080201
20100401
20100401
20200403
40200402
40600802
40400802
40400802
40400804
C0401004
80403008
C0403008
40405010
40418820
403F0FC0
40000000
60000000
20000000
30000000
18000000
0C000000
06002000
01F7C000
00180000
ENDCHAR
STARTCHAR 0041
ENCODING 65
SWIDTH 565 0
DWIDTH 22 0
BBX 21 28 -1 0
BITMAP
000300
000300
000500
000500
000900
000880
001080
001080
002080
002080
004040
00C040
008040
018040
010040
020060
020020
040020
040020
0FFFE0
080030
100010
100010
200010
600010
400010
C00008
800008
ENDCHAR
STARTCHAR 0042
ENCODING 66
SWIDTH 565 0
DWIDTH 22 0
BBX 19 28 2 0
BITMAP
0FF800
080700
0800C0
080060
080020
080020
100020
100020
100020
100060
100040
100080
200300
3FFC00
200E00
200180
200080
200040
400040
400040
400040
400040
4000C0
C00080
800100
800200
800C00
FFF000
ENDCHAR
STARTCHAR 0043
ENCODING 67
SWIDTH 617 0
DWIDTH 24 0
BBX 21 28 2 0
BITMAP
003F80
00C0C0
030020
060010
040008
080008
180008
100008
300008
200000
200000
200000
400000
400000
400000
400000
400000
400000
800000
C00000
400020
400020
400040
4000C0
200080
300300
180600
07F800
ENDCHAR
STARTCHAR 0044
ENCODING 68
SWIDTH 617 0
DWIDTH 24 0
BBX 21 28 2 0
BITMAP
0FFC00
080700
0800C0
080060
080030
080010
100010
100008
100008
100008
100008
100008
200008
200008
200008
200010
200010
200010
400010
400020
400020
400040
4000C0
800180
800300
800600
803800
FFE000
ENDCHAR
STARTCHAR 0045
ENCODING 69
SWIDTH 540 0
DWIDTH 21 0
BBX 21 28 2 0
BITMAP
0FFFF8
080000
080000
080000
080000
080000
100000
100000
100000
100000
100000
100000
200000
3FFF80
200000
200000
200000
200000
400000
400000
400000
400000
400000
800000
800000
800000
800000
FFFF00
ENDCHAR
STARTCHAR 0046
ENCODING 70
SWIDTH 540 0
DWIDTH 21 0
BBX 21 28 2 0
BITMAP
0FFFF8
080000
080000
080000
080000
080000
100000
100000
100000
100000
100000
100000
200000
3FFF80
200000
200000
200000
200000
400000
400000
400000
400000
400000
800000
800000
800000
800000
800000
ENDCHAR
STARTCHAR 0047
ENCODING 71
SWIDTH 642 0
DWIDTH 25 0
BBX 21 28 3 0
BITMAP
003F00
01C0C0
030020
040010
080018
180008
100008
200008
200000
600000
400000
400000
400000
400000
800000
801FF0
803FF0
800020
800020
800020
800020
800020
400020
400040
600040
2000C0
180300
07FC00
ENDCHAR
STARTCHAR 0048
ENCODING 72
SWIDTH 668 0
DWIDTH 26 0
BBX 24 28 2 0
BITMAP
080001
080002
080002
080002
080002
080002
100002
100004
100004
100004
100004
100004
200004
3FFFF8
200008
200008
200008
200008
400018
400010
400010
400010
400010
800010
800020
800020
800020
800020
ENDCHAR
STARTCHAR 0049
ENCODING 73
SWIDTH 231 0
DWIDTH 9 0
BBX 5 28 3 0
BITMAP
08
08
08
08
18
10
10
10
10
10
20
20
20
20
20
20
40
40
40
40
40
40
80
80
80
80
80
80
ENDCHAR
STARTCHAR 004A
ENCODING 74
SWIDTH 514 0
DWIDTH 20 0
BBX 19 28 1 0
BITMAP
000020
000020
000020
000040
000040
000040
000040
000040
000040
000080
000080
000080
000080
000080
000180
000100
000100
000100
000100
000100
800200
800200
800200
800400
800C00
401800
603000
1FC000
ENDCHAR
STARTCHAR 004B
ENCODING 75
SWIDTH 591 0
DWIDTH 23 0
BBX 22 28 2 0
BITMAP
080004
080008
080010
080060
0800C0
080180
100300
100400
100800
101000
106000
10C000
218000
238000
24C000
284000
302000
203000
401000
400800
400C00
400400
400200
800300
800100
800080
8000C0
800040
ENDCHAR
STARTCHAR 004C
ENCODING 76
SWIDTH 488 0
DWIDTH 19 0
BBX 15 28 2 0
BITMAP
0800
0800
0800
0800
0800
0800
1000
1000
1000
1000
1000
1000
2000
2000
2000
2000
2000
2000
4000
4000
4000
4000
4000
C000
8000
8000
8000
FFFE
ENDCHAR
STARTCHAR 004D
ENCODING 77
SWIDTH 822 0
DWIDTH 32 0
BBX 29 28 2 0
BITMAP
0C000008
0C000018
0C000018
0A000028
0A000028
0A000048
12000090
11000090
11000110
11000110
11000210
10800610
20800420
20800820
20800820
20401020
20403020
20402060
40404040
40204040
40208040
40218040
40210040
801200C0
80120080
80140080
801C0080
80080080
ENDCHAR
STARTCHAR 004E
ENCODING 78
SWIDTH 668 0
DWIDTH 26 0
BBX 24 28 2 0
BITMAP
0C0001
0C0001
0E0002
0A0002
0B0002
090002
118002
108002
10C004
104004
106004
102004
203004
201004
201008
200808
200808
600408
400408
400218
400210
400110
400110
C00090
800090
800070
800060
800020
ENDCHAR
STARTCHAR 004F
ENCODING 79
SWIDTH 642 0
DWIDTH 25 0
BBX 22 28 2 0
BITMAP
003F80
00C0C0
030020
060010
0C0008
080008
100008
100004
200004
200004
200004
400004
400008
400008
400008
400008
C00008
800018
800010
800010
800020
400020
400040
4000C0
200080
300300
180600
07F800
ENDCHAR
STARTCHAR 0050
ENCODING 80
SWIDTH 565 0
DWIDTH 22 0
BBX 20 28 2 0
BITMAP
0FFE00
080380
080060
080020
080010
080010
100010
100010
100010
100010
100030
100020
200060
2000C0
200300
3FFE00
200000
200000
400000
400000
400000
400000
400000
C00000
800000
800000
800000
800000
ENDCHAR
STARTCHAR 0051
ENCODING 81
SWIDTH 642 0
DWIDTH 25 0
BBX 22 33 2 -5
BITMAP
003F80
00C0C0
030020
060010
0C0008
080008
100008
100004
200004
200004
200004
400004
400008
400008
400008
400008
C00008
800018
800010
800010
800020
400020
400040
4000C0
200080
300300
180600
07F800
000400
000200
000300
000180
000080
ENDCHAR
STARTCHAR 0052
ENCODING 82
SWIDTH 617 0
DWIDTH 24 0
BBX 21 28 2 0
BITMAP
0FFE00
080380
080060
080030
080010
080010
100018
100010
100010
100010
100010
200020
200060
2000C0
200300
3FFC00
200800
400400
400400
400600
400200
400200
400100
800100
800080
800080
8000C0
800040
ENDCHAR
STARTCHAR 0053
ENCODING 83
SWIDTH 565 0
DWIDTH 22 0
BBX 21 28 1 0
BITMAP
003F80
01C0C0
030020
040010
080008
080008
100008
100008
100000
180000
080000
060000
038000
00F000
001C00
000300
0000C0
000040
000020
000020
800020
800020
800020
800040
4000C0
600180
300600
0FFC00
ENDCHAR
STARTCHAR 0054
ENCODING 84
SWIDTH 565 0
DWIDTH 22 0
BBX 20 28 4 0
BITMAP
FFFFF0
004000
004000
004000
004000
004000
004000
008000
008000
008000
008000
008000
018000
010000
010000
010000
010000
010000
020000
020000
020000
020000
020000
020000
040000
040000
040000
040000
ENDCHAR
STARTCHAR 0055
ENCODING 85
SWIDTH 642 0
DWIDTH 25 0
BBX 22 28 3 0
BITMAP
10000C
100008
100008
100008
300008
200008
200018
200010
200010
200010
400010
400010
400020
400020
400020
400020
800020
800020
800040
800040
800040
800040
800080
800180
400300
600600
300C00
0FF000
ENDCHAR
STARTCHAR 0056
ENCODING 86
SWIDTH 565 0
DWIDTH 22 0
BBX 21 28 3 0
BITMAP
800008
800008
400010
400010
400020
400020
600040
200040
200080
200080
200100
300100
100200
100200
100400
100C00
080800
081800
081000
083000
082000
046000
044000
048000
048000
050000
030000
020000
ENDCHAR
STARTCHAR 0057
ENCODING 87
SWIDTH 874 0
DWIDTH 34 0
BBX 32 28 4 0
BITMAP
80010003
80010002
80030002
80028004
80048004
80048008
80088008
C0088018
40108010
40108010
40304020
40204020
40204060
40404040
40404040
40804080
40804080
61002100
21002100
23002300
22002200
26002200
24002400
24002400
28002C00
28001800
30001800
10001000
ENDCHAR
STARTCHAR 0058
ENCODING 88
SWIDTH 565 0
DWIDTH 22 0
BBX 24 28 0 0
BITMAP
080003
0C0006
040004
020008
020010
010020
010060
0080C0
008080
004100
004200
002400
002C00
001800
003800
002800
004400
008400
010200
030200
060100
040100
080080
100080
200040
600040
C00020
800030
ENDCHAR
STARTCHAR 0059
ENCODING 89
SWIDTH 565 0
DWIDTH 22 0
BBX 22 28 3 0
BITMAP
C0000C
400008
600010
200020
200060
100040
100080
180100
080300
080600
040400
040800
021000
023000
022000
014000
018000
008000
010000
010000
010000
010000
010000
010000
020000
020000
020000
020000
ENDCHAR
STARTCHAR 005A
ENCODING 90
SWIDTH 565 0
DWIDTH 22 0
BBX 23 28 0 0
BITMAP
07FFFE
000006
00000C
000008
000010
000020
000040
0000C0
000180
000100
000200
000400
000800
001800
003000
002000
004000
008000
010000
030000
060000
040000
080000
100000
200000
600000
C00000
FFFFE0
ENDCHAR
STARTCHAR 005B
ENCODING 91
SWIDTH 205 0
DWIDTH 8 0
BBX 11 38 1 -6
BITMAP
07E0
0400
0400
0400
0400
0400
0C00
0800
0800
0800
0800
0800
0800
1000
1000
1000
1000
1000
1000
3000
2000
2000
2000
2000
2000
2000
4000
4000
4000
4000
4000
4000
8000
8000
8000
8000
8000
F800
ENDCHAR
STARTCHAR 005C
ENCODING 92
SWIDTH 360 0
DWIDTH 14 0
BBX 7 30 4 -2
BITMAP
80
80
80
40
40
40
40
40
60
20
20
20
20
10
10
10
10
10
08
08
08
08
08
04
04
04
04
04
02
02
ENDCHAR
STARTCHAR 005D
ENCODING 93
SWIDTH 205 0
DWIDTH 8 0
BBX 11 38 -3 -6
BITMAP
03E0
0020
0020
0020
0020
0040
0040
0040
0040
0040
0040
00C0
0080
0080
0080
0080
0080
0080
0100
0100
0100
0100
0100
0100
0200
0200
0200
0200
0200
0200
0600
0400
0400
0400
0400
0400
0400
F800
ENDCHAR
STARTCHAR 005E
ENCODING 94
SWIDTH 385 0
DWIDTH 15 0
BBX 12 14 2 14
BITMAP
0080
0180
0180
0240
0240
0440
0C40
0860
1020
1020
2020
2030
4010
C010
ENDCHAR
STARTCHAR 005F
ENCODING 95
SWIDTH 385 0
DWIDTH 15 0
BBX 16 1 -2 -1
BITMAP
FFFF
ENDCHAR
STARTCHAR 0060
ENCODING 96
SWIDTH 231 0
DWIDTH 9 0
BBX 3 5 6 24
BITMAP
80
C0
40
20
20
ENDCHAR
STARTCHAR 0061
ENCODING 97
SWIDTH 488 0
DWIDTH 19 0
BBX 16 21 1 0
BITMAP
01F8
070E
0802
1001
3001
2001
0001
0001
0001
0001
0FFF
3802
6002
C002
8002
8002
8004
800C
8014
C064
3F84
ENDCHAR
STARTCHAR 0062
ENCODING 98
SWIDTH 514 0
DWIDTH 20 0
BBX 17 29 1 0
BITMAP
040000
040000
040000
040000
080000
080000
080000
080000
087C00
098200
160100
1C0080
180080
100080
100080
300080
200080
200080
200080
200080
200080
600180
400100
400100
400200
600600
600400
981800
8FF000
ENDCHAR
STARTCHAR 0063
ENCODING 99
SWIDTH 488 0
DWIDTH 19 0
BBX 17 21 1 0
BITMAP
00F800
030600
0C0200
180100
100100
200080
200080
400000
400000
400000
400000
C00000
800000
800000
800000
400200
400200
400400
200C00
301800
0FE000
ENDCHAR
STARTCHAR 0064
ENCODING 100
SWIDTH 514 0
DWIDTH 20 0
BBX 19 29 2 0
BITMAP
000060
000040
000040
000040
000040
000040
000080
000080
01F080
061C80
080680
100280
200100
200100
400100
400100
400100
800100
800200
800200
800200
800200
800200
800600
800400
800C00
401C00
602400
1FC400
ENDCHAR
STARTCHAR 0065
ENCODING 101
SWIDTH 488 0
DWIDTH 19 0
BBX 17 21 1 0
BITMAP
00F800
030C00
0C0200
080100
100100
200080
200080
400080
400080
7FFF80
800000
800000
800000
800000
800000
400000
400000
400000
200400
101800
0FF000
ENDCHAR
STARTCHAR 0066
ENCODING 102
SWIDTH 282 0
DWIDTH 11 0
BBX 12 30 3 0
BITMAP
0020
01D0
0200
0400
0800
0800
0800
0800
1000
FFC0
FF80
1000
1000
1000
2000
2000
2000
2000
2000
6000
4000
4000
4000
4000
4000
C000
8000
8000
8000
8000
ENDCHAR
STARTCHAR 0067
ENCODING 103
SWIDTH 514 0
DWIDTH 20 0
BBX 18 29 1 -8
BITMAP
00F840
030C40
040240
080140
100080
100080
200080
200080
600080
400180
400100
400100
400100
400100
400100
400300
400200
400600
200E00
303200
1FE200
000400
000400
000400
000800
801800
803000
606000
3F8000
ENDCHAR
STARTCHAR 0068
ENCODING 104
SWIDTH 514 0
DWIDTH 20 0
BBX 17 29 1 0
BITMAP
040000
040000
040000
040000
080000
080000
080000
080000
087C00
098300
130100
140080
180080
180080
100080
100080
200080
200080
200100
200100
200100
600100
400100
400100
400200
400200
400200
800200
800200
ENDCHAR
STARTCHAR 0069
ENCODING 105
SWIDTH 180 0
DWIDTH 7 0
BBX 6 28 2 0
BITMAP
0C
08
00
00
00
00
00
10
10
10
20
20
20
20
20
20
40
40
40
40
40
40
80
80
80
80
80
80
ENDCHAR
STARTCHAR 006A
ENCODING 106
SWIDTH 205 0
DWIDTH 8 0
BBX 14 36 -6 -8
BITMAP
000C
000C
0000
0000
0000
0000
0000
0010
0010
0010
0020
0020
0020
0020
0020
0020
0040
0040
0040
0040
0040
0040
0080
0080
0080
0080
0080
0080
0100
0100
0100
0100
0200
0200
0400
F800
ENDCHAR
STARTCHAR 006B
ENCODING 107
SWIDTH 437 0
DWIDTH 17 0
BBX 18 29 1 0
BITMAP
040000
040000
040000
040000
080000
080000
080000
080000
0800C0
080100
100200
100C00
101800
103000
104000
118000
230000
260000
2B0000
310000
208000
60C000
404000
402000
403000
401000
400800
800C00
800400
ENDCHAR
STARTCHAR 006C
ENCODING 108
SWIDTH 180 0
DWIDTH 7 0
BBX 5 29 2 0
BITMAP
08
08
08
08
08
10
10
10
10
10
10
20
20
20
20
20
20
40
40
40
40
40
40
80
80
80
80
80
80
ENDCHAR
STARTCHAR 006D
ENCODING 109
SWIDTH 848 0
DWIDTH 33 0
BBX 30 21 1 0
BITMAP
187C03E0
11830E18
12011804
1400A004
1800C004
1800C004
30008004
30008004
20008004
20010004
20010004
20010004
60010008
40010008
40010008
40020008
40020008
40020008
80020010
80020010
80020010
ENDCHAR
STARTCHAR 006E
ENCODING 110
SWIDTH 514 0
DWIDTH 20 0
BBX 17 21 1 0
BITMAP
087C00
098300
130100
140080
180080
180080
100080
300080
200080
200080
200100
200100
200100
600100
400100
400100
400200
400200
400200
800200
800200
ENDCHAR
STARTCHAR 006F
ENCODING 111
SWIDTH 514 0
DWIDTH 20 0
BBX 18 21 1 0
BITMAP
00F800
030600
040100
080080
100080
200040
200040
400040
400040
400040
C00040
800040
8000C0
800080
800080
400100
400100
400200
200400
101800
0FF000
ENDCHAR
STARTCHAR 0070
ENCODING 112
SWIDTH 514 0
DWIDTH 20 0
BBX 18 29 0 -8
BITMAP
043E00
0CC100
0B0080
0E0040
0C0040
080040
080040
180040
100040
100040
100040
100040
100040
2000C0
200080
200080
200100
300300
300200
4C0C00
47F800
400000
400000
400000
400000
800000
800000
800000
800000
ENDCHAR
STARTCHAR 0071
ENCODING 113
SWIDTH 514 0
DWIDTH 20 0
BBX 17 29 2 -8
BITMAP
01F080
061C80
080680
100280
200100
200100
400100
400100
400100
800100
800200
800200
800200
800200
800200
800600
800400
800C00
401C00
603400
1FC400
000800
000800
000800
000800
000800
000800
001000
001000
ENDCHAR
STARTCHAR 0072
ENCODING 114
SWIDTH 308 0
DWIDTH 12 0
BBX 13 21 1 0
BITMAP
0878
0980
1200
1400
1800
1800
1000
3000
2000
2000
2000
2000
2000
6000
4000
4000
4000
4000
4000
8000
8000
ENDCHAR
STARTCHAR 0073
ENCODING 115
SWIDTH 462 0
DWIDTH 18 0
BBX 16 21 1 0
BITMAP
01F0
060C
0802
1001
3001
2001
2000
3000
1800
0E00
01C0
0030
000C
0004
0004
0006
8004
8004
C008
6030
1FE0
ENDCHAR
STARTCHAR 0074
ENCODING 116
SWIDTH 282 0
DWIDTH 11 0
BBX 10 26 2 0
BITMAP
0400
0400
0C00
0800
0800
FFC0
FF80
0800
1000
1000
1000
1000
1000
1000
2000
2000
2000
2000
2000
2000
4000
4000
4000
4000
6000
3E00
ENDCHAR
STARTCHAR 0075
ENCODING 117
SWIDTH 514 0
DWIDTH 20 0
BBX 17 21 2 0
BITMAP
100080
200080
200080
200080
200100
200100
200100
400100
400100
400100
400200
400200
400200
800200
800200
800600
800400
C00C00
401400
606400
3FC400
ENDCHAR
STARTCHAR 0076
ENCODING 118
SWIDTH 462 0
DWIDTH 18 0
BBX 17 21 2 0
BITMAP
800080
C00100
400300
400200
400600
400400
200C00
200800
201000
201000
302000
102000
104000
104000
108000
088000
090000
0B0000
0A0000
0E0000
040000
ENDCHAR
STARTCHAR 0077
ENCODING 119
SWIDTH 720 0
DWIDTH 28 0
BBX 25 21 3 0
BITMAP
80080080
80080080
80140180
C0140100
40240300
40240200
40440600
40440400
40840400
40840800
41820800
41021000
63021000
22023000
26022000
24026000
24024000
28014000
28018000
30018000
30010000
ENDCHAR
STARTCHAR 0078
ENCODING 120
SWIDTH 462 0
DWIDTH 18 0
BBX 18 21 0 0
BITMAP
100040
180080
080100
0C0200
040600
020C00
020800
011000
012000
00C000
00C000
01C000
036000
022000
043000
081000
100800
300800
600400
C00400
800200
ENDCHAR
STARTCHAR 0079
ENCODING 121
SWIDTH 462 0
DWIDTH 18 0
BBX 21 29 -2 -8
BITMAP
080008
040010
040010
040020
040020
060040
020040
020080
020180
020100
010300
010200
010400
010400
018800
008800
009000
009000
00A000
006000
004000
00C000
008000
018000
010000
020000
060000
0C0000
F80000
ENDCHAR
STARTCHAR 007A
ENCODING 122
SWIDTH 462 0
DWIDTH 18 0
BBX 18 21 0 0
BITMAP
0FFFC0
0FFF80
000180
000300
000600
000400
000800
001000
002000
004000
00C000
018000
030000
020000
040000
080000
100000
200000
600000
C00000
FFFE00
ENDCHAR
STARTCHAR 007B
ENCODING 123
SWIDTH 308 0
DWIDTH 12 0
BBX 14 38 1 -8
BITMAP
000C
0030
0060
00C0
0080
0100
0100
0100
0300
0200
0200
0200
0200
0200
0600
0400
0C00
1800
E000
E000
1000
0800
0800
0800
0800
0800
0800
0800
1000
1000
1000
1000
1000
1000
0800
0800
0400
0300
ENDCHAR
STARTCHAR 007C
ENCODING 124
SWIDTH 180 0
DWIDTH 7 0
BBX 6 33 1 -5
BITMAP
04
04
0C
08
08
08
08
08
08
10
10
10
10
10
10
20
20
20
20
20
20
20
40
40
40
40
40
40
C0
80
80
80
80
ENDCHAR
STARTCHAR 007D
ENCODING 125
SWIDTH 308 0
DWIDTH 12 0
BBX 14 38 -3 -8
BITMAP
0300
0080
0040
0040
0020
0020
0020
0020
0020
0020
0040
0040
0040
0040
0040
0040
0040
0020
001C
001C
0060
0040
0080
0080
0100
0100
0100
0100
0100
0100
0200
0200
0200
0400
0C00
1800
3000
C000
ENDCHAR
STARTCHAR 007E
ENCODING 126
SWIDTH 668 0
DWIDTH 26 0
BBX 20 7 3 8
BITMAP
0E0000
338010
40C010
C06020
803060
801DC0
000200
ENDCHAR
STARTCHAR 00A0
ENCODING 160
SWIDTH 231 0
DWIDTH 9 0
BBX 0 0 0 0
BITMAP
ENDCHAR
STARTCHAR 00A1
ENCODING 161
SWIDTH 180 0
DWIDTH 7 0
BBX 6 28 0 -7
BITMAP
0C
0C
00
00
00
00
00
00
10
10
10
10
10
10
20
20
20
20
20
20
40
40
40
40
40
40
80
80
ENDCHAR
STARTCHAR 00A2
ENCODING 162
SWIDTH 514 0
DWIDTH 20 0
BBX 16 30 2 -5
BITMAP
0020
0020
0020
0020
01F8
070C
0C02
1801
1001
2001
6001
4000
4000
C000
8000
8000
8000
8000
8000
8002
8006
4004
4008
2030
1FE0
0200
0200
0200
0200
0400
ENDCHAR
STARTCHAR 00A3
ENCODING 163
SWIDTH 540 0
DWIDTH 21 0
BBX 21 28 0 0
BITMAP
000FC0
003860
006010
004010
008008
008008
010008
010000
010000
010000
010000
020000
020000
020000
3FFC00
020000
020000
020000
040000
040000
040000
040000
040000
040000
080000
080000
100000
FFFFC0
ENDCHAR
STARTCHAR 00A4
ENCODING 164
SWIDTH 694 0
DWIDTH 27 0
BBX 27 24 0 -1
BITMAP
08000020
041FF060
026008C0
03C00500
01000200
02000100
06000100
04000100
08000080
08000080
10000080
10000080
10000080
10000100
10000100
10000100
10000200
10000200
10000400
08000800
0C001800
16002C00
2300C600
C0FF0200
ENDCHAR
STARTCHAR 00A5
ENCODING 165
SWIDTH 488 0
DWIDTH 19 0
BBX 20 28 1 0
BITMAP
300010
100020
100020
080040
080080
080180
040100
040200
040400
020400
020800
031000
011000
012000
00C000
7FFF00
008000
008000
008000
018000
010000
FFFE00
010000
010000
010000
030000
020000
020000
ENDCHAR
STARTCHAR 00A6
ENCODING 166
SWIDTH 180 0
DWIDTH 7 0
BBX 7 33 0 -5
BITMAP
02
02
02
04
04
04
04
04
04
08
08
08
08
08
08
00
00
00
00
10
30
20
20
20
20
20
40
40
40
40
40
40
80
ENDCHAR
STARTCHAR 00A7
ENCODING 167
SWIDTH 565 0
DWIDTH 22 0
BBX 21 37 0 -9
BITMAP
001F80
00E060
018030
020018
060008
040008
040008
040008
040000
040000
020000
018000
00E000
071C00
080380
100040
200020
200030
200010
200010
300020
100020
0C0040
038180
007E00
000C00
000300
000100
000080
800080
800080
800080
800100
C00100
400200
300C00
1FF000
ENDCHAR
STARTCHAR 00A8
ENCODING 168
SWIDTH 411 0
DWIDTH 16 0
BBX 10 2 6 26
BITMAP
C0C0
C0C0
ENDCHAR
STARTCHAR 00A9
ENCODING 169
SWIDTH 771 0
DWIDTH 30 0
BBX 27 28 2 0
BITMAP
000FE000
00301C00
00C00600
01000300
02000180
04000080
080F8040
10184040
10202060
20402020
20402020
40801020
40800020
40800020
40800020
C1800060
C1802040
40804040
408040C0
4080C080
40418100
603F0100
20000200
10000400
18000800
0C003000
0700C000
01FF0000
ENDCHAR
STARTCHAR 00AA
ENCODING 170
SWIDTH 411 0
DWIDTH 16 0
BBX 11 15 4 13
BITMAP
0F80
1840
2020
6020
0020
0020
01E0
3FE0
6060
C040
8040
8040
80C0
4340
3C40
ENDCHAR
STARTCHAR 00AB
ENCODING 171
SWIDTH 411 0
DWIDTH 16 0
BBX 12 14 3 3
BITMAP
0610
0C20
0840
1080
2100
4300
8600
8400
C600
4200
6100
2180
1080
18C0
ENDCHAR
STARTCHAR 00AC
ENCODING 172
SWIDTH 514 0
DWIDTH 20 0
BBX 14 6 3 8
BITMAP
FFFC
0004
0004
0004
0004
0008
ENDCHAR
STARTCHAR 00AD
ENCODING 173
SWIDTH 282 0
DWIDTH 11 0
BBX 9 1 1 12
BITMAP
FF80
ENDCHAR
STARTCHAR 00AE
ENCODING 174
SWIDTH 771 0
DWIDTH 30 0
BBX 27 28 2 0
BITMAP
000FE000
00701800
00C00600
03000300
06000180
0C000080
083F80C0
10206040
30202040
20201020
60201020
40202020
40202020
4040C020
807F0020
80408040
80404040
80404040
C0404080
40C04080
40804100
40804300
20000200
30000400
18001800
0C003000
0600C000
01FF0000
ENDCHAR
STARTCHAR 00AF
ENCODING 175
SWIDTH 360 0
DWIDTH 14 0
BBX 10 1 5 26
BITMAP
FFC0
ENDCHAR
STARTCHAR 00B0
ENCODING 176
SWIDTH 360 0
DWIDTH 14 0
BBX 9 9 5 19
BITMAP
1E00
2100
4100
8080
8080
8100
8100
4600
3C00
ENDCHAR
STARTCHAR 00B1
ENCODING 177
SWIDTH 488 0
DWIDTH 19 0
BBX 18 24 1 0
BITMAP
002000
002000
002000
002000
002000
002000
004000
004000
004000
7FFFC0
004000
004000
008000
008000
008000
008000
008000
008000
008000
000000
000000
000000
000000
FFFE00
ENDCHAR
STARTCHAR 00B2
ENCODING 178
SWIDTH 334 0
DWIDTH 13 0
BBX 11 15 2 13
BITMAP
0780
0860
1020
2020
2020
0020
0040
00C0
0180
0200
0400
0800
1000
6000
FFC0
ENDCHAR
STARTCHAR 00B3
ENCODING 179
SWIDTH 334 0
DWIDTH 13 0
BBX 12 16 2 12
BITMAP
0380
0C60
1020
2010
0030
0020
0040
0780
08C0
0040
0020
8020
8040
40C0
3180
0600
ENDCHAR
STARTCHAR 00B4
ENCODING 180
SWIDTH 231 0
DWIDTH 9 0
BBX 4 5 5 24
BITMAP
10
20
60
C0
80
ENDCHAR
STARTCHAR 00B5
ENCODING 181
SWIDTH 514 0
DWIDTH 20 0
BBX 19 29 0 -8
BITMAP
040020
040020
080020
080020
080040
080040
080040
100040
100040
100040
100080
100080
100080
200080
200180
200180
200100
300300
300500
481900
47F100
400000
400000
400000
400000
800000
800000
800000
800000
ENDCHAR
STARTCHAR 00B6
ENCODING 182
SWIDTH 437 0
DWIDTH 17 0
BBX 14 28 3 0
BITMAP
007C
03FC
0FFC
1FF8
3FF8
7FF8
7FF8
FFF8
FFF8
FFF0
FFF0
FFF0
FFF0
FFF0
7FF0
7FE0
1FE0
0FE0
0020
0020
0060
0040
0040
0040
0040
0040
00C0
0080
ENDCHAR
STARTCHAR 00B7
ENCODING 183
SWIDTH 205 0
DWIDTH 8 0
BBX 2 2 4 12
BITMAP
C0
80
ENDCHAR
STARTCHAR 00B8
ENCODING 184
SWIDTH 231 0
DWIDTH 9 0
BBX 6 8 -2 -8
BITMAP
10
20
1C
04
04
04
08
F0
ENDCHAR
STARTCHAR 00B9
ENCODING 185
SWIDTH 334 0
DWIDTH 13 0
BBX 6 15 5 13
BITMAP
04
3C
C8
08
08
08
08
08
10
10
10
10
10
10
20
ENDCHAR
STARTCHAR 00BA
ENCODING 186
SWIDTH 411 0
DWIDTH 16 0
BBX 12 15 4 13
BITMAP
0780
1860
3020
6010
4010
4010
C010
8010
8020
8020
8020
8040
40C0
6180
1E00
ENDCHAR
STARTCHAR 00BB
ENCODING 187
SWIDTH 411 0
DWIDTH 16 0
BBX 13 15 1 3
BITMAP
1080
1840
0840
0C20
0430
0610
0218
0108
0218
0430
0860
10C0
2180
4300
C600
ENDCHAR
STARTCHAR 00BC
ENCODING 188
SWIDTH 694 0
DWIDTH 27 0
BBX 19 28 5 0
BITMAP
040000
3C0000
C40000
0C0080
080080
080100
080200
080600
080C00
100800
101000
102000
106000
104040
1080C0
010140
030240
060480
040880
081080
103080
306080
20C080
40FFE0
800100
000100
000100
000100
ENDCHAR
STARTCHAR 00BD
ENCODING 189
SWIDTH 694 0
DWIDTH 27 0
BBX 21 28 4 0
BITMAP
020000
1C0000
640000
040000
040080
040100
040300
080600
080400
080800
081000
083000
082000
1043E0
108410
018808
031008
020008
040010
080030
180060
1000C0
200100
400200
C00400
000800
001000
003FF0
ENDCHAR
STARTCHAR 00BE
ENCODING 190
SWIDTH 745 0
DWIDTH 29 0
BBX 24 28 3 0
BITMAP
078000
186000
302000
202004
002004
002008
004010
0F8030
018060
004040
006080
804100
804300
40C206
73040E
08081C
001834
003024
002044
004084
00810C
018208
010408
020FFF
040008
000008
000010
000010
ENDCHAR
STARTCHAR 00BF
ENCODING 191
SWIDTH 411 0
DWIDTH 16 0
BBX 13 28 0 -7
BITMAP
0020
0060
0000
0000
0000
0000
0000
0000
0040
0080
0080
0100
0300
0400
0800
1000
2000
6000
4000
8000
8000
8008
8008
8010
8010
C020
60C0
3F80
ENDCHAR
STARTCHAR 00C0
ENCODING 192
SWIDTH 565 0
DWIDTH 22 0
BBX 21 35 -1 0
BITMAP
000400
000600
000200
000100
000100
000000
000000
000300
000300
000500
000500
000900
000880
001080
001080
002080
002080
004040
00C040
008040
018040
010040
020060
020020
040020
040020
0FFFE0
080030
100010
100010
200010
600010
400010
C00008
800008
ENDCHAR
STARTCHAR 00C1
ENCODING 193
SWIDTH 565 0
DWIDTH 22 0
BBX 21 35 -1 0
BITMAP
000030
000020
000040
000080
000100
000000
000000
000300
000300
000500
000500
000900
000880
001080
001080
002080
002080
004040
00C040
008040
018040
010040
020060
020020
040020
040020
0FFFE0
080030
100010
100010
200010
600010
400010
C00008
800008
ENDCHAR
STARTCHAR 00C2
ENCODING 194
SWIDTH 565 0
DWIDTH 22 0
BBX 21 35 -1 0
BITMAP
000180
0003C0
000660
000C20
001810
000000
000000
000300
000300
000500
000500
000900
000880
001080
001080
002080
002080
004040
00C040
008040
018040
010040
020060
020020
040020
040020
0FFFE0
080030
100010
100010
200010
600010
400010
C00008
800008
ENDCHAR
STARTCHAR 00C3
ENCODING 195
SWIDTH 565 0
DWIDTH 22 0
BBX 22 34 -1 0
BITMAP
000E04
00118C
002078
000000
000000
000000
000300
000300
000500
000500
000900
000880
001080
001080
002080
002080
004040
00C040
008040
018040
010040
020060
020020
040020
040020
0FFFE0
080030
100010
100010
200010
600010
400010
C00008
800008
ENDCHAR
STARTCHAR 00C4
ENCODING 196
SWIDTH 565 0
DWIDTH 22 0
BBX 21 34 -1 0
BITMAP
001818
001818
000000
000000
000000
000000
000300
000300
000500
000500
000900
000880
001080
001080
002080
002080
004040
00C040
008040
018040
010040
020060
020020
040020
040020
0FFFE0
080030
100010
100010
200010
600010
400010
C00008
800008
ENDCHAR
STARTCHAR 00C5
ENCODING 197
SWIDTH 565 0
DWIDTH 22 0
BBX 21 36 -1 0
BITMAP
000080
000360
000420
000420
000420
000440
000380
000000
000300
000300
000500
000500
000900
000880
001080
001080
002080
002080
004040
00C040
008040
018040
010040
020060
020020
040020
040020
0FFFE0
080030
100010
100010
200010
600010
400010
C00008
800008
ENDCHAR
STARTCHAR 00C6
ENCODING 198
SWIDTH 848 0
DWIDTH 33 0
BBX 35 28 -1 0
BITMAP
000007FFE0
00000C0000
00001C0000
0000140000
0000240000
0000440000
0000C40000
0001880000
0001080000
0002080000
0004080000
000C080000
0008080000
00100FFE00
0020080000
0060100000
0040100000
0080100000
0100100000
03FFF00000
0200100000
0400100000
0800300000
1800200000
1000200000
2000200000
4000200000
C0003FFF00
ENDCHAR
STARTCHAR 00C7
ENCODING 199
SWIDTH 617 0
DWIDTH 24 0
BBX 21 36 2 -8
BITMAP
003F80
00C0C0
030020
060010
040008
080008
180008
100008
300008
200000
200000
200000
400000
400000
400000
400000
400000
400000
800000
C00000
400020
400020
400040
4000C0
200080
300300
180600
07F800
008000
008000
01E000
002000
002000
002000
006000
078000
ENDCHAR
STARTCHAR 00C8
ENCODING 200
SWIDTH 540 0
DWIDTH 21 0
BBX 21 35 2 0
BITMAP
002000
003000
001000
000800
000800
000000
000000
0FFFF8
080000
080000
080000
080000
080000
100000
100000
100000
100000
100000
100000
200000
3FFF80
200000
200000
200000
200000
400000
400000
400000
400000
400000
800000
800000
800000
800000
FFFF00
ENDCHAR
STARTCHAR 00C9
ENCODING 201
SWIDTH 540 0
DWIDTH 21 0
BBX 21 35 2 0
BITMAP
000080
000100
000200
000400
000800
000000
000000
0FFFF8
080000
080000
080000
080000
080000
100000
100000
100000
100000
100000
100000
200000
3FFF80
200000
200000
200000
200000
400000
400000
400000
400000
400000
800000
800000
800000
800000
FFFF00
ENDCHAR
STARTCHAR 00CA
ENCODING 202
SWIDTH 540 0
DWIDTH 21 0
BBX 21 35 2 0
BITMAP
000400
001A00
003300
006100
00C080
000000
000000
0FFFF8
080000
080000
080000
080000
080000
100000
100000
100000
100000
100000
100000
200000
3FFF80
200000
200000
200000
200000
400000
400000
400000
400000
400000
800000
800000
800000
800000
FFFF00
ENDCHAR
STARTCHAR 00CB
ENCODING 203
SWIDTH 540 0
DWIDTH 21 0
BBX 21 34 2 0
BITMAP
00C0C0
00C0C0
000000
000000
000000
000000
0FFFF8
080000
080000
080000
080000
080000
100000
100000
100000
100000
100000
100000
200000
3FFF80
200000
200000
200000
200000
400000
400000
400000
400000
400000
800000
800000
800000
800000
FFFF00
ENDCHAR
STARTCHAR 00CC
ENCODING 204
SWIDTH 231 0
DWIDTH 9 0
BBX 6 35 3 0
BITMAP
30
10
08
08
04
00
00
08
08
08
08
18
10
10
10
10
10
20
20
20
20
20
20
40
40
40
40
40
40
80
80
80
80
80
80
ENDCHAR
STARTCHAR 00CD
ENCODING 205
SWIDTH 231 0
DWIDTH 9 0
BBX 9 35 3 0
BITMAP
0080
0180
0300
0200
0400
0000
0000
0800
0800
0800
0800
1800
1000
1000
1000
1000
1000
2000
2000
2000
2000
2000
2000
4000
4000
4000
4000
4000
4000
8000
8000
8000
8000
8000
8000
ENDCHAR
STARTCHAR 00CE
ENCODING 206
SWIDTH 231 0
DWIDTH 9 0
BBX 10 35 3 0
BITMAP
0600
0E00
1100
2080
40C0
0000
0000
0800
0800
0800
0800
1800
1000
1000
1000
1000
1000
2000
2000
2000
2000
2000
2000
4000
4000
4000
4000
4000
4000
8000
8000
8000
8000
8000
8000
ENDCHAR
STARTCHAR 00CF
ENCODING 207
SWIDTH 231 0
DWIDTH 9 0
BBX 11 34 3 0
BITMAP
6060
4060
0000
0000
0000
0000
0800
0800
0800
0800
1800
1000
1000
1000
1000
1000
2000
2000
2000
2000
2000
2000
4000
4000
4000
4000
4000
4000
8000
8000
8000
8000
8000
8000
ENDCHAR
STARTCHAR 00D0
ENCODING 208
SWIDTH 642 0
DWIDTH 25 0
BBX 22 28 2 0
BITMAP
07FC00
040780
040040
0C0020
080010
080018
080008
080008
08000C
180004
100004
100004
100008
FFE008
100008
200008
200008
200018
200010
200010
200020
400020
400040
400080
400100
400600
401C00
FFE000
ENDCHAR
STARTCHAR 00D1
ENCODING 209
SWIDTH 668 0
DWIDTH 26 0
BBX 24 34 2 0
BITMAP
001E08
002318
0040F0
000000
000000
000000
0C0001
0C0001
0E0002
0A0002
0B0002
090002
118002
108002
10C004
104004
106004
102004
203004
201004
201008
200808
200808
600408
400408
400218
400210
400110
400110
C00090
800090
800070
800060
800020
ENDCHAR
STARTCHAR 00D2
ENCODING 210
SWIDTH 642 0
DWIDTH 25 0
BBX 22 36 2 0
BITMAP
001000
001000
000800
000C00
000400
000000
000000
000000
003F80
00C0C0
030020
060010
0C0008
080008
100008
100004
200004
200004
200004
400004
400008
400008
400008
400008
C00008
800018
800010
800010
800020
400020
400040
4000C0
200080
300300
180600
07F800
ENDCHAR
STARTCHAR 00D3
ENCODING 211
SWIDTH 642 0
DWIDTH 25 0
BBX 22 36 2 0
BITMAP
000040
0000C0
000180
000100
000200
000000
000000
000000
003F80
00C0C0
030020
060010
0C0008
080008
100008
100004
200004
200004
200004
400004
400008
400008
400008
400008
C00008
800018
800010
800010
800020
400020
400040
4000C0
200080
300300
180600
07F800
ENDCHAR
STARTCHAR 00D4
ENCODING 212
SWIDTH 642 0
DWIDTH 25 0
BBX 22 35 2 0
BITMAP
000700
000D00
001880
0030C0
004040
000000
000000
003F80
00C0C0
030020
060010
0C0008
080008
100008
100004
200004
200004
200004
400004
400008
400008
400008
400008
C00008
800018
800010
800010
800020
400020
400040
4000C0
200080
300300
180600
07F800
ENDCHAR
STARTCHAR 00D5
ENCODING 213
SWIDTH 642 0
DWIDTH 25 0
BBX 22 35 2 0
BITMAP
000010
007C10
004320
0081C0
000000
000000
000000
003F80
00C0C0
030020
060010
0C0008
080008
100008
100004
200004
200004
200004
400004
400008
400008
400008
400008
C00008
800018
800010
800010
800020
400020
400040
4000C0
200080
300300
180600
07F800
ENDCHAR
STARTCHAR 00D6
ENCODING 214
SWIDTH 642 0
DWIDTH 25 0
BBX 22 35 2 0
BITMAP
000020
006060
000020
000000
000000
000000
000000
003F80
00C0C0
030020
060010
0C0008
080008
100008
100004
200004
200004
200004
400004
400008
400008
400008
400008
C00008
800018
800010
800010
800020
400020
400040
4000C0
200080
300300
180600
07F800
ENDCHAR
STARTCHAR 00D7
ENCODING 215
SWIDTH 488 0
DWIDTH 19 0
BBX 17 16 0 0
BITMAP
100000
180180
0C0300
040600
020C00
011000
01A000
00C000
00C000
032000
063000
0C1800
180800
200400
400200
800200
ENDCHAR
STARTCHAR 00D8
ENCODING 216
SWIDTH 642 0
DWIDTH 25 0
BBX 23 29 2 -1
BITMAP
003F02
00C0C4
03002C
060018
0C0018
080028
100048
1000CC
200184
200104
200204
400404
400C08
400808
401008
402008
C06008
80C018
808010
810010
820020
460020
4C0040
4800C0
300080
300300
780600
47F800
800000
ENDCHAR
STARTCHAR 00D9
ENCODING 217
SWIDTH 642 0
DWIDTH 25 0
BBX 22 35 3 0
BITMAP
003000
001000
000800
000800
000400
000000
000000
10000C
100008
100008
100008
300008
200008
200018
200010
200010
200010
400010
400010
400020
400020
400020
400020
800020
800020
800040
800040
800040
800040
800080
800180
400300
600600
300C00
0FF000
ENDCHAR
STARTCHAR 00DA
ENCODING 218
SWIDTH 642 0
DWIDTH 25 0
BBX 22 35 3 0
BITMAP
000080
000100
000300
000600
000400
000000
000000
10000C
100008
100008
100008
300008
200008
200018
200010
200010
200010
400010
400010
400020
400020
400020
400020
800020
800020
800040
800040
800040
800040
800080
800180
400300
600600
300C00
0FF000
ENDCHAR
STARTCHAR 00DB
ENCODING 219
SWIDTH 642 0
DWIDTH 25 0
BBX 22 35 3 0
BITMAP
000600
000A00
001100
002180
0040C0
000000
000000
10000C
100008
100008
100008
300008
200008
200018
200010
200010
200010
400010
400010
400020
400020
400020
400020
800020
800020
800040
800040
800040
800040
800080
800180
400300
600600
300C00
0FF000
ENDCHAR
STARTCHAR 00DC
ENCODING 220
SWIDTH 642 0
DWIDTH 25 0
BBX 22 34 3 0
BITMAP
004060
00C040
000000
000000
000000
000000
10000C
100008
100008
100008
300008
200008
200018
200010
200010
200010
400010
400010
400020
400020
400020
400020
800020
800020
800040
800040
800040
800040
800080
800180
400300
600600
300C00
0FF000
ENDCHAR
STARTCHAR 00DD
ENCODING 221
SWIDTH 565 0
DWIDTH 22 0
BBX 22 35 3 0
BITMAP
000300
000200
000400
000800
001000
000000
000000
C0000C
400008
600010
200020
200060
100040
100080
180100
080300
080600
040400
040800
021000
023000
022000
014000
018000
008000
010000
010000
010000
010000
010000
010000
020000
020000
020000
020000
ENDCHAR
STARTCHAR 00DE
ENCODING 222
SWIDTH 565 0
DWIDTH 22 0
BBX 18 28 2 0
BITMAP
080000
080000
080000
080000
080000
080000
1FF800
100700
100180
1000C0
100040
100040
200040
200040
200040
200040
200080
200080
400100
400600
403C00
7FE000
400000
800000
800000
800000
800000
800000
ENDCHAR
STARTCHAR 00DF
ENCODING 223
SWIDTH 540 0
DWIDTH 21 0
BBX 18 29 1 0
BITMAP
00FC00
010600
020300
040100
040100
080100
080300
080200
080600
100400
100800
100800
101800
101000
101000
200800
200800
200400
200200
200100
200080
400040
400040
400040
400080
400080
800100
8C0600
83F800
ENDCHAR
STARTCHAR 00E0
ENCODING 224
SWIDTH 488 0
DWIDTH 19 0
BBX 16 29 1 0
BITMAP
0040
0020
0020
0010
0010
0000
0000
0000
01F8
070E
0802
1001
3001
2001
0001
0001
0001
0001
0FFF
3802
6002
C002
8002
8002
8004
800C
8014
C064
3F84
ENDCHAR
STARTCHAR 00E1
ENCODING 225
SWIDTH 488 0
DWIDTH 19 0
BBX 16 29 1 0
BITMAP
0001
0002
0004
0008
0018
0000
0000
0000
01F8
070E
0802
1001
3001
2001
0001
0001
0001
0001
0FFF
3802
6002
C002
8002
8002
8004
800C
8014
C064
3F84
ENDCHAR
STARTCHAR 00E2
ENCODING 226
SWIDTH 488 0
DWIDTH 19 0
BBX 16 29 1 0
BITMAP
0008
0014
0026
0043
0181
0000
0000
0000
01F8
070E
0802
1001
3001
2001
0001
0001
0001
0001
0FFF
3802
6002
C002
8002
8002
8004
800C
8014
C064
3F84
ENDCHAR
STARTCHAR 00E3
ENCODING 227
SWIDTH 488 0
DWIDTH 19 0
BBX 18 28 1 0
BITMAP
00F040
011840
030780
000000
000000
000000
000000
01F800
070E00
080200
100100
300100
200100
000100
000100
000100
000100
0FFF00
380200
600200
C00200
800200
800200
800400
800C00
801400
C06400
3F8400
ENDCHAR
STARTCHAR 00E4
ENCODING 228
SWIDTH 488 0
DWIDTH 19 0
BBX 17 28 1 0
BITMAP
018080
018180
000000
000000
000000
000000
000000
01F800
070E00
080200
100100
300100
200100
000100
000100
000100
000100
0FFF00
380200
600200
C00200
800200
800200
800400
800C00
801400
C06400
3F8400
ENDCHAR
STARTCHAR 00E5
ENCODING 229
SWIDTH 488 0
DWIDTH 19 0
BBX 16 30 1 0
BITMAP
0008
003E
0062
0042
0042
0066
003C
0000
0000
01F8
070E
0802
1001
3001
2001
0001
0001
0001
0001
0FFF
3802
6002
C002
8002
8002
8004
800C
8014
C064
3F84
ENDCHAR
STARTCHAR 00E6
ENCODING 230
SWIDTH 797 0
DWIDTH 31 0
BBX 30 21 1 0
BITMAP
01F807C0
070C1830
08022018
10024008
30028004
20038004
00030004
00030004
00020004
07FFFFFC
1C020000
30020000
40060000
C0060000
80060000
80060000
80060000
800A0000
80190020
406080C0
3FC07F80
ENDCHAR
STARTCHAR 00E7
ENCODING 231
SWIDTH 488 0
DWIDTH 19 0
BBX 17 29 1 -8
BITMAP
00F800
030600
0C0200
180100
100100
200080
200080
400000
400000
400000
400000
C00000
800000
800000
800000
400200
400200
400400
200C00
301800
0FE000
010000
020000
038000
004000
004000
004000
008000
0F0000
ENDCHAR
STARTCHAR 00E8
ENCODING 232
SWIDTH 488 0
DWIDTH 19 0
BBX 17 29 1 0
BITMAP
004000
004000
002000
002000
001000
000000
000000
000000
00F800
030C00
0C0200
080100
100100
200080
200080
400080
400080
7FFF80
800000
800000
800000
800000
800000
400000
400000
400000
200400
101800
0FF000
ENDCHAR
STARTCHAR 00E9
ENCODING 233
SWIDTH 488 0
DWIDTH 19 0
BBX 17 29 1 0
BITMAP
000300
000200
000400
000800
001000
000000
000000
000000
00F800
030C00
0C0200
080100
100100
200080
200080
400080
400080
7FFF80
800000
800000
800000
800000
800000
400000
400000
400000
200400
101800
0FF000
ENDCHAR
STARTCHAR 00EA
ENCODING 234
SWIDTH 488 0
DWIDTH 19 0
BBX 17 29 1 0
BITMAP
001800
003C00
006400
00C200
018300
000000
000000
000000
00F800
030C00
0C0200
080100
100100
200080
200080
400080
400080
7FFF80
800000
800000
800000
800000
800000
400000
400000
400000
200400
101800
0FF000
ENDCHAR
STARTCHAR 00EB
ENCODING 235
SWIDTH 488 0
DWIDTH 19 0
BBX 17 28 1 0
BITMAP
018180
018180
000000
000000
000000
000000
000000
00F800
030C00
0C0200
080100
100100
200080
200080
400080
400080
7FFF80
800000
800000
800000
800000
800000
400000
400000
400000
200400
101800
0FF000
ENDCHAR
STARTCHAR 00EC
ENCODING 236
SWIDTH 180 0
DWIDTH 7 0
BBX 5 29 1 0
BITMAP
20
10
10
08
08
00
00
00
08
08
08
10
10
10
10
10
30
20
20
20
20
20
60
40
40
40
40
40
80
ENDCHAR
STARTCHAR 00ED
ENCODING 237
SWIDTH 180 0
DWIDTH 7 0
BBX 10 29 1 0
BITMAP
00C0
0180
0100
0200
0400
0000
0000
0000
0800
0800
0800
1000
1000
1000
1000
1000
3000
2000
2000
2000
2000
2000
6000
4000
4000
4000
4000
4000
8000
ENDCHAR
STARTCHAR 00EE
ENCODING 238
SWIDTH 180 0
DWIDTH 7 0
BBX 9 28 1 0
BITMAP
0E00
1B00
3100
6080
0000
0000
0000
0800
0800
0800
1000
1000
1000
1000
1000
3000
2000
2000
2000
2000
2000
6000
4000
4000
4000
4000
4000
8000
ENDCHAR
STARTCHAR 00EF
ENCODING 239
SWIDTH 180 0
DWIDTH 7 0
BBX 11 28 1 0
BITMAP
4040
C060
0040
0000
0000
0000
0000
0800
0800
0800
1000
1000
1000
1000
1000
3000
2000
2000
2000
2000
2000
6000
4000
4000
4000
4000
4000
8000
ENDCHAR
STARTCHAR 00F0
ENCODING 240
SWIDTH 540 0
DWIDTH 21 0
BBX 18 30 3 0
BITMAP
010000
01C000
006040
001180
000E00
001C00
007600
00C200
000300
000100
000100
000100
03F100
0C0C80
180280
200180
600100
400100
C00100
800100
800100
800100
800200
800200
800400
800400
C00800
401800
303000
1FC000
ENDCHAR
STARTCHAR 00F1
ENCODING 241
SWIDTH 514 0
DWIDTH 20 0
BBX 18 28 1 0
BITMAP
00F040
011840
030780
000000
000000
000000
000000
087C00
098300
130100
140080
180080
180080
100080
300080
200080
200080
200100
200100
200100
600100
400100
400100
400200
400200
400200
800200
800200
ENDCHAR
STARTCHAR 00F2
ENCODING 242
SWIDTH 514 0
DWIDTH 20 0
BBX 18 29 1 0
BITMAP
004000
004000
002000
002000
001000
000000
000000
000000
00F800
030600
040100
080080
100080
200040
200040
400040
400040
400040
C00040
800040
8000C0
800080
800080
400100
400100
400200
200400
101800
0FF000
ENDCHAR
STARTCHAR 00F3
ENCODING 243
SWIDTH 514 0
DWIDTH 20 0
BBX 18 29 1 0
BITMAP
000300
000200
000400
000800
001000
000000
000000
000000
00F800
030600
040100
080080
100080
200040
200040
400040
400040
400040
C00040
800040
8000C0
800080
800080
400100
400100
400200
200400
101800
0FF000
ENDCHAR
STARTCHAR 00F4
ENCODING 244
SWIDTH 514 0
DWIDTH 20 0
BBX 18 29 1 0
BITMAP
001800
003C00
006400
00C200
018300
000000
000000
000000
00F800
030600
040100
080080
100080
200040
200040
400040
400040
400040
C00040
800040
8000C0
800080
800080
400100
400100
400200
200400
101800
0FF000
ENDCHAR
STARTCHAR 00F5
ENCODING 245
SWIDTH 514 0
DWIDTH 20 0
BBX 18 28 1 0
BITMAP
00E040
011080
020F80
000000
000000
000000
000000
00F800
030600
040100
080080
100080
200040
200040
400040
400040
400040
C00040
800040
8000C0
800080
800080
400100
400100
400200
200400
101800
0FF000
ENDCHAR
STARTCHAR 00F6
ENCODING 246
SWIDTH 514 0
DWIDTH 20 0
BBX 18 28 1 0
BITMAP
018180
018180
000000
000000
000000
000000
000000
00F800
030600
040100
080080
100080
200040
200040
400040
400040
400040
C00040
800040
8000C0
800080
800080
400100
400100
400200
200400
101800
0FF000
ENDCHAR
STARTCHAR 00F7
ENCODING 247
SWIDTH 540 0
DWIDTH 21 0
BBX 18 17 2 5
BITMAP
002000
006000
000000
000000
000000
000000
000000
000000
FFFFC0
000000
000000
000000
000000
000000
000000
010000
018000
ENDCHAR
STARTCHAR 00F8
ENCODING 248
SWIDTH 514 0
DWIDTH 20 0
BBX 18 26 1 -3
BITMAP
000040
000080
00FD80
030700
040300
080680
100480
200840
201840
401040
402040
406040
804040
808040
808080
810080
830080
820100
440300
4C0200
280400
301800
3FE000
200000
400000
C00000
ENDCHAR
STARTCHAR 00F9
ENCODING 249
SWIDTH 514 0
DWIDTH 20 0
BBX 17 29 2 0
BITMAP
008000
004000
004000
002000
002000
000000
000000
000000
100080
200080
200080
200080
200100
200100
200100
400100
400100
400100
400200
400200
400200
800200
800200
800600
800400
C00C00
401400
606400
3FC400
ENDCHAR
STARTCHAR 00FA
ENCODING 250
SWIDTH 514 0
DWIDTH 20 0
BBX 17 29 2 0
BITMAP
000200
000400
000800
001800
003000
000000
000000
000000
100080
200080
200080
200080
200100
200100
200100
400100
400100
400100
400200
400200
400200
800200
800200
800600
800400
C00C00
401400
606400
3FC400
ENDCHAR
STARTCHAR 00FB
ENCODING 251
SWIDTH 514 0
DWIDTH 20 0
BBX 17 29 2 0
BITMAP
001000
002800
004C00
008600
010200
000000
000000
000000
100080
200080
200080
200080
200100
200100
200100
400100
400100
400100
400200
400200
400200
800200
800200
800600
800400
C00C00
401400
606400
3FC400
ENDCHAR
STARTCHAR 00FC
ENCODING 252
SWIDTH 514 0
DWIDTH 20 0
BBX 17 28 2 0
BITMAP
030100
030300
000000
000000
000000
000000
000000
100080
200080
200080
200080
200100
200100
200100
400100
400100
400100
400200
400200
400200
800200
800200
800600
800400
C00C00
401400
606400
3FC400
ENDCHAR
STARTCHAR 00FD
ENCODING 253
SWIDTH 462 0
DWIDTH 18 0
BBX 21 37 -2 -8
BITMAP
000040
000080
000100
000200
000600
000000
000000
000000
080008
040010
040010
040020
040020
060040
020040
020080
020180
020100
010300
010200
010400
010400
018800
008800
009000
009000
00A000
006000
004000
00C000
008000
018000
010000
020000
060000
0C0000
F80000
ENDCHAR
STARTCHAR 00FE
ENCODING 254
SWIDTH 514 0
DWIDTH 20 0
BBX 18 37 0 -8
BITMAP
020000
020000
020000
020000
040000
040000
040000
040000
043E00
0CC100
0B0080
0E0040
0C0040
080040
080040
180040
100040
100040
100040
100040
100040
2000C0
200080
200080
200100
300300
300200
4C0C00
47F800
400000
400000
400000
400000
800000
800000
800000
800000
ENDCHAR
STARTCHAR 00FF
ENCODING 255
SWIDTH 462 0
DWIDTH 18 0
BBX 21 36 -2 -8
BITMAP
006020
006060
000000
000000
000000
000000
000000
080008
040010
040010
040020
040020
060040
020040
020080
020180
020100
010300
010200
010400
010400
018800
008800
009000
009000
00A000
006000
004000
00C000
008000
018000
010000
020000
060000
0C0000
F80000
ENDCHAR
STARTCHAR 0100
ENCODING 256
SWIDTH 565 0
DWIDTH 22 0
BBX 21 34 -1 0
BITMAP
001FF8
000000
000000
000000
000000
000000
000300
000300
000500
000500
000900
000880
001080
001080
002080
002080
004040
00C040
008040
018040
010040
020060
020020
040020
040020
0FFFE0
080030
100010
100010
200010
600010
400010
C00008
800008
ENDCHAR
STARTCHAR 0101
ENCODING 257
SWIDTH 488 0
DWIDTH 19 0
BBX 18 27 1 0
BITMAP
01FFC0
000000
000000
000000
000000
000000
01F800
070E00
080200
100100
300100
200100
000100
000100
000100
000100
0FFF00
380200
600200
C00200
800200
800200
800400
800C00
801400
C06400
3F8400
ENDCHAR
STARTCHAR 0102
ENCODING 258
SWIDTH 565 0
DWIDTH 22 0
BBX 21 34 -1 0
BITMAP
001008
001018
000830
0007E0
000000
000000
000300
000300
000500
000500
000900
000880
001080
001080
002080
002080
004040
00C040
008040
018040
010040
020060
020020
040020
040020
0FFFE0
080030
100010
100010
200010
600010
400010
C00008
800008
ENDCHAR
STARTCHAR 0103
ENCODING 259
SWIDTH 488 0
DWIDTH 19 0
BBX 17 28 1 0
BITMAP
010080
010080
008100
007E00
000000
000000
000000
01F800
070E00
080200
100100
300100
200100
000100
000100
000100
000100
0FFF00
380200
600200
C00200
800200
800200
800400
800C00
801400
C06400
3F8400
ENDCHAR
STARTCHAR 0104
ENCODING 260
SWIDTH 565 0
DWIDTH 22 0
BBX 21 35 -1 -8
BITMAP
000300
000300
000500
000500
000900
000880
001080
001080
002080
002080
004040
00C040
008040
018040
010040
020060
020020
040020
040020
0FFFE0
080030
100010
100010
200010
600010
400010
C00008
800008
000010
000020
000040
000080
000080
000080
0000F0
ENDCHAR
STARTCHAR 0105
ENCODING 261
SWIDTH 488 0
DWIDTH 19 0
BBX 16 29 1 -8
BITMAP
01F8
070E
0802
1001
3001
2001
0001
0001
0001
0001
0FFF
3802
6002
C002
8002
8002
8004
800C
8014
C064
3F84
000C
0010
0020
0040
0040
0040
007C
0010
ENDCHAR
STARTCHAR 0106
ENCODING 262
SWIDTH 617 0
DWIDTH 24 0
BBX 21 36 2 0
BITMAP
000060
0000C0
000180
000100
000200
000000
000000
000000
003F80
00C0C0
030020
060010
040008
080008
180008
100008
300008
200000
200000
200000
400000
400000
400000
400000
400000
400000
800000
C00000
400020
400020
400040
4000C0
200080
300300
180600
07F800
ENDCHAR
STARTCHAR 0107
ENCODING 263
SWIDTH 488 0
DWIDTH 19 0
BBX 17 29 1 0
BITMAP
000200
000400
000C00
001800
001000
000000
000000
000000
00F800
030600
0C0200
180100
100100
200080
200080
400000
400000
400000
400000
C00000
800000
800000
800000
400200
400200
400400
200C00
301800
0FE000
ENDCHAR
STARTCHAR 0108
ENCODING 264
SWIDTH 617 0
DWIDTH 24 0
BBX 21 35 2 0
BITMAP
000700
000D00
001880
0030C0
004060
000000
000000
003F80
00C0C0
030020
060010
040008
080008
180008
100008
300008
200000
200000
200000
400000
400000
400000
400000
400000
400000
800000
C00000
400020
400020
400040
4000C0
200080
300300
180600
07F800
ENDCHAR
STARTCHAR 0109
ENCODING 265
SWIDTH 488 0
DWIDTH 19 0
BBX 17 29 1 0
BITMAP
001000
003800
004400
008600
010200
000000
000000
000000
00F800
030600
0C0200
180100
100100
200080
200080
400000
400000
400000
400000
C00000
800000
800000
800000
400200
400200
400400
200C00
301800
0FE000
ENDCHAR
STARTCHAR 010A
ENCODING 266
SWIDTH 617 0
DWIDTH 24 0
BBX 21 34 2 0
BITMAP
000600
000600
000000
000000
000000
000000
003F80
00C0C0
030020
060010
040008
080008
180008
100008
300008
200000
200000
200000
400000
400000
400000
400000
400000
400000
800000
C00000
400020
400020
400040
4000C0
200080
300300
180600
07F800
ENDCHAR
STARTCHAR 010B
ENCODING 267
SWIDTH 488 0
DWIDTH 19 0
BBX 17 28 1 0
BITMAP
001000
003800
001000
000000
000000
000000
000000
00F800
030600
0C0200
180100
100100
200080
200080
400000
400000
400000
400000
C00000
800000
800000
800000
400200
400200
400400
200C00
301800
0FE000
ENDCHAR
STARTCHAR 010C
ENCODING 268
SWIDTH 617 0
DWIDTH 24 0
BBX 21 35 2 0
BITMAP
002060
0010C0
000980
000F00
000600
000000
000000
003F80
00C0C0
030020
060010
040008
080008
180008
100008
300008
200000
200000
200000
400000
400000
400000
400000
400000
400000
800000
C00000
400020
400020
400040
4000C0
200080
300300
180600
07F800
ENDCHAR
STARTCHAR 010D
ENCODING 269
SWIDTH 488 0
DWIDTH 19 0
BBX 17 29 1 0
BITMAP
010100
008200
00C400
004800
003000
000000
000000
000000
00F800
030600
0C0200
180100
100100
200080
200080
400000
400000
400000
400000
C00000
800000
800000
800000
400200
400200
400400
200C00
301800
0FE000
ENDCHAR
STARTCHAR 010E
ENCODING 270
SWIDTH 617 0
DWIDTH 24 0
BBX 21 35 2 0
BITMAP
008080
004100
002200
003400
001800
000000
000000
0FFC00
080700
0800C0
080060
080030
080010
100010
100008
100008
100008
100008
100008
200008
200008
200008
200010
200010
200010
400010
400020
400020
400040
4000C0
800180
800300
800600
803800
FFE000
ENDCHAR
STARTCHAR 010F
ENCODING 271
SWIDTH 591 0
DWIDTH 23 0
BBX 23 29 2 0
BITMAP
000062
000042
000046
000044
00004C
000048
000080
000080
01F080
061C80
080680
100280
200100
200100
400100
400100
400100
800100
800200
800200
800200
800200
800200
800600
800400
800C00
401C00
602400
1FC400
ENDCHAR
STARTCHAR 0110
ENCODING 272
SWIDTH 642 0
DWIDTH 25 0
BBX 22 28 2 0
BITMAP
07FC00
040780
040040
0C0020
080010
080018
080008
080008
08000C
180004
100004
100004
100008
FFE008
100008
200008
200008
200018
200010
200010
200020
400020
400040
400080
400100
400600
401C00
FFE000
ENDCHAR
STARTCHAR 0111
ENCODING 273
SWIDTH 514 0
DWIDTH 20 0
BBX 21 29 2 0
BITMAP
000060
000040
000040
000040
003FF8
000040
000080
000080
01F080
061C80
080680
100280
200100
200100
400100
400100
400100
800100
800200
800200
800200
800200
800200
800600
800400
800C00
401C00
602400
1FC400
ENDCHAR
STARTCHAR 0112
ENCODING 274
SWIDTH 540 0
DWIDTH 21 0
BBX 21 34 2 0
BITMAP
00FFC0
000000
000000
000000
000000
000000
0FFFF8
080000
080000
080000
080000
080000
100000
100000
100000
100000
100000
100000
200000
3FFF80
200000
200000
200000
200000
400000
400000
400000
400000
400000
800000
800000
800000
800000
FFFF00
ENDCHAR
STARTCHAR 0113
ENCODING 275
SWIDTH 488 0
DWIDTH 19 0
BBX 17 27 1 0
BITMAP
01FF80
000000
000000
000000
000000
000000
00F800
030C00
0C0200
080100
100100
200080
200080
400080
400080
7FFF80
800000
800000
800000
800000
800000
400000
400000
400000
200400
101800
0FF000
ENDCHAR
STARTCHAR 0114
ENCODING 276
SWIDTH 540 0
DWIDTH 21 0
BBX 21 34 2 0
BITMAP
008040
008040
004180
003F00
000000
000000
0FFFF8
080000
080000
080000
080000
080000
100000
100000
100000
100000
100000
100000
200000
3FFF80
200000
200000
200000
200000
400000
400000
400000
400000
400000
800000
800000
800000
800000
FFFF00
ENDCHAR
STARTCHAR 0115
ENCODING 277
SWIDTH 488 0
DWIDTH 19 0
BBX 17 28 1 0
BITMAP
010080
010180
018300
00FE00
000000
000000
000000
00F800
030C00
0C0200
080100
100100
200080
200080
400080
400080
7FFF80
800000
800000
800000
800000
800000
400000
400000
400000
200400
101800
0FF000
ENDCHAR
STARTCHAR 0116
ENCODING 278
SWIDTH 540 0
DWIDTH 21 0
BBX 21 34 2 0
BITMAP
000400
000C00
000000
000000
000000
000000
0FFFF8
080000
080000
080000
080000
080000
100000
100000
100000
100000
100000
100000
200000
3FFF80
200000
200000
200000
200000
400000
400000
400000
400000
400000
800000
800000
800000
800000
FFFF00
ENDCHAR
STARTCHAR 0117
ENCODING 279
SWIDTH 488 0
DWIDTH 19 0
BBX 17 27 1 1
BITMAP
001800
000000
000000
000000
000000
000000
00F800
030C00
0C0200
080100
100100
200080
200080
400080
400080
7FFF80
800000
800000
800000
800000
800000
400000
400000
400000
200400
101800
0FF000
ENDCHAR
STARTCHAR 0118
ENCODING 280
SWIDTH 540 0
DWIDTH 21 0
BBX 21 35 2 -8
BITMAP
0FFFF8
080000
080000
080000
080000
080000
100000
100000
100000
100000
100000
100000
200000
3FFF80
200000
200000
200000
200000
400000
400000
400000
400000
400000
800000
800000
800000
800000
FFFF00
000400
000800
001000
002000
002000
002000
003C00
ENDCHAR
STARTCHAR 0119
ENCODING 281
SWIDTH 488 0
DWIDTH 19 0
BBX 17 27 1 -6
BITMAP
00F800
030C00
0C0200
080100
100100
200080
200080
400080
400080
7FFF80
800000
800000
800000
800000
800000
400000
400000
400000
200400
101800
0FF000
006000
00C000
008000
018000
018000
00F000
ENDCHAR
STARTCHAR 011A
ENCODING 282
SWIDTH 540 0
DWIDTH 21 0
BBX 21 35 2 0
BITMAP
004040
006080
002100
001200
000C00
000000
000000
0FFFF8
080000
080000
080000
080000
080000
100000
100000
100000
100000
100000
100000
200000
3FFF80
200000
200000
200000
200000
400000
400000
400000
400000
400000
800000
800000
800000
800000
FFFF00
ENDCHAR
STARTCHAR 011B
ENCODING 283
SWIDTH 488 0
DWIDTH 19 0
BBX 17 29 1 0
BITMAP
008080
008100
004600
002C00
003800
000000
000000
000000
00F800
030C00
0C0200
080100
100100
200080
200080
400080
400080
7FFF80
800000
800000
800000
800000
800000
400000
400000
400000
200400
101800
0FF000
ENDCHAR
STARTCHAR 011C
ENCODING 284
SWIDTH 642 0
DWIDTH 25 0
BBX 21 35 3 0
BITMAP
000600
000B00
001180
002080
004040
000000
000000
003F00
01C0C0
030020
040010
080018
180008
100008
200008
200000
600000
400000
400000
400000
400000
800000
801FF0
803FF0
800020
800020
800020
800020
800020
400020
400040
600040
2000C0
180300
07FC00
ENDCHAR
STARTCHAR 011D
ENCODING 285
SWIDTH 514 0
DWIDTH 20 0
BBX 18 37 1 -8
BITMAP
000800
001C00
002600
00C200
018100
000000
000000
000000
00F840
030C40
040240
080140
100080
100080
200080
200080
600080
400180
400100
400100
400100
400100
400100
400300
400200
400600
200E00
303200
1FE200
000400
000400
000400
000800
801800
803000
606000
3F8000
ENDCHAR
STARTCHAR 011E
ENCODING 286
SWIDTH 642 0
DWIDTH 25 0
BBX 21 35 3 0
BITMAP
004020
004020
004040
002180
001F00
000000
000000
003F00
01C0C0
030020
040010
080018
180008
100008
200008
200000
600000
400000
400000
400000
400000
800000
801FF0
803FF0
800020
800020
800020
800020
800020
400020
400040
600040
2000C0
180300
07FC00
ENDCHAR
STARTCHAR 011F
ENCODING 287
SWIDTH 514 0
DWIDTH 20 0
BBX 18 36 1 -8
BITMAP
010080
010080
008100
007E00
000000
000000
000000
00F840
030C40
040240
080140
100080
100080
200080
200080
600080
400180
400100
400100
400100
400100
400100
400300
400200
400600
200E00
303200
1FE200
000400
000400
000400
000800
801800
803000
606000
3F8000
ENDCHAR
STARTCHAR 0120
ENCODING 288
SWIDTH 642 0
DWIDTH 25 0
BBX 21 34 3 0
BITMAP
000600
000600
000000
000000
000000
000000
003F00
01C0C0
030020
040010
080018
180008
100008
200008
200000
600000
400000
400000
400000
400000
800000
801FF0
803FF0
800020
800020
800020
800020
800020
400020
400040
600040
2000C0
180300
07FC00
ENDCHAR
STARTCHAR 0121
ENCODING 289
SWIDTH 514 0
DWIDTH 20 0
BBX 18 35 1 -7
BITMAP
001800
000000
000000
000000
000000
000000
00F840
030C40
040240
080140
100080
100080
200080
200080
600080
400180
400100
400100
400100
400100
400100
400300
400200
400600
200E00
303200
1FE200
000400
000400
000400
000800
801800
803000
606000
3F8000
ENDCHAR
STARTCHAR 0122
ENCODING 290
SWIDTH 642 0
DWIDTH 25 0
BBX 21 35 3 -8
BITMAP
003F00
01C0C0
030020
040010
080018
180008
100008
200008
200000
600000
400000
400000
400000
400000
800000
801FF0
803FF0
800020
800020
800020
800020
800020
400020
400040
600040
2000C0
180300
07FC00
000000
000000
008000
010000
010000
010000
020000
ENDCHAR
STARTCHAR 0123
ENCODING 291
SWIDTH 514 0
DWIDTH 20 0
BBX 18 38 1 -8
BITMAP
000400
000800
000800
001800
001000
001000
000000
000000
000000
00F840
030C40
040240
080140
100080
100080
200080
200080
600080
400180
400100
400100
400100
400100
400100
400300
400200
400600
200E00
303200
1FE200
000400
000400
000400
000800
801800
803000
606000
3F8000
ENDCHAR
STARTCHAR 0124
ENCODING 292
SWIDTH 668 0
DWIDTH 26 0
BBX 24 35 2 0
BITMAP
000300
000780
000C80
001840
003020
000000
000000
080001
080002
080002
080002
080002
080002
100002
100004
100004
100004
100004
100004
200004
3FFFF8
200008
200008
200008
200008
400018
400010
400010
400010
400010
800010
800020
800020
800020
800020
ENDCHAR
STARTCHAR 0125
ENCODING 293
SWIDTH 514 0
DWIDTH 20 0
BBX 17 35 1 0
BITMAP
001000
002800
004400
008600
010200
000000
040000
040000
040000
040000
080000
080000
080000
080000
087C00
098300
130100
140080
180080
180080
100080
100080
200080
200080
200100
200100
200100
600100
400100
400100
400200
400200
400200
800200
800200
ENDCHAR
STARTCHAR 0126
ENCODING 294
SWIDTH 642 0
DWIDTH 25 0
BBX 25 28 1 0
BITMAP
04000100
0C000100
08000300
08000200
08000200
08000200
08000200
7FFFFF80
10000400
10000400
10000400
10000400
10000400
3FFFFC00
20000800
20000800
20000800
20000800
20000800
40000800
40001000
40001000
40001000
40001000
40001000
80001000
80002000
80002000
ENDCHAR
STARTCHAR 0127
ENCODING 295
SWIDTH 540 0
DWIDTH 21 0
BBX 17 29 2 0
BITMAP
040000
040000
080000
080000
7FF000
080000
080000
180000
107C00
118200
120100
140100
180080
300080
300080
200180
200100
200100
200100
400100
400100
400300
400200
400200
400200
800200
800200
800400
800400
ENDCHAR
STARTCHAR 0128
ENCODING 296
SWIDTH 231 0
DWIDTH 9 0
BBX 12 34 3 0
BITMAP
7810
C420
83C0
0000
0000
0000
0800
0800
0800
0800
1800
1000
1000
1000
1000
1000
2000
2000
2000
2000
2000
2000
4000
4000
4000
4000
4000
4000
8000
8000
8000
8000
8000
8000
ENDCHAR
STARTCHAR 0129
ENCODING 297
SWIDTH 180 0
DWIDTH 7 0
BBX 13 28 0 0
BITMAP
1808
6610
4330
80C0
0000
0000
0000
0400
0400
0400
0800
0800
0800
0800
0800
1800
1000
1000
1000
1000
1000
3000
2000
2000
2000
2000
2000
4000
ENDCHAR
STARTCHAR 012A
ENCODING 298
SWIDTH 231 0
DWIDTH 9 0
BBX 11 34 3 0
BITMAP
FFE0
0000
0000
0000
0000
0000
0800
0800
0800
0800
1800
1000
1000
1000
1000
1000
2000
2000
2000
2000
2000
2000
4000
4000
4000
4000
4000
4000
8000
8000
8000
8000
8000
8000
ENDCHAR
STARTCHAR 012B
ENCODING 299
SWIDTH 180 0
DWIDTH 7 0
BBX 11 27 1 0
BITMAP
FFE0
0000
0000
0000
0000
0000
0800
0800
0800
1000
1000
1000
1000
1000
3000
2000
2000
2000
2000
2000
6000
4000
4000
4000
4000
4000
8000
ENDCHAR
STARTCHAR 012C
ENCODING 300
SWIDTH 231 0
DWIDTH 9 0
BBX 11 34 3 0
BITMAP
4020
4040
60C0
3F00
0000
0000
0800
0800
0800
0800
1800
1000
1000
1000
1000
1000
2000
2000
2000
2000
2000
2000
4000
4000
4000
4000
4000
4000
8000
8000
8000
8000
8000
8000
ENDCHAR
STARTCHAR 012D
ENCODING 301
SWIDTH 180 0
DWIDTH 7 0
BBX 11 28 1 0
BITMAP
8020
8040
40C0
6180
1E00
0000
0000
0800
0800
0800
1000
1000
1000
1000
1000
3000
2000
2000
2000
2000
2000
6000
4000
4000
4000
4000
4000
8000
ENDCHAR
STARTCHAR 012E
ENCODING 302
SWIDTH 231 0
DWIDTH 9 0
BBX 10 36 -2 -8
BITMAP
0040
0040
0040
0040
00C0
0080
0080
0080
0080
0080
0100
0100
0100
0100
0100
0100
0200
0200
0200
0200
0200
0200
0400
0400
0400
0400
0400
0400
1800
3000
4000
4000
8000
8000
7800
2000
ENDCHAR
STARTCHAR 012F
ENCODING 303
SWIDTH 180 0
DWIDTH 7 0
BBX 11 36 -3 -8
BITMAP
0060
0040
0000
0000
0000
0000
0000
0080
0080
0080
0100
0100
0100
0100
0100
0100
0200
0200
0200
0200
0200
0200
0400
0400
0400
0400
0400
0400
1800
2000
4000
4000
8000
8000
7800
2000
ENDCHAR
STARTCHAR 0130
ENCODING 304
SWIDTH 231 0
DWIDTH 9 0
BBX 7 34 3 0
BITMAP
04
06
00
00
00
00
08
08
08
08
18
10
10
10
10
10
20
20
20
20
20
20
40
40
40
40
40
40
80
80
80
80
80
80
ENDCHAR
STARTCHAR 0131
ENCODING 305
SWIDTH 180 0
DWIDTH 7 0
BBX 5 21 1 0
BITMAP
08
08
08
10
10
10
10
10
30
20
20
20
20
20
60
40
40
40
40
40
80
ENDCHAR
STARTCHAR 0132
ENCODING 306
SWIDTH 771 0
DWIDTH 30 0
BBX 27 28 3 0
BITMAP
08000020
08000020
08000040
08000040
18000040
10000040
10000040
10000040
10000080
10000080
20000080
20000080
20000080
20000180
20000100
20000100
40000100
40000100
40000100
40000300
40800200
40800200
80800600
80800400
80800800
80401800
80603000
803FC000
ENDCHAR
STARTCHAR 0133
ENCODING 307
SWIDTH 385 0
DWIDTH 15 0
BBX 13 36 2 -8
BITMAP
0C08
0818
0000
0000
0000
0000
0000
1010
1010
1020
2020
2020
2020
2020
2020
2040
4040
4040
4040
4040
40C0
4080
8080
8080
8080
8080
8180
8100
0100
0100
0100
0300
0200
0600
0C00
F800
ENDCHAR
STARTCHAR 0134
ENCODING 308
SWIDTH 514 0
DWIDTH 20 0
BBX 23 34 1 0
BITMAP
000038
000068
0000C4
000186
000202
000000
000020
000020
000020
000040
000040
000040
000040
000040
000040
000080
000080
000080
000080
000080
000180
000100
000100
000100
000100
000100
800200
800200
800200
800400
800C00
401800
603000
1FC000
ENDCHAR
STARTCHAR 0135
ENCODING 309
SWIDTH 180 0
DWIDTH 7 0
BBX 17 36 -6 -8
BITMAP
000800
001400
002200
00C300
018180
000000
000000
001000
001000
001000
002000
002000
002000
002000
002000
002000
004000
004000
004000
004000
004000
004000
008000
008000
008000
008000
008000
008000
010000
010000
010000
010000
020000
060000
0C0000
F80000
ENDCHAR
STARTCHAR 0136
ENCODING 310
SWIDTH 591 0
DWIDTH 23 0
BBX 22 34 2 -6
BITMAP
080004
080008
080010
080060
0800C0
080180
100300
100400
100800
101000
106000
10C000
218000
238000
24C000
284000
302000
203000
401000
400800
400C00
400400
400200
800300
800100
800080
8000C0
800040
010000
010000
030000
020000
060000
040000
ENDCHAR
STARTCHAR 0137
ENCODING 311
SWIDTH 437 0
DWIDTH 17 0
BBX 18 35 1 -6
BITMAP
040000
040000
040000
040000
080000
080000
080000
080000
0800C0
080100
100200
100C00
101800
103000
104000
118000
230000
260000
2B0000
310000
208000
60C000
404000
402000
403000
401000
400800
800C00
800400
020000
020000
060000
040000
0C0000
080000
ENDCHAR
STARTCHAR 0138
ENCODING 312
SWIDTH 488 0
DWIDTH 19 0
BBX 18 21 1 0
BITMAP
080040
180080
100100
100200
100C00
101800
103000
306000
20C000
210000
3E0000
210000
218000
60C000
406000
402000
401000
400800
400400
800600
800300
ENDCHAR
STARTCHAR 0139
ENCODING 313
SWIDTH 488 0
DWIDTH 19 0
BBX 15 34 2 0
BITMAP
00C0
0080
0100
0200
0400
0000
0800
0800
0800
0800
0800
0800
1000
1000
1000
1000
1000
1000
2000
2000
2000
2000
2000
2000
4000
4000
4000
4000
4000
C000
8000
8000
8000
FFFE
ENDCHAR
STARTCHAR 013A
ENCODING 314
SWIDTH 180 0
DWIDTH 7 0
BBX 10 36 2 0
BITMAP
00C0
0180
0300
0200
0400
0000
0000
0800
0800
0800
0800
0800
1000
1000
1000
1000
1000
1000
2000
2000
2000
2000
2000
2000
4000
4000
4000
4000
4000
4000
8000
8000
8000
8000
8000
8000
ENDCHAR
STARTCHAR 013B
ENCODING 315
SWIDTH 488 0
DWIDTH 19 0
BBX 15 35 2 -8
BITMAP
0800
0800
0800
0800
0800
0800
1000
1000
1000
1000
1000
1000
2000
2000
2000
2000
2000
2000
4000
4000
4000
4000
4000
C000
8000
8000
8000
FFFE
0000
0000
0100
0200
0200
0200
0400
ENDCHAR
STARTCHAR 013C
ENCODING 316
SWIDTH 180 0
DWIDTH 7 0
BBX 8 37 -1 -8
BITMAP
01
01
01
01
01
02
02
02
02
02
02
04
04
04
04
04
04
08
08
08
08
08
08
10
10
10
10
10
10
00
00
20
20
20
40
C0
80
ENDCHAR
STARTCHAR 013D
ENCODING 317
SWIDTH 488 0
DWIDTH 19 0
BBX 15 28 2 0
BITMAP
0808
0808
0808
0810
0810
0820
1000
1000
1000
1000
1000
1000
2000
2000
2000
2000
2000
2000
4000
4000
4000
4000
4000
C000
8000
8000
8000
FFFE
ENDCHAR
STARTCHAR 013E
ENCODING 318
SWIDTH 257 0
DWIDTH 10 0
BBX 10 29 2 0
BITMAP
0840
0840
0840
08C0
0880
1000
1000
1000
1000
1000
1000
2000
2000
2000
2000
2000
2000
4000
4000
4000
4000
4000
4000
8000
8000
8000
8000
8000
8000
ENDCHAR
STARTCHAR 013F
ENCODING 319
SWIDTH 488 0
DWIDTH 19 0
BBX 15 28 2 0
BITMAP
0800
0800
0800
0800
0800
0800
1000
1000
1000
1000
1000
1000
2000
2030
2020
2000
2000
2000
4000
4000
4000
4000
4000
C000
8000
8000
8000
FFFE
ENDCHAR
STARTCHAR 0140
ENCODING 320
SWIDTH 282 0
DWIDTH 11 0
BBX 8 29 2 0
BITMAP
08
08
08
08
08
10
10
10
10
10
10
20
20
23
23
20
20
40
40
40
40
40
40
80
80
80
80
80
80
ENDCHAR
STARTCHAR 0141
ENCODING 321
SWIDTH 488 0
DWIDTH 19 0
BBX 16 28 0 0
BITMAP
0200
0200
0200
0200
0200
0400
0400
0400
0400
0400
0400
0830
09C0
0E00
F800
0800
0800
1000
1000
1000
1000
1000
3000
2000
2000
2000
2000
3FFF
ENDCHAR
STARTCHAR 0142
ENCODING 322
SWIDTH 231 0
DWIDTH 9 0
BBX 9 29 1 0
BITMAP
0200
0200
0200
0200
0200
0400
0400
0400
0400
0400
0C00
0800
0B80
1C00
7800
8800
1800
1000
1000
1000
1000
1000
2000
2000
2000
2000
2000
2000
4000
ENDCHAR
STARTCHAR 0143
ENCODING 323
SWIDTH 668 0
DWIDTH 26 0
BBX 24 35 2 0
BITMAP
000060
000040
000080
000100
000200
000000
000000
0C0001
0C0001
0E0002
0A0002
0B0002
090002
118002
108002
10C004
104004
106004
102004
203004
201004
201008
200808
200808
600408
400408
400218
400210
400110
400110
C00090
800090
800070
800060
800020
ENDCHAR
STARTCHAR 0144
ENCODING 324
SWIDTH 514 0
DWIDTH 20 0
BBX 17 29 1 0
BITMAP
000100
000200
000400
000C00
001800
000000
000000
000000
087C00
098300
130100
140080
180080
180080
100080
300080
200080
200080
200100
200100
200100
600100
400100
400100
400200
400200
400200
800200
800200
ENDCHAR
STARTCHAR 0145
ENCODING 325
SWIDTH 668 0
DWIDTH 26 0
BBX 24 35 2 -8
BITMAP
0C0001
0C0001
0E0002
0A0002
0B0002
090002
118002
108002
10C004
104004
106004
102004
203004
201004
201008
200808
200808
600408
400408
400218
400210
400110
400110
C00090
800090
800070
800060
800020
000000
000000
00C000
008000
008000
018000
010000
ENDCHAR
STARTCHAR 0146
ENCODING 326
SWIDTH 514 0
DWIDTH 20 0
BBX 17 29 1 -8
BITMAP
087C00
098300
130100
140080
180080
180080
100080
300080
200080
200080
200100
200100
200100
600100
400100
400100
400200
400200
400200
800200
800200
000000
000000
010000
010000
020000
020000
040000
040000
ENDCHAR
STARTCHAR 0147
ENCODING 327
SWIDTH 668 0
DWIDTH 26 0
BBX 24 35 2 0
BITMAP
001010
001820
000840
000480
000300
000000
000000
0C0001
0C0001
0E0002
0A0002
0B0002
090002
118002
108002
10C004
104004
106004
102004
203004
201004
201008
200808
200808
600408
400408
400218
400210
400110
400110
C00090
800090
800070
800060
800020
ENDCHAR
STARTCHAR 0148
ENCODING 328
SWIDTH 514 0
DWIDTH 20 0
BBX 17 29 1 0
BITMAP
008080
004100
006200
002400
001800
000000
000000
000000
087C00
098300
130100
140080
180080
180080
100080
300080
200080
200080
200100
200100
200100
600100
400100
400100
400200
400200
400200
800200
800200
ENDCHAR
STARTCHAR 0149
ENCODING 329
SWIDTH 514 0
DWIDTH 20 0
BBX 17 29 1 0
BITMAP
100000
100000
200000
200000
400000
400000
000000
000000
087C00
098300
130100
140080
180080
180080
100080
300080
200080
200080
200100
200100
200100
600100
400100
400100
400200
400200
400200
800200
800200
ENDCHAR
STARTCHAR 014A
ENCODING 330
SWIDTH 668 0
DWIDTH 26 0
BBX 24 36 2 -8
BITMAP
0C0001
0C0001
0E0002
0A0002
0B0002
090002
118002
108002
10C004
104004
106004
102004
203004
201004
201808
200808
200C08
200408
400608
400218
400310
400110
400190
800090
8000D0
800070
800060
800020
000020
000020
000020
000040
000040
000080
000180
001E00
ENDCHAR
STARTCHAR 014B
ENCODING 331
SWIDTH 514 0
DWIDTH 20 0
BBX 17 29 1 -8
BITMAP
087C00
118200
120100
140180
180080
180080
100080
300080
200080
200080
200100
200100
200100
400100
400100
400100
400200
400200
400200
800200
800200
000600
000400
000400
000400
000800
000800
001000
03E000
ENDCHAR
STARTCHAR 014C
ENCODING 332
SWIDTH 642 0
DWIDTH 25 0
BBX 22 34 2 0
BITMAP
007FF0
000000
000000
000000
000000
000000
003F80
00C0C0
030020
060010
0C0008
080008
100008
100004
200004
200004
200004
400004
400008
400008
400008
400008
C00008
800018
800010
800010
800020
400020
400040
4000C0
200080
300300
180600
07F800
ENDCHAR
STARTCHAR 014D
ENCODING 333
SWIDTH 514 0
DWIDTH 20 0
BBX 18 27 1 0
BITMAP
01FF80
000000
000000
000000
000000
000000
00F800
030600
040100
080080
100080
200040
200040
400040
400040
400040
C00040
800040
8000C0
800080
800080
400100
400100
400200
200400
101800
0FF000
ENDCHAR
STARTCHAR 014E
ENCODING 334
SWIDTH 642 0
DWIDTH 25 0
BBX 22 35 2 0
BITMAP
004020
004020
002060
0030C0
001F00
000000
000000
003F80
00C0C0
030020
060010
0C0008
080008
100008
100004
200004
200004
200004
400004
400008
400008
400008
400008
C00008
800018
800010
800010
800020
400020
400040
4000C0
200080
300300
180600
07F800
ENDCHAR
STARTCHAR 014F
ENCODING 335
SWIDTH 514 0
DWIDTH 20 0
BBX 18 28 1 0
BITMAP
010080
010180
018300
00FE00
000000
000000
000000
00F800
030600
040100
080080
100080
200040
200040
400040
400040
400040
C00040
800040
8000C0
800080
800080
400100
400100
400200
200400
101800
0FF000
ENDCHAR
STARTCHAR 0150
ENCODING 336
SWIDTH 642 0
DWIDTH 25 0
BBX 22 36 2 0
BITMAP
000184
000318
000230
000460
0008C0
001180
000000
000000
003F80
00C0C0
030020
060010
0C0008
080008
100008
100004
200004
200004
200004
400004
400008
400008
400008
400008
C00008
800018
800010
800010
800020
400020
400040
4000C0
200080
300300
180600
07F800
ENDCHAR
STARTCHAR 0151
ENCODING 337
SWIDTH 514 0
DWIDTH 20 0
BBX 19 29 1 0
BITMAP
000420
000840
001080
002300
004600
008C00
000000
000000
00F800
030600
040100
080080
100080
200040
200040
400040
400040
400040
C00040
800040
8000C0
800080
800080
400100
400100
400200
200400
101800
0FF000
ENDCHAR
STARTCHAR 0152
ENCODING 338
SWIDTH 874 0
DWIDTH 34 0
BBX 34 28 2 0
BITMAP
007FFFFFC0
0180400000
0200400000
0400400000
0800400000
1000400000
1000400000
2000800000
2000800000
4000800000
4000800000
4000800000
4000800000
4001FFFC00
8001000000
8001000000
8001000000
8001000000
8001000000
8002000000
8002000000
8002000000
8002000000
C002000000
4006000000
2004000000
3004000000
0FFFFFF800
ENDCHAR
STARTCHAR 0153
ENCODING 339
SWIDTH 900 0
DWIDTH 35 0
BBX 33 21 1 0
BITMAP
00FC00FC00
0306038600
0401060100
08008C0080
1000980080
3000500080
2000600080
4000600080
4000600080
40007FFF80
4000400000
8000400000
8000C00000
8000C00000
8000C00000
4001400000
4001400000
4002200000
2004300200
1018180C00
0FE00FF000
ENDCHAR
STARTCHAR 0154
ENCODING 340
SWIDTH 617 0
DWIDTH 24 0
BBX 21 35 2 0
BITMAP
000180
000300
000200
000400
000800
000000
000000
0FFE00
080380
080060
080030
080010
080010
100018
100010
100010
100010
100010
200020
200060
2000C0
200300
3FFC00
200800
400400
400400
400600
400200
400200
400100
800100
800080
800080
8000C0
800040
ENDCHAR
STARTCHAR 0155
ENCODING 341
SWIDTH 308 0
DWIDTH 12 0
BBX 13 29 1 0
BITMAP
0008
0010
0020
0040
00C0
0000
0000
0000
0878
0980
1200
1400
1800
1800
1000
3000
2000
2000
2000
2000
2000
6000
4000
4000
4000
4000
4000
8000
8000
ENDCHAR
STARTCHAR 0156
ENCODING 342
SWIDTH 617 0
DWIDTH 24 0
BBX 21 35 2 -8
BITMAP
0FFE00
080380
080060
080030
080010
080010
100018
100010
100010
100010
100010
200020
200060
2000C0
200300
3FFC00
200800
400400
400400
400600
400200
400200
400100
800100
800080
800080
8000C0
800040
000000
000000
020000
020000
020000
040000
040000
ENDCHAR
STARTCHAR 0157
ENCODING 343
SWIDTH 308 0
DWIDTH 12 0
BBX 15 28 -1 -8
BITMAP
021E
0260
0480
0500
0600
0600
0400
0C00
0800
0800
0800
0800
0800
1800
1000
1000
1000
1000
1000
2000
2000
0000
0000
2000
2000
4000
4000
8000
ENDCHAR
STARTCHAR 0158
ENCODING 344
SWIDTH 617 0
DWIDTH 24 0
BBX 21 35 2 0
BITMAP
0040C0
004180
002300
001600
001C00
000000
000000
0FFE00
080380
080060
080030
080010
080010
100018
100010
100010
100010
100010
200020
200060
2000C0
200300
3FFC00
200800
400400
400400
400600
400200
400200
400100
800100
800080
800080
8000C0
800040
ENDCHAR
STARTCHAR 0159
ENCODING 345
SWIDTH 308 0
DWIDTH 12 0
BBX 14 29 1 0
BITMAP
0404
0208
0210
0120
00C0
0000
0000
0000
0878
0980
1200
1400
1800
1800
1000
3000
2000
2000
2000
2000
2000
6000
4000
4000
4000
4000
4000
8000
8000
ENDCHAR
STARTCHAR 015A
ENCODING 346
SWIDTH 565 0
DWIDTH 22 0
BBX 21 36 1 0
BITMAP
000060
000040
000080
000100
000200
000000
000000
000000
003F80
01C0C0
030020
040010
080008
080008
100008
100008
100000
180000
080000
060000
038000
00F000
001C00
000300
0000C0
000040
000020
000020
800020
800020
800020
800040
4000C0
600180
300600
0FFC00
ENDCHAR
STARTCHAR 015B
ENCODING 347
SWIDTH 462 0
DWIDTH 18 0
BBX 16 29 1 0
BITMAP
0006
0004
0008
0010
0020
0000
0000
0000
01F0
060C
0802
1001
3001
2001
2000
3000
1800
0E00
01C0
0030
000C
0004
0004
0006
8004
8004
C008
6030
1FE0
ENDCHAR
STARTCHAR 015C
ENCODING 348
SWIDTH 565 0
DWIDTH 22 0
BBX 21 35 1 0
BITMAP
000700
000D00
001880
003040
006060
000000
000000
003F80
01C0C0
030020
040010
080008
080008
100008
100008
100000
180000
080000
060000
038000
00F000
001C00
000300
0000C0
000040
000020
000020
800020
800020
800020
800040
4000C0
600180
300600
0FFC00
ENDCHAR
STARTCHAR 015D
ENCODING 349
SWIDTH 462 0
DWIDTH 18 0
BBX 16 29 1 0
BITMAP
0030
0070
00C8
0184
0306
0000
0000
0000
01F0
060C
0802
1001
3001
2001
2000
3000
1800
0E00
01C0
0030
000C
0004
0004
0006
8004
8004
C008
6030
1FE0
ENDCHAR
STARTCHAR 015E
ENCODING 350
SWIDTH 565 0
DWIDTH 22 0
BBX 21 36 1 -8
BITMAP
003F80
01C0C0
030020
040010
080008
080008
100008
100008
100000
180000
080000
060000
038000
00F000
001C00
000300
0000C0
000040
000020
000020
800020
800020
800020
800040
4000C0
600180
300600
0FFC00
008000
008000
01E000
002000
002000
002000
006000
038000
ENDCHAR
STARTCHAR 015F
ENCODING 351
SWIDTH 462 0
DWIDTH 18 0
BBX 16 29 1 -8
BITMAP
01F0
060C
0802
1001
3001
2001
2000
3000
1800
0E00
01C0
0030
000C
0004
0004
0006
8004
8004
C008
6030
1FE0
0200
0200
0380
0080
0080
0080
0180
0E00
ENDCHAR
STARTCHAR 0160
ENCODING 352
SWIDTH 565 0
DWIDTH 22 0
BBX 21 35 1 0
BITMAP
003020
001040
000980
000F00
000600
000000
000000
003F80
01C0C0
030020
040010
080008
080008
100008
100008
100000
180000
080000
060000
038000
00F000
001C00
000300
0000C0
000040
000020
000020
800020
800020
800020
800040
4000C0
600180
300600
0FFC00
ENDCHAR
STARTCHAR 0161
ENCODING 353
SWIDTH 462 0
DWIDTH 18 0
BBX 16 29 1 0
BITMAP
0101
0102
008C
0058
0070
0000
0000
0000
01F0
060C
0802
1001
3001
2001
2000
3000
1800
0E00
01C0
0030
000C
0004
0004
0006
8004
8004
C008
6030
1FE0
ENDCHAR
STARTCHAR 0162
ENCODING 354
SWIDTH 565 0
DWIDTH 22 0
BBX 20 36 4 -8
BITMAP
FFFFF0
004000
004000
004000
004000
004000
004000
008000
008000
008000
008000
008000
018000
010000
010000
010000
010000
010000
020000
020000
020000
020000
020000
020000
040000
040000
040000
040000
040000
0C0000
070000
010000
010000
010000
020000
3C0000
ENDCHAR
STARTCHAR 0163
ENCODING 355
SWIDTH 282 0
DWIDTH 11 0
BBX 10 34 2 -8
BITMAP
0400
0400
0C00
0800
0800
FFC0
FF80
0800
1000
1000
1000
1000
1000
1000
2000
2000
2000
2000
2000
2000
4000
4000
4000
4000
6000
3E00
1000
1000
1C00
0400
0400
0400
0C00
7000
ENDCHAR
STARTCHAR 0164
ENCODING 356
SWIDTH 565 0
DWIDTH 22 0
BBX 20 35 4 0
BITMAP
010100
010200
008400
005800
007000
000000
000000
FFFFF0
004000
004000
004000
004000
004000
004000
008000
008000
008000
008000
008000
018000
010000
010000
010000
010000
010000
020000
020000
020000
020000
020000
020000
040000
040000
040000
040000
ENDCHAR
STARTCHAR 0165
ENCODING 357
SWIDTH 308 0
DWIDTH 12 0
BBX 12 30 2 0
BITMAP
0010
0030
0020
0020
0460
0440
0C00
0800
0800
FFC0
FF80
0800
1000
1000
1000
1000
1000
1000
2000
2000
2000
2000
2000
2000
4000
4000
4000
4000
6000
3E00
ENDCHAR
STARTCHAR 0166
ENCODING 358
SWIDTH 565 0
DWIDTH 22 0
BBX 20 28 4 0
BITMAP
FFFFF0
004000
004000
004000
004000
004000
004000
008000
008000
008000
008000
3FF800
018000
010000
010000
010000
010000
010000
020000
020000
020000
020000
020000
020000
040000
040000
040000
040000
ENDCHAR
STARTCHAR 0167
ENCODING 359
SWIDTH 282 0
DWIDTH 11 0
BBX 11 26 1 0
BITMAP
0200
0200
0600
0400
0400
7FE0
7FC0
0400
0800
0800
0800
0800
0800
FFE0
1000
1000
1000
1000
1000
1000
2000
2000
2000
2000
3000
1F00
ENDCHAR
STARTCHAR 0168
ENCODING 360
SWIDTH 642 0
DWIDTH 25 0
BBX 22 34 3 0
BITMAP
007830
008420
0083C0
000000
000000
000000
10000C
100008
100008
100008
300008
200008
200018
200010
200010
200010
400010
400010
400020
400020
400020
400020
800020
800020
800040
800040
800040
800040
800080
800180
400300
600600
300C00
0FF000
ENDCHAR
STARTCHAR 0169
ENCODING 361
SWIDTH 514 0
DWIDTH 20 0
BBX 17 28 2 0
BITMAP
01E080
021080
060F00
000000
000000
000000
000000
100080
200080
200080
200080
200100
200100
200100
400100
400100
400100
400200
400200
400200
800200
800200
800600
800400
C00C00
401400
606400
3FC400
ENDCHAR
STARTCHAR 016A
ENCODING 362
SWIDTH 642 0
DWIDTH 25 0
BBX 22 34 3 0
BITMAP
00FFE0
000000
000000
000000
000000
000000
10000C
100008
100008
100008
300008
200008
200018
200010
200010
200010
400010
400010
400020
400020
400020
400020
800020
800020
800040
800040
800040
800040
800080
800180
400300
600600
300C00
0FF000
ENDCHAR
STARTCHAR 016B
ENCODING 363
SWIDTH 514 0
DWIDTH 20 0
BBX 17 27 2 0
BITMAP
03FF80
000000
000000
000000
000000
000000
100080
200080
200080
200080
200100
200100
200100
400100
400100
400100
400200
400200
400200
800200
800200
800600
800400
C00C00
401400
606400
3FC400
ENDCHAR
STARTCHAR 016C
ENCODING 364
SWIDTH 642 0
DWIDTH 25 0
BBX 22 34 3 0
BITMAP
004020
004040
006080
003F00
000000
000000
10000C
100008
100008
100008
300008
200008
200018
200010
200010
200010
400010
400010
400020
400020
400020
400020
800020
800020
800040
800040
800040
800040
800080
800180
400300
600600
300C00
0FF000
ENDCHAR
STARTCHAR 016D
ENCODING 365
SWIDTH 514 0
DWIDTH 20 0
BBX 17 28 2 0
BITMAP
020100
030100
010200
00FC00
000000
000000
000000
100080
200080
200080
200080
200100
200100
200100
400100
400100
400100
400200
400200
400200
800200
800200
800600
800400
C00C00
401400
606400
3FC400
ENDCHAR
STARTCHAR 016E
ENCODING 366
SWIDTH 642 0
DWIDTH 25 0
BBX 22 36 3 0
BITMAP
000200
001F00
001080
002080
002100
001300
001E00
000000
10000C
100008
100008
100008
300008
200008
200018
200010
200010
200010
400010
400010
400020
400020
400020
400020
800020
800020
800040
800040
800040
800040
800080
800180
400300
600600
300C00
0FF000
ENDCHAR
STARTCHAR 016F
ENCODING 367
SWIDTH 514 0
DWIDTH 20 0
BBX 17 29 2 1
BITMAP
007C00
004400
008600
008400
00CC00
007800
000000
000000
100080
200080
200080
200080
200100
200100
200100
400100
400100
400100
400200
400200
400200
800200
800200
800600
800400
C00C00
401400
606400
3FC400
ENDCHAR
STARTCHAR 0170
ENCODING 368
SWIDTH 642 0
DWIDTH 25 0
BBX 22 35 3 0
BITMAP
000318
000630
000C60
0018C0
003100
002200
000000
10000C
100008
100008
100008
300008
200008
200018
200010
200010
200010
400010
400010
400020
400020
400020
400020
800020
800020
800040
800040
800040
800040
800080
800180
400300
600600
300C00
0FF000
ENDCHAR
STARTCHAR 0171
ENCODING 369
SWIDTH 514 0
DWIDTH 20 0
BBX 19 29 2 0
BITMAP
000C60
0018C0
003180
006200
00C400
018800
000000
000000
100080
200080
200080
200080
200100
200100
200100
400100
400100
400100
400200
400200
400200
800200
800200
800600
800400
C00C00
401400
606400
3FC400
ENDCHAR
STARTCHAR 0172
ENCODING 370
SWIDTH 642 0
DWIDTH 25 0
BBX 22 35 3 -7
BITMAP
10000C
100008
100008
100008
300008
200008
200018
200010
200010
200010
400010
400010
400020
400020
400020
400020
800020
800020
800040
800040
800040
800040
800080
800180
400300
600600
300C00
0FF000
002000
00C000
008000
010000
010000
019000
00E000
ENDCHAR
STARTCHAR 0173
ENCODING 371
SWIDTH 514 0
DWIDTH 20 0
BBX 17 29 2 -8
BITMAP
100080
200080
200080
200080
200100
200100
200100
400100
400100
400100
400200
400200
400200
800200
800200
800600
800400
C00C00
401400
606400
3FC400
000800
003000
006000
004000
008000
008000
007800
002000
ENDCHAR
STARTCHAR 0174
ENCODING 372
SWIDTH 874 0
DWIDTH 34 0
BBX 32 35 4 0
BITMAP
00008000
00014000
00022000
00043000
00081800
00000000
00000000
80010003
80010002
80030002
80028004
80048004
80048008
80088008
C0088018
40108010
40108010
40304020
40204020
40204060
40404040
40404040
40804080
40804080
61002100
21002100
23002300
22002200
26002200
24002400
24002400
28002C00
28001800
30001800
10001000
ENDCHAR
STARTCHAR 0175
ENCODING 373
SWIDTH 720 0
DWIDTH 28 0
BBX 25 29 3 0
BITMAP
00060000
000E0000
00190000
00308000
0060C000
00000000
00000000
00000000
80080080
80080080
80140180
C0140100
40240300
40240200
40440600
40440400
40840400
40840800
41820800
41021000
63021000
22023000
26022000
24026000
24024000
28014000
28018000
30018000
30010000
ENDCHAR
STARTCHAR 0176
ENCODING 374
SWIDTH 565 0
DWIDTH 22 0
BBX 22 35 3 0
BITMAP
000800
003800
006400
00C200
018300
000000
000000
C0000C
400008
600010
200020
200060
100040
100080
180100
080300
080600
040400
040800
021000
023000
022000
014000
018000
008000
010000
010000
010000
010000
010000
010000
020000
020000
020000
020000
ENDCHAR
STARTCHAR 0177
ENCODING 375
SWIDTH 462 0
DWIDTH 18 0
BBX 21 37 -2 -8
BITMAP
000200
000500
000980
003080
006040
000000
000000
000000
080008
040010
040010
040020
040020
060040
020040
020080
020180
020100
010300
010200
010400
010400
018800
008800
009000
009000
00A000
006000
004000
00C000
008000
018000
010000
020000
060000
0C0000
F80000
ENDCHAR
STARTCHAR 0178
ENCODING 376
SWIDTH 565 0
DWIDTH 22 0
BBX 22 34 3 0
BITMAP
018180
018180
000000
000000
000000
000000
C0000C
400008
600010
200020
200060
100040
100080
180100
080300
080600
040400
040800
021000
023000
022000
014000
018000
008000
010000
010000
010000
010000
010000
010000
020000
020000
020000
020000
ENDCHAR
STARTCHAR 0179
ENCODING 377
SWIDTH 565 0
DWIDTH 22 0
BBX 23 35 0 0
BITMAP
000060
0000C0
000080
000100
000200
000000
000000
07FFFE
000006
00000C
000008
000010
000020
000040
0000C0
000180
000100
000200
000400
000800
001800
003000
002000
004000
008000
010000
030000
060000
040000
080000
100000
200000
600000
C00000
FFFFE0
ENDCHAR
STARTCHAR 017A
ENCODING 378
SWIDTH 462 0
DWIDTH 18 0
BBX 18 29 0 0
BITMAP
000100
000200
000400
000800
001000
000000
000000
000000
0FFFC0
0FFF80
000180
000300
000600
000400
000800
001000
002000
004000
00C000
018000
030000
020000
040000
080000
100000
200000
600000
C00000
FFFE00
ENDCHAR
STARTCHAR 017B
ENCODING 379
SWIDTH 565 0
DWIDTH 22 0
BBX 23 34 0 0
BITMAP
000100
000300
000000
000000
000000
000000
07FFFE
000006
00000C
000008
000010
000020
000040
0000C0
000180
000100
000200
000400
000800
001800
003000
002000
004000
008000
010000
030000
060000
040000
080000
100000
200000
600000
C00000
FFFFE0
ENDCHAR
STARTCHAR 017C
ENCODING 380
SWIDTH 462 0
DWIDTH 18 0
BBX 18 27 0 1
BITMAP
001800
000000
000000
000000
000000
000000
0FFFC0
0FFF80
000180
000300
000600
000400
000800
001000
002000
004000
00C000
018000
030000
020000
040000
080000
100000
200000
600000
C00000
FFFE00
ENDCHAR
STARTCHAR 017D
ENCODING 381
SWIDTH 565 0
DWIDTH 22 0
BBX 23 35 0 0
BITMAP
001010
001860
0008C0
000580
000700
000000
000000
07FFFE
000006
00000C
000008
000010
000020
000040
0000C0
000180
000100
000200
000400
000800
001800
003000
002000
004000
008000
010000
030000
060000
040000
080000
100000
200000
600000
C00000
FFFFE0
ENDCHAR
STARTCHAR 017E
ENCODING 382
SWIDTH 462 0
DWIDTH 18 0
BBX 18 29 0 0
BITMAP
008080
00C100
004200
002400
003800
000000
000000
000000
0FFFC0
0FFF80
000180
000300
000600
000400
000800
001000
002000
004000
00C000
018000
030000
020000
040000
080000
100000
200000
600000
C00000
FFFE00
ENDCHAR
STARTCHAR 017F
ENCODING 383
SWIDTH 180 0
DWIDTH 7 0
BBX 13 30 1 0
BITMAP
0030
01D8
0300
0600
0400
0C00
0800
0800
0800
0800
0800
1000
1000
1000
1000
1000
1000
2000
2000
2000
2000
2000
2000
4000
4000
4000
4000
4000
C000
8000
ENDCHAR
STARTCHAR 018F
ENCODING 399
SWIDTH 668 0
DWIDTH 26 0
BBX 22 28 3 0
BITMAP
007F80
0380E0
060030
080018
000008
000004
000004
000004
000004
000004
000004
000004
000004
000004
FFFFFC
FFFFFC
800008
800008
800008
800010
800010
800020
800020
400040
400080
200100
180600
07F800
ENDCHAR
STARTCHAR 0192
ENCODING 402
SWIDTH 282 0
DWIDTH 11 0
BBX 20 38 -5 -8
BITMAP
000040
0003B0
000600
000400
000800
000800
000800
001000
001000
00FF80
01FF80
001000
001000
002000
002000
002000
002000
002000
002000
006000
004000
004000
004000
004000
004000
004000
008000
008000
008000
008000
008000
008000
010000
010000
010000
020000
060000
F80000
ENDCHAR
STARTCHAR 01A0
ENCODING 416
SWIDTH 668 0
DWIDTH 26 0
BBX 27 29 3 0
BITMAP
00000020
007F0060
01C0C040
030020C0
04003180
08001F00
18000800
10000800
20000800
20000800
60000800
40000800
40000800
40000800
40000800
80000800
80001000
80001000
80001000
80001000
80002000
80002000
80006000
80004000
40008000
40018000
20030000
180C0000
0FF80000
ENDCHAR
STARTCHAR 01A1
ENCODING 417
SWIDTH 514 0
DWIDTH 20 0
BBX 22 23 1 0
BITMAP
000004
000004
00FC04
030608
040130
0800E0
100080
200040
200040
400040
400040
400040
800040
800040
800080
800080
800080
800100
400300
400200
200400
301800
0FE000
ENDCHAR
STARTCHAR 01AF
ENCODING 431
SWIDTH 642 0
DWIDTH 25 0
BBX 27 29 3 0
BITMAP
00000020
10000C20
10000840
100008C0
10000980
30000F00
20000800
20001800
20001000
20001000
20001000
40001000
40001000
40002000
40002000
40002000
40002000
80002000
80002000
80004000
80004000
80004000
80004000
80008000
80018000
40030000
60060000
300C0000
0FF00000
ENDCHAR
STARTCHAR 01B0
ENCODING 432
SWIDTH 514 0
DWIDTH 20 0
BBX 22 23 2 0
BITMAP
000004
00000C
100088
200098
2000B0
2000C0
200100
200100
200100
400100
400100
400100
400200
400200
400200
800200
800200
800600
800400
C00C00
401400
606400
3FC400
ENDCHAR
STARTCHAR 01F0
ENCODING 496
SWIDTH 180 0
DWIDTH 7 0
BBX 17 36 -6 -8
BITMAP
008080
004100
002200
002400
001800
000000
000000
001000
001000
001000
002000
002000
002000
002000
002000
002000
004000
004000
004000
004000
004000
004000
008000
008000
008000
008000
008000
008000
010000
010000
010000
010000
020000
060000
0C0000
F80000
ENDCHAR
STARTCHAR 01FA
ENCODING 506
SWIDTH 565 0
DWIDTH 22 0
BBX 21 36 -1 0
BITMAP
000030
000060
0000C0
000000
000180
000640
000440
000440
000780
000300
000500
000500
000900
000880
001080
001080
002080
002080
004040
00C040
008040
018040
010040
020060
020020
040020
040020
0FFFE0
080030
100010
100010
200010
600010
400010
C00008
800008
ENDCHAR
STARTCHAR 01FB
ENCODING 507
SWIDTH 488 0
DWIDTH 19 0
BBX 17 30 1 0
BITMAP
000180
000200
000400
000800
001800
002400
004400
004400
006C00
01F800
070E00
080200
100100
300100
200100
000100
000100
000100
000100
0FFF00
380200
600200
C00200
800200
800200
800400
800C00
801400
C06400
3F8400
ENDCHAR
STARTCHAR 01FC
ENCODING 508
SWIDTH 848 0
DWIDTH 33 0
BBX 35 35 -1 0
BITMAP
0000004000
0000008000
0000018000
0000030000
0000020000
0000000000
0000000000
000007FFE0
00000C0000
00001C0000
0000140000
0000240000
0000440000
0000C40000
0001880000
0001080000
0002080000
0004080000
000C080000
0008080000
00100FFE00
0020080000
0060100000
0040100000
0080100000
0100100000
03FFF00000
0200100000
0400100000
0800300000
1800200000
1000200000
2000200000
4000200000
C0003FFF00
ENDCHAR
STARTCHAR 01FD
ENCODING 509
SWIDTH 797 0
DWIDTH 31 0
BBX 30 29 1 0
BITMAP
00000800
00001000
00003000
00006000
00004000
00000000
00000000
00000000
01F807C0
070C1830
08022018
10024008
30028004
20038004
00030004
00030004
00020004
07FFFFFC
1C020000
30020000
40060000
C0060000
80060000
80060000
80060000
800A0000
80190020
406080C0
3FC07F80
ENDCHAR
STARTCHAR 01FE
ENCODING 510
SWIDTH 642 0
DWIDTH 25 0
BBX 23 37 2 -1
BITMAP
000060
0000C0
000080
000100
000200
000000
000000
000000
003F02
00C0C4
03002C
060018
0C0018
080028
100048
1000CC
200184
200104
200204
400404
400C08
400808
401008
402008
C06008
80C018
808010
810010
820020
460020
4C0040
4800C0
300080
300300
780600
47F800
800000
ENDCHAR
STARTCHAR 01FF
ENCODING 511
SWIDTH 514 0
DWIDTH 20 0
BBX 18 32 1 -3
BITMAP
000200
000400
000800
001000
002000
000000
000040
000080
00FD80
030700
040300
080680
100480
200840
201840
401040
402040
406040
804040
808040
808080
810080
830080
820100
440300
4C0200
280400
301800
3FE000
200000
400000
C00000
ENDCHAR
STARTCHAR 0218
ENCODING 536
SWIDTH 565 0
DWIDTH 22 0
BBX 21 36 1 -8
BITMAP
003F80
01C0C0
030020
040010
080008
080008
100008
100008
100000
180000
080000
060000
038000
00F000
001C00
000300
0000C0
000040
000020
000020
800020
800020
800020
800040
4000C0
600180
300600
0FFC00
000000
000000
008000
008000
010000
010000
030000
020000
ENDCHAR
STARTCHAR 0219
ENCODING 537
SWIDTH 462 0
DWIDTH 18 0
BBX 16 29 1 -8
BITMAP
01F0
060C
0802
1001
3001
2001
2000
3000
1800
0E00
01C0
0030
000C
0004
0004
0006
8004
8004
C008
6030
1FE0
0000
0000
0200
0200
0400
0400
0800
0800
ENDCHAR
STARTCHAR 021A
ENCODING 538
SWIDTH 565 0
DWIDTH 22 0
BBX 20 36 4 -8
BITMAP
FFFFF0
004000
004000
004000
004000
004000
004000
008000
008000
008000
008000
008000
018000
010000
010000
010000
010000
010000
020000
020000
020000
020000
020000
020000
040000
040000
040000
040000
000000
000000
080000
080000
080000
180000
100000
200000
ENDCHAR
STARTCHAR 021B
ENCODING 539
SWIDTH 282 0
DWIDTH 11 0
BBX 10 34 2 -8
BITMAP
0400
0400
0C00
0800
0800
FFC0
FF80
0800
1000
1000
1000
1000
1000
1000
2000
2000
2000
2000
2000
2000
4000
4000
4000
4000
6000
3E00
0000
0000
1000
1000
2000
2000
4000
4000
ENDCHAR
STARTCHAR 0237
ENCODING 567
SWIDTH 180 0
DWIDTH 7 0
BBX 12 29 -6 -8
BITMAP
0010
0010
0010
0020
0020
0020
0020
0020
0020
0040
0040
0040
0040
0040
0040
0080
0080
0080
0080
0080
0080
0100
0100
0100
0100
0200
0600
0C00
F800
ENDCHAR
STARTCHAR 0259
ENCODING 601
SWIDTH 488 0
DWIDTH 19 0
BBX 17 21 1 0
BITMAP
01F000
0E0C00
100600
000200
000100
000100
000100
000080
000080
000080
000100
FFFF00
800100
800100
800200
800200
800400
C00C00
401800
203000
1FC000
ENDCHAR
STARTCHAR 02BC
ENCODING 700
SWIDTH 128 0
DWIDTH 5 0
BBX 4 7 3 22
BITMAP
10
10
10
20
20
40
C0
ENDCHAR
STARTCHAR 02C6
ENCODING 710
SWIDTH 360 0
DWIDTH 14 0
BBX 9 5 5 24
BITMAP
0400
0E00
3300
6100
C080
ENDCHAR
STARTCHAR 02C7
ENCODING 711
SWIDTH 360 0
DWIDTH 14 0
BBX 9 5 6 24
BITMAP
8080
8100
4200
2400
3800
ENDCHAR
STARTCHAR 02C9
ENCODING 713
SWIDTH 360 0
DWIDTH 14 0
BBX 10 1 5 26
BITMAP
FFC0
ENDCHAR
STARTCHAR 02D8
ENCODING 728
SWIDTH 385 0
DWIDTH 15 0
BBX 10 4 5 24
BITMAP
8040
8040
4080
3F00
ENDCHAR
STARTCHAR 02D9
ENCODING 729
SWIDTH 180 0
DWIDTH 7 0
BBX 3 2 5 25
BITMAP
40
E0
ENDCHAR
STARTCHAR 02DA
ENCODING 730
SWIDTH 257 0
DWIDTH 10 0
BBX 6 7 5 23
BITMAP
10
78
84
84
84
88
70
ENDCHAR
STARTCHAR 02DB
ENCODING 731
SWIDTH 205 0
DWIDTH 8 0
BBX 5 7 -1 -8
BITMAP
18
20
40
80
80
80
F8
ENDCHAR
STARTCHAR 02DC
ENCODING 732
SWIDTH 385 0
DWIDTH 15 0
BBX 12 4 4 24
BITMAP
3810
4430
83E0
8080
ENDCHAR
STARTCHAR 02DD
ENCODING 733
SWIDTH 360 0
DWIDTH 14 0
BBX 11 6 5 23
BITMAP
0C60
08C0
1180
2300
4600
8C00
ENDCHAR
STARTCHAR 02F3
ENCODING 755
SWIDTH 282 0
DWIDTH 11 0
BBX 5 4 1 -6
BITMAP
70
98
98
F0
ENDCHAR
STARTCHAR 0300
ENCODING 768
SWIDTH 0 0
DWIDTH 0 0
BBX 3 5 -10 24
BITMAP
80
80
40
40
20
ENDCHAR
STARTCHAR 0301
ENCODING 769
SWIDTH 0 0
DWIDTH 0 0
BBX 5 5 -8 24
BITMAP
18
30
20
40
80
ENDCHAR
STARTCHAR 0303
ENCODING 771
SWIDTH 0 0
DWIDTH 0 0
BBX 12 4 -13 24
BITMAP
3810
4430
8360
8080
ENDCHAR
STARTCHAR 0309
ENCODING 777
SWIDTH 0 0
DWIDTH 0 0
BBX 5 7 -9 23
BITMAP
F0
08
08
08
30
C0
80
ENDCHAR
STARTCHAR 030F
ENCODING 783
SWIDTH 0 0
DWIDTH 0 0
BBX 10 5 -15 24
BITMAP
C600
6300
3100
1880
0CC0
ENDCHAR
STARTCHAR 0323
ENCODING 803
SWIDTH 0 0
DWIDTH 0 0
BBX 2 2 -14 -5
BITMAP
C0
C0
ENDCHAR
STARTCHAR 0384
ENCODING 900
SWIDTH 231 0
DWIDTH 9 0
BBX 3 5 7 25
BITMAP
20
40
40
80
80
ENDCHAR
STARTCHAR 0385
ENCODING 901
SWIDTH 437 0
DWIDTH 17 0
BBX 10 5 6 26
BITMAP
0200
0600
0600
C440
C0C0
ENDCHAR
STARTCHAR 0386
ENCODING 902
SWIDTH 565 0
DWIDTH 22 0
BBX 21 30 -1 0
BITMAP
004000
00C000
008300
018300
010500
000500
000900
000880
001080
001080
002080
002080
004040
00C040
008040
018040
010040
020060
020020
040020
040020
0FFFE0
080030
100010
100010
200010
600010
400010
C00008
800008
ENDCHAR
STARTCHAR 0387
ENCODING 903
SWIDTH 205 0
DWIDTH 8 0
BBX 2 2 4 12
BITMAP
C0
80
ENDCHAR
STARTCHAR 0388
ENCODING 904
SWIDTH 591 0
DWIDTH 23 0
BBX 24 30 1 0
BITMAP
300000
200000
61FFFF
410000
810000
010000
010000
020000
020000
020000
020000
020000
020000
040000
040000
07FFF0
040000
040000
040000
080000
080000
080000
080000
080000
080000
100000
100000
100000
100000
1FFFE0
ENDCHAR
STARTCHAR 0389
ENCODING 905
SWIDTH 720 0
DWIDTH 28 0
BBX 25 30 2 0
BITMAP
20000000
40000000
42000080
82000080
82000080
02000080
02000080
04000080
04000100
04000100
04000100
04000100
04000100
08000100
08000200
0FFFFE00
08000200
08000200
08000200
10000200
10000400
10000400
10000400
10000400
10000400
20000400
20000800
20000800
20000800
20000800
ENDCHAR
STARTCHAR 038A
ENCODING 906
SWIDTH 282 0
DWIDTH 11 0
BBX 8 30 2 0
BITMAP
20
20
41
41
81
01
02
02
02
02
02
02
04
04
04
04
04
04
08
08
08
08
08
18
10
10
10
10
10
20
ENDCHAR
STARTCHAR 038C
ENCODING 908
SWIDTH 642 0
DWIDTH 25 0
BBX 21 30 3 0
BITMAP
100000
200000
207F00
41C0C0
420060
040020
080010
100010
100008
200008
200008
400008
400008
400008
C00008
800008
800010
800010
800010
800010
800010
800020
800020
800040
800040
400080
400100
200200
100C00
0FF000
ENDCHAR
STARTCHAR 038E
ENCODING 910
SWIDTH 617 0
DWIDTH 24 0
BBX 26 30 1 0
BITMAP
30000000
20000000
4C0000C0
44000180
84000100
02000200
02000400
03000C00
01000800
01001000
00802000
00806000
00404000
00408000
00410000
00230000
00220000
00140000
00180000
00180000
00100000
00100000
00100000
00100000
00100000
00200000
00200000
00200000
00200000
00200000
ENDCHAR
STARTCHAR 038F
ENCODING 911
SWIDTH 617 0
DWIDTH 24 0
BBX 22 30 1 0
BITMAP
040000
0C0000
081F80
186060
108030
010018
020008
040008
040004
080004
080004
100004
100004
100004
100004
200004
200008
200008
200008
200018
200010
200010
200020
100060
100040
080080
080100
040600
030C00
FF1FF0
ENDCHAR
STARTCHAR 0390
ENCODING 912
SWIDTH 257 0
DWIDTH 10 0
BBX 10 31 1 0
BITMAP
0200
0600
0400
0440
C4C0
0000
0000
0000
0000
0000
0800
1800
1000
1000
1000
1000
1000
3000
2000
2000
2000
2000
2000
4000
4000
4000
4000
4000
4000
6000
3C00
ENDCHAR
STARTCHAR 0391
ENCODING 913
SWIDTH 565 0
DWIDTH 22 0
BBX 21 28 -1 0
BITMAP
000300
000300
000500
000500
000900
000880
001080
001080
002080
002080
004040
00C040
008040
018040
010040
020060
020020
040020
040020
0FFFE0
080030
100010
100010
200010
600010
400010
C00008
800008
ENDCHAR
STARTCHAR 0392
ENCODING 914
SWIDTH 565 0
DWIDTH 22 0
BBX 19 28 2 0
BITMAP
0FF800
080700
0800C0
080060
080020
080020
100020
100020
100020
100060
100040
100080
200300
3FFC00
200E00
200180
200080
200040
400040
400040
400040
400040
4000C0
C00080
800100
800200
800C00
FFF000
ENDCHAR
STARTCHAR 0393
ENCODING 915
SWIDTH 514 0
DWIDTH 20 0
BBX 20 28 2 0
BITMAP
0FFFF0
080000
080000
080000
080000
180000
100000
100000
100000
100000
100000
200000
200000
200000
200000
200000
200000
400000
400000
400000
400000
400000
400000
800000
800000
800000
800000
800000
ENDCHAR
STARTCHAR 0394
ENCODING 916
SWIDTH 668 0
DWIDTH 26 0
BBX 24 28 -1 0
BITMAP
000080
0000C0
000140
000340
000240
000420
000420
000820
001820
001010
002010
002010
004010
004018
008008
018008
010008
02000C
020004
040004
0C0004
080004
100002
100002
200002
200002
400001
FFFFFF
ENDCHAR
STARTCHAR 0395
ENCODING 917
SWIDTH 540 0
DWIDTH 21 0
BBX 21 28 2 0
BITMAP
0FFFF8
080000
080000
080000
080000
080000
100000
100000
100000
100000
100000
100000
200000
3FFF80
200000
200000
200000
200000
400000
400000
400000
400000
400000
800000
800000
800000
800000
FFFF00
ENDCHAR
STARTCHAR 0396
ENCODING 918
SWIDTH 565 0
DWIDTH 22 0
BBX 23 28 0 0
BITMAP
07FFFE
000006
00000C
000008
000010
000020
000040
0000C0
000180
000100
000200
000400
000800
001800
003000
002000
004000
008000
010000
030000
060000
040000
080000
100000
200000
600000
C00000
FFFFE0
ENDCHAR
STARTCHAR 0397
ENCODING 919
SWIDTH 668 0
DWIDTH 26 0
BBX 24 28 2 0
BITMAP
080001
080002
080002
080002
080002
080002
100002
100004
100004
100004
100004
100004
200004
3FFFF8
200008
200008
200008
200008
400018
400010
400010
400010
400010
800010
800020
800020
800020
800020
ENDCHAR
STARTCHAR 0398
ENCODING 920
SWIDTH 642 0
DWIDTH 25 0
BBX 22 28 2 0
BITMAP
003F00
00C0C0
030020
060010
0C0008
080008
100008
10000C
200004
200004
200004
400004
400008
400008
47FF08
400008
C00008
800018
800010
800010
800020
400020
400040
4000C0
200080
300300
180600
07F800
ENDCHAR
STARTCHAR 0399
ENCODING 921
SWIDTH 231 0
DWIDTH 9 0
BBX 5 28 3 0
BITMAP
08
08
08
08
18
10
10
10
10
10
20
20
20
20
20
20
40
40
40
40
40
40
80
80
80
80
80
80
ENDCHAR
STARTCHAR 039A
ENCODING 922
SWIDTH 591 0
DWIDTH 23 0
BBX 22 28 2 0
BITMAP
080004
080008
080010
080060
0800C0
080180
100300
100400
100800
101000
106000
10C000
218000
238000
24C000
284000
302000
203000
401000
400800
400C00
400400
400200
800300
800100
800080
8000C0
800040
ENDCHAR
STARTCHAR 039B
ENCODING 923
SWIDTH 617 0
DWIDTH 24 0
BBX 20 28 0 0
BITMAP
000200
000300
000500
000500
000900
001900
001080
003080
002080
006080
004080
0080C0
008040
010040
010040
020040
020040
040020
040020
080020
080020
100020
100030
200010
600010
400010
C00010
800010
ENDCHAR
STARTCHAR 039C
ENCODING 924
SWIDTH 822 0
DWIDTH 32 0
BBX 29 28 2 0
BITMAP
0C000008
0C000018
0C000018
0A000028
0A000028
0A000048
12000090
11000090
11000110
11000110
11000210
10800610
20800420
20800820
20800820
20401020
20403020
20402060
40404040
40204040
40208040
40218040
40210040
801200C0
80120080
80140080
801C0080
80080080
ENDCHAR
STARTCHAR 039D
ENCODING 925
SWIDTH 668 0
DWIDTH 26 0
BBX 24 28 2 0
BITMAP
0C0001
0C0001
0E0002
0A0002
0B0002
090002
118002
108002
10C004
104004
106004
102004
203004
201004
201008
200808
200808
600408
400408
400218
400210
400110
400110
C00090
800090
800070
800060
800020
ENDCHAR
STARTCHAR 039E
ENCODING 926
SWIDTH 514 0
DWIDTH 20 0
BBX 21 28 0 0
BITMAP
07FFF8
000000
000000
000000
000000
000000
000000
000000
000000
000000
000000
000000
000000
000000
0FFF80
000000
000000
000000
000000
000000
000000
000000
000000
000000
000000
000000
000000
FFFF80
ENDCHAR
STARTCHAR 039F
ENCODING 927
SWIDTH 642 0
DWIDTH 25 0
BBX 22 28 2 0
BITMAP
003F80
00C0C0
030020
060010
0C0008
080008
100008
100004
200004
200004
200004
400004
400008
400008
400008
400008
C00008
800018
800010
800010
800020
400020
400040
4000C0
200080
300300
180600
07F800
ENDCHAR
STARTCHAR 03A0
ENCODING 928
SWIDTH 668 0
DWIDTH 26 0
BBX 24 28 2 0
BITMAP
0FFFFF
080002
080002
080002
080002
080002
100002
100004
100004
100004
100004
100004
200004
200008
200008
200008
200008
200008
400018
400010
400010
400010
400010
C00010
800020
800020
800020
800020
ENDCHAR
STARTCHAR 03A1
ENCODING 929
SWIDTH 565 0
DWIDTH 22 0
BBX 20 28 2 0
BITMAP
0FFE00
080380
080060
080020
080010
080010
100010
100010
100010
100010
100030
100020
200060
2000C0
200300
3FFE00
200000
200000
400000
400000
400000
400000
400000
C00000
800000
800000
800000
800000
ENDCHAR
STARTCHAR 03A3
ENCODING 931
SWIDTH 514 0
DWIDTH 20 0
BBX 22 28 -1 0
BITMAP
07FFFC
040000
020000
030000
010000
008000
00C000
004000
002000
003000
001000
000800
000C00
000C00
001800
003000
002000
004000
008000
010000
020000
060000
0C0000
180000
100000
200000
400000
FFFFC0
ENDCHAR
STARTCHAR 03A4
ENCODING 932
SWIDTH 565 0
DWIDTH 22 0
BBX 20 28 4 0
BITMAP
FFFFF0
004000
004000
004000
004000
004000
004000
008000
008000
008000
008000
008000
018000
010000
010000
010000
010000
010000
020000
020000
020000
020000
020000
020000
040000
040000
040000
040000
ENDCHAR
STARTCHAR 03A5
ENCODING 933
SWIDTH 565 0
DWIDTH 22 0
BBX 22 28 3 0
BITMAP
C0000C
400008
600010
200020
200060
100040
100080
180100
080300
080600
040400
040800
021000
023000
022000
014000
018000
008000
010000
010000
010000
010000
010000
010000
020000
020000
020000
020000
ENDCHAR
STARTCHAR 03A6
ENCODING 934
SWIDTH 668 0
DWIDTH 26 0
BBX 24 28 2 0
BITMAP
000200
000200
000400
000400
007F80
01C470
060418
080C04
100802
200802
600803
400801
400801
801801
801002
801002
801002
801004
40100C
402008
202030
102060
0E2380
03FC00
002000
004000
004000
004000
ENDCHAR
STARTCHAR 03A7
ENCODING 935
SWIDTH 565 0
DWIDTH 22 0
BBX 24 28 0 0
BITMAP
080003
0C0006
040004
020008
020010
010020
010060
0080C0
008080
004100
004200
002400
002C00
001800
003800
002800
004400
008400
010200
030200
060100
040100
080080
100080
200040
600040
C00020
800030
ENDCHAR
STARTCHAR 03A8
ENCODING 936
SWIDTH 668 0
DWIDTH 26 0
BBX 22 28 4 0
BITMAP
201004
601004
401004
401004
401004
401008
402008
802008
802008
802008
802018
802010
804010
804030
804020
404040
604080
30C300
188E00
07F800
008000
008000
008000
018000
010000
010000
010000
010000
ENDCHAR
STARTCHAR 03A9
ENCODING 937
SWIDTH 617 0
DWIDTH 24 0
BBX 23 28 0 0
BITMAP
000FC0
003030
00C018
018008
030004
020004
040004
040006
080002
080002
080002
100004
100004
100004
100004
100004
10000C
100008
100008
100010
100010
100020
080060
0800C0
040180
020300
018C00
FF0FF0
ENDCHAR
STARTCHAR 03AA
ENCODING 938
SWIDTH 231 0
DWIDTH 9 0
BBX 11 34 3 0
BITMAP
6060
4060
0000
0000
0000
0000
0800
0800
0800
0800
1800
1000
1000
1000
1000
1000
2000
2000
2000
2000
2000
2000
4000
4000
4000
4000
4000
4000
8000
8000
8000
8000
8000
8000
ENDCHAR
STARTCHAR 03AB
ENCODING 939
SWIDTH 565 0
DWIDTH 22 0
BBX 22 34 3 0
BITMAP
018180
018180
000000
000000
000000
000000
C0000C
400008
600010
200020
200060
100040
100080
180100
080300
080600
040400
040800
021000
023000
022000
014000
018000
008000
010000
010000
010000
010000
010000
010000
020000
020000
020000
020000
ENDCHAR
STARTCHAR 03AC
ENCODING 940
SWIDTH 540 0
DWIDTH 21 0
BBX 17 28 2 0
BITMAP
000400
000C00
000800
001800
001000
000000
000000
01E080
061880
080480
100280
200300
200300
400100
400100
400100
800300
800200
800200
800200
800200
800200
800400
800400
800C00
401400
606600
3F8380
ENDCHAR
STARTCHAR 03AD
ENCODING 941
SWIDTH 514 0
DWIDTH 20 0
BBX 18 28 1 0
BITMAP
000400
000800
000800
001000
001000
000000
000000
01FC00
070700
080180
100080
300040
200040
200000
200000
100000
0C0000
03F000
1C0000
200000
400000
800000
800100
800100
800300
400600
601C00
1FF000
ENDCHAR
STARTCHAR 03AE
ENCODING 942
SWIDTH 514 0
DWIDTH 20 0
BBX 17 36 1 -8
BITMAP
000400
000400
000800
000800
001000
000000
000000
087C00
098300
120100
140080
180080
180080
100080
300080
200080
200080
200100
200100
200100
600100
400100
400100
400200
400200
400200
800200
800200
000600
000400
000400
000400
000400
000400
000C00
000800
ENDCHAR
STARTCHAR 03AF
ENCODING 943
SWIDTH 257 0
DWIDTH 10 0
BBX 6 28 2 0
BITMAP
04
04
08
08
10
00
00
10
30
20
20
20
20
20
60
40
40
40
40
40
80
80
80
80
80
80
C0
78
ENDCHAR
STARTCHAR 03B0
ENCODING 944
SWIDTH 488 0
DWIDTH 19 0
BBX 15 31 2 0
BITMAP
0010
0030
0020
0220
0626
0000
0000
0000
0000
0000
1002
3002
2002
2002
2002
2002
2002
4002
4002
4002
4002
4002
4002
8004
8004
800C
8008
8010
4030
6060
3F80
ENDCHAR
STARTCHAR 03B1
ENCODING 945
SWIDTH 540 0
DWIDTH 21 0
BBX 17 21 2 0
BITMAP
01E080
061880
080480
100280
200300
200300
400100
400100
400100
800300
800200
800200
800200
800200
800200
800400
800400
800C00
401400
606600
3F8380
ENDCHAR
STARTCHAR 03B2
ENCODING 946
SWIDTH 565 0
DWIDTH 22 0
BBX 20 36 0 -8
BITMAP
001F00
0060C0
008060
010020
030010
020010
060010
040020
040020
040020
040040
080080
080300
087E00
080180
080040
080060
100020
100020
100020
100020
100020
100020
200040
3000C0
380180
2C0300
23FC00
200000
400000
400000
400000
400000
400000
C00000
800000
ENDCHAR
STARTCHAR 03B3
ENCODING 947
SWIDTH 462 0
DWIDTH 18 0
BBX 17 29 2 -8
BITMAP
800080
400100
400100
400200
400600
400400
200C00
200800
201000
201000
302000
102000
104000
10C000
108000
198000
090000
0A0000
0A0000
0C0000
0C0000
080000
080000
080000
080000
080000
080000
100000
100000
ENDCHAR
STARTCHAR 03B4
ENCODING 948
SWIDTH 514 0
DWIDTH 20 0
BBX 18 30 1 0
BITMAP
001E00
00F3C0
010040
020000
040000
040000
040000
020000
030000
00C000
007800
038600
0C0300
180180
100080
2000C0
600040
400040
400040
800040
800040
8000C0
800080
800080
800100
400300
400200
200400
301800
0FE000
ENDCHAR
STARTCHAR 03B5
ENCODING 949
SWIDTH 514 0
DWIDTH 20 0
BBX 18 21 1 0
BITMAP
01FC00
070700
080180
100080
300040
200040
200000
200000
100000
0C0000
03F000
1C0000
200000
400000
800000
800100
800100
800300
400600
601C00
1FF000
ENDCHAR
STARTCHAR 03B6
ENCODING 950
SWIDTH 437 0
DWIDTH 17 0
BBX 17 35 2 -7
BITMAP
7FFF80
000180
000300
000200
000400
000800
001000
002000
004000
008000
010000
030000
060000
0C0000
080000
100000
200000
200000
400000
400000
C00000
800000
800000
800000
400000
300000
1C0000
038000
006000
001000
001000
002000
002000
004000
008000
ENDCHAR
STARTCHAR 03B7
ENCODING 951
SWIDTH 514 0
DWIDTH 20 0
BBX 17 29 1 -8
BITMAP
087C00
098300
120100
140080
180080
180080
100080
300080
200080
200080
200100
200100
200100
600100
400100
400100
400200
400200
400200
800200
800200
000600
000400
000400
000400
000400
000400
000C00
000800
ENDCHAR
STARTCHAR 03B8
ENCODING 952
SWIDTH 540 0
DWIDTH 21 0
BBX 17 28 3 0
BITMAP
00F800
030600
040300
080100
100080
100080
200080
200080
600080
400080
400080
400080
400080
800100
FFFF00
800100
800100
800100
800300
800200
800200
800600
800400
800C00
800800
401000
606000
1FC000
ENDCHAR
STARTCHAR 03B9
ENCODING 953
SWIDTH 257 0
DWIDTH 10 0
BBX 5 21 2 0
BITMAP
10
30
20
20
20
20
20
60
40
40
40
40
40
80
80
80
80
80
80
C0
78
ENDCHAR
STARTCHAR 03BA
ENCODING 954
SWIDTH 488 0
DWIDTH 19 0
BBX 18 21 1 0
BITMAP
080040
180080
100100
100200
100C00
101800
103000
306000
20C000
210000
3E0000
210000
218000
60C000
406000
402000
401000
400800
400400
800600
800300
ENDCHAR
STARTCHAR 03BB
ENCODING 955
SWIDTH 514 0
DWIDTH 20 0
BBX 19 29 -1 0
BITMAP
01C000
002000
003000
001000
001000
001000
001000
000800
000800
001800
001800
002800
002400
004400
00C400
008400
010400
010400
020200
020200
040200
0C0200
080200
100300
100100
200100
200100
400180
C000E0
ENDCHAR
STARTCHAR 03BC
ENCODING 956
SWIDTH 514 0
DWIDTH 20 0
BBX 19 29 0 -8
BITMAP
040020
040020
080020
080020
080040
080040
080040
100040
100040
100040
100080
100080
100080
200080
200180
200180
200100
300300
300500
481900
47F100
400000
400000
400000
400000
800000
800000
800000
800000
ENDCHAR
STARTCHAR 03BD
ENCODING 957
SWIDTH 462 0
DWIDTH 18 0
BBX 17 21 2 0
BITMAP
800080
C00100
400300
400200
400600
400400
200C00
200800
201000
201000
302000
102000
104000
104000
108000
088000
090000
0B0000
0A0000
0E0000
040000
ENDCHAR
STARTCHAR 03BE
ENCODING 958
SWIDTH 462 0
DWIDTH 18 0
BBX 18 35 2 -7
BITMAP
007F80
018040
020000
040000
080000
080000
080000
080000
080000
040000
030000
00FC00
070000
0C0000
100000
200000
400000
400000
800000
800000
800000
800000
800000
C00000
400000
300000
1C0000
078000
00E000
001000
001000
001000
001000
006000
00C000
ENDCHAR
STARTCHAR 03BF
ENCODING 959
SWIDTH 514 0
DWIDTH 20 0
BBX 18 21 1 0
BITMAP
00F800
030600
040100
080080
100080
200040
200040
400040
400040
400040
C00040
800040
8000C0
800080
800080
400100
400100
400200
200400
101800
0FF000
ENDCHAR
STARTCHAR 03C0
ENCODING 960
SWIDTH 565 0
DWIDTH 22 0
BBX 19 21 3 0
BITMAP
FFFFE0
FFFFE0
100200
100200
100200
200200
200400
200400
200400
200400
200400
400C00
400800
400800
400800
400800
400800
800800
800800
800800
800780
ENDCHAR
STARTCHAR 03C1
ENCODING 961
SWIDTH 514 0
DWIDTH 20 0
BBX 18 29 0 -8
BITMAP
003E00
00C100
030080
020040
040040
0C0040
080040
080040
100040
100040
100040
100040
100040
3000C0
200080
200080
200100
300300
300200
6C0C00
47F800
400000
400000
400000
400000
800000
800000
800000
800000
ENDCHAR
STARTCHAR 03C2
ENCODING 962
SWIDTH 514 0
DWIDTH 20 0
BBX 16 28 2 -7
BITMAP
01F8
070C
0C02
1001
3001
2001
4001
4000
4000
8000
8000
8000
8000
8000
8000
8000
4000
6000
3000
1800
0700
00C0
0020
0020
0020
0040
00C0
0180
ENDCHAR
STARTCHAR 03C3
ENCODING 963
SWIDTH 514 0
DWIDTH 20 0
BBX 21 21 1 0
BITMAP
003FF8
01FFF8
060300
080180
100080
300040
200040
400040
400040
400040
800040
800040
800080
800080
800080
800100
400300
400200
200400
301800
0FE000
ENDCHAR
STARTCHAR 03C4
ENCODING 964
SWIDTH 462 0
DWIDTH 18 0
BBX 16 21 3 0
BITMAP
FFFF
FFFF
0100
0100
0200
0200
0200
0200
0200
0200
0400
0400
0400
0400
0400
0C00
0800
0800
0800
0400
07C0
ENDCHAR
STARTCHAR 03C5
ENCODING 965
SWIDTH 488 0
DWIDTH 19 0
BBX 15 21 2 0
BITMAP
1002
3002
2002
2002
2002
2002
2002
4002
4002
4002
4002
4002
4002
8004
8004
800C
8008
8010
4030
6060
3F80
ENDCHAR
STARTCHAR 03C6
ENCODING 966
SWIDTH 642 0
DWIDTH 25 0
BBX 21 30 2 -9
BITMAP
000200
060FC0
0C0820
181030
101010
201010
201008
402008
402008
402008
802008
802010
802010
804010
804020
804020
404040
404080
20C100
188600
0FF800
008000
008000
008000
010000
010000
010000
010000
010000
010000
ENDCHAR
STARTCHAR 03C7
ENCODING 967
SWIDTH 488 0
DWIDTH 19 0
BBX 21 29 -1 -8
BITMAP
180018
060010
010020
010060
010040
008080
008100
008300
008200
004400
004C00
004800
005000
002000
002000
006000
00B000
019000
011000
021000
040800
040800
080800
100800
300400
200400
400400
C00200
800380
ENDCHAR
STARTCHAR 03C8
ENCODING 968
SWIDTH 642 0
DWIDTH 25 0
BBX 21 29 2 -8
BITMAP
200810
201010
201010
201008
201008
401008
401008
402008
402008
402008
402008
C02010
802010
C04010
404020
404020
404040
604080
208100
188600
0FF800
008000
008000
008000
010000
010000
010000
010000
010000
ENDCHAR
STARTCHAR 03C9
ENCODING 969
SWIDTH 797 0
DWIDTH 31 0
BBX 26 21 2 0
BITMAP
04000080
0C0000C0
08000040
10000040
10000040
20000040
20020040
60060040
40040040
40040040
40040040
80040040
80040040
800C0040
80080080
80080080
80140100
40140100
40240200
20420400
1F81F800
ENDCHAR
STARTCHAR 03CA
ENCODING 970
SWIDTH 257 0
DWIDTH 10 0
BBX 10 28 1 0
BITMAP
0040
C0C0
0000
0000
0000
0000
0000
0800
1800
1000
1000
1000
1000
1000
3000
2000
2000
2000
2000
2000
4000
4000
4000
4000
4000
4000
6000
3C00
ENDCHAR
STARTCHAR 03CB
ENCODING 971
SWIDTH 488 0
DWIDTH 19 0
BBX 15 28 2 0
BITMAP
0002
0606
0000
0000
0000
0000
0000
1002
3002
2002
2002
2002
2002
2002
4002
4002
4002
4002
4002
4002
8004
8004
800C
8008
8010
4030
6060
3F80
ENDCHAR
STARTCHAR 03CC
ENCODING 972
SWIDTH 514 0
DWIDTH 20 0
BBX 18 28 1 0
BITMAP
000400
000800
000800
001000
001000
000000
000000
00F800
030600
040100
080080
100080
200040
200040
400040
400040
400040
C00040
800040
8000C0
800080
800080
400100
400100
400200
200400
101800
0FF000
ENDCHAR
STARTCHAR 03CD
ENCODING 973
SWIDTH 488 0
DWIDTH 19 0
BBX 15 28 2 0
BITMAP
0010
0010
0020
0020
0040
0000
0000
1002
3002
2002
2002
2002
2002
2002
4002
4002
4002
4002
4002
4002
8004
8004
800C
8008
8010
4030
6060
3F80
ENDCHAR
STARTCHAR 03CE
ENCODING 974
SWIDTH 797 0
DWIDTH 31 0
BBX 26 28 2 0
BITMAP
00002000
00004000
00004000
00008000
00008000
00000000
00000000
04000080
0C0000C0
08000040
10000040
10000040
20000040
20020040
60060040
40040040
40040040
40040040
80040040
80040040
800C0040
80080080
80080080
80140100
40140100
40240200
20420400
1F81F800
ENDCHAR
STARTCHAR 03D1
ENCODING 977
SWIDTH 540 0
DWIDTH 21 0
BBX 19 28 2 0
BITMAP
003F00
004100
008080
018080
010080
010080
010080
010080
010080
010080
010080
008100
00C100
003100
400FE0
400100
400300
400200
800200
800200
800200
800200
800400
800400
800800
401800
603000
1FC000
ENDCHAR
STARTCHAR 03D2
ENCODING 978
SWIDTH 514 0
DWIDTH 20 0
BBX 22 28 2 0
BITMAP
E0001C
100060
0800C0
080080
040100
040300
040200
020400
020400
020800
021000
011000
012000
012000
014000
008000
008000
008000
008000
010000
010000
010000
010000
010000
030000
020000
020000
020000
ENDCHAR
STARTCHAR 03D6
ENCODING 982
SWIDTH 745 0
DWIDTH 29 0
BBX 30 21 1 0
BITMAP
7FFFFFFC
04000040
08000040
18000040
10000040
30000020
20020020
20020020
40060020
40040020
40040040
40040040
40040040
C0040040
800C00C0
400C0080
401C0080
40140100
40240200
20620600
1F81F800
ENDCHAR
STARTCHAR 0400
ENCODING 1024
SWIDTH 540 0
DWIDTH 21 0
BBX 21 35 2 0
BITMAP
002000
003000
001000
000800
000800
000000
000000
0FFFF8
080000
080000
080000
080000
080000
100000
100000
100000
100000
100000
100000
200000
3FFF80
200000
200000
200000
200000
400000
400000
400000
400000
400000
800000
800000
800000
800000
FFFF00
ENDCHAR
STARTCHAR 0401
ENCODING 1025
SWIDTH 540 0
DWIDTH 21 0
BBX 21 34 2 0
BITMAP
00C0C0
00C0C0
000000
000000
000000
000000
0FFFF8
080000
080000
080000
080000
080000
100000
100000
100000
100000
100000
100000
200000
3FFF80
200000
200000
200000
200000
400000
400000
400000
400000
400000
800000
800000
800000
800000
FFFF00
ENDCHAR
STARTCHAR 0402
ENCODING 1026
SWIDTH 694 0
DWIDTH 27 0
BBX 22 28 4 0
BITMAP
FFFFF8
008000
008000
008000
008000
010000
010000
010000
010000
010000
010000
020F00
02F0E0
030030
020008
020008
02000C
040004
040004
040004
04000C
040008
080008
080010
080030
080060
080180
080E00
ENDCHAR
STARTCHAR 0403
ENCODING 1027
SWIDTH 514 0
DWIDTH 20 0
BBX 20 35 2 0
BITMAP
000180
000100
000200
000400
000800
000000
000000
0FFFF0
080000
080000
080000
080000
180000
100000
100000
100000
100000
100000
200000
200000
200000
200000
200000
200000
400000
400000
400000
400000
400000
400000
800000
800000
800000
800000
800000
ENDCHAR
STARTCHAR 0404
ENCODING 1028
SWIDTH 617 0
DWIDTH 24 0
BBX 21 28 2 0
BITMAP
003F80
00C0C0
030020
060010
040008
080008
180008
100008
300008
200000
200000
200000
400000
7FFC00
400000
400000
400000
400000
C00000
C00000
400020
400020
400040
4000C0
200080
300300
180600
07F800
ENDCHAR
STARTCHAR 0405
ENCODING 1029
SWIDTH 565 0
DWIDTH 22 0
BBX 21 28 1 0
BITMAP
003F80
01C0C0
030020
040010
080008
080008
100008
100008
100000
180000
080000
060000
038000
00F000
001C00
000300
0000C0
000040
000020
000020
800020
800020
800020
800040
4000C0
600180
300600
0FFC00
ENDCHAR
STARTCHAR 0406
ENCODING 1030
SWIDTH 231 0
DWIDTH 9 0
BBX 5 28 3 0
BITMAP
08
08
08
08
18
10
10
10
10
10
20
20
20
20
20
20
40
40
40
40
40
40
80
80
80
80
80
80
ENDCHAR
STARTCHAR 0407
ENCODING 1031
SWIDTH 231 0
DWIDTH 9 0
BBX 11 34 3 0
BITMAP
6060
4060
0000
0000
0000
0000
0800
0800
0800
0800
1800
1000
1000
1000
1000
1000
2000
2000
2000
2000
2000
2000
4000
4000
4000
4000
4000
4000
8000
8000
8000
8000
8000
8000
ENDCHAR
STARTCHAR 0408
ENCODING 1032
SWIDTH 514 0
DWIDTH 20 0
BBX 19 28 1 0
BITMAP
000020
000020
000020
000040
000040
000040
000040
000040
000040
000080
000080
000080
000080
000080
000180
000100
000100
000100
000100
000100
800200
800200
800200
800400
800C00
401800
603000
1FC000
ENDCHAR
STARTCHAR 0409
ENCODING 1033
SWIDTH 1002 0
DWIDTH 39 0
BBX 37 28 -1 0
BITMAP
000FFF8000
0008008000
0010008000
0010010000
0010010000
0010010000
0020010000
0020010000
0020010000
0020020000
0060020000
0040020000
0040020000
004003FFC0
0040020060
0080040010
0080040008
0080040008
0080040008
0100040008
0100040008
0100080008
0200080010
0200080010
0400080020
0C00080040
1800080380
E0001FFE00
ENDCHAR
STARTCHAR 040A
ENCODING 1034
SWIDTH 1028 0
DWIDTH 40 0
BBX 36 28 2 0
BITMAP
0800020000
0800020000
0800020000
0800020000
0800020000
1000020000
1000040000
1000040000
1000040000
1000040000
1000040000
2000040000
2000080000
20000FFF00
3FFFF800C0
2000080060
2000080020
4000080030
4000100010
4000100010
4000100030
4000100020
4000100020
8000100040
80002000C0
8000200180
8000200600
80003FF800
ENDCHAR
STARTCHAR 040B
ENCODING 1035
SWIDTH 771 0
DWIDTH 30 0
BBX 22 28 4 0
BITMAP
FFFFF0
008000
008000
008000
008000
010000
010000
010000
010000
010000
010000
020000
020300
02FDE0
030018
020008
020004
040004
040004
040004
040004
040004
080004
080004
08000C
080008
080008
080008
ENDCHAR
STARTCHAR 040C
ENCODING 1036
SWIDTH 591 0
DWIDTH 23 0
BBX 22 34 2 0
BITMAP
000180
000100
000200
000400
000800
000000
080004
080008
080010
080060
0800C0
080180
100300
100400
100800
101000
106000
10C000
218000
238000
24C000
284000
302000
203000
401000
400800
400C00
400400
400200
800300
800100
800080
8000C0
800040
ENDCHAR
STARTCHAR 040D
ENCODING 1037
SWIDTH 668 0
DWIDTH 26 0
BBX 24 35 2 0
BITMAP
000800
000400
000400
000200
000200
000000
000000
080001
080003
080006
08000A
08001A
080032
100022
100042
100084
100104
100304
100604
200404
200804
201008
202008
204008
20C008
418008
410008
420010
440010
480010
980010
B00010
A00030
C00020
800020
ENDCHAR
STARTCHAR 040E
ENCODING 1038
SWIDTH 591 0
DWIDTH 23 0
BBX 23 34 2 0
BITMAP
004020
004040
0060C0
003F00
000000
000000
600002
200006
200004
100008
100008
180010
080030
080020
040040
0400C0
040080
020100
020300
030200
010400
010C00
008800
009000
00B000
006000
004000
00C000
008000
010000
030000
060000
0C0000
F00000
ENDCHAR
STARTCHAR 040F
ENCODING 1039
SWIDTH 668 0
DWIDTH 26 0
BBX 23 35 2 -7
BITMAP
080002
080002
080002
080002
080002
100002
100004
100004
100004
100004
100004
200004
200008
200008
200008
200008
200008
400008
400010
400010
400010
400010
400010
800030
800020
800020
800020
FFFFE0
004000
00C000
008000
008000
008000
008000
008000
ENDCHAR
STARTCHAR 0410
ENCODING 1040
SWIDTH 565 0
DWIDTH 22 0
BBX 21 28 -1 0
BITMAP
000300
000300
000500
000500
000900
000880
001080
001080
002080
002080
004040
00C040
008040
018040
010040
020060
020020
040020
040020
0FFFE0
080030
100010
100010
200010
600010
400010
C00008
800008
ENDCHAR
STARTCHAR 0411
ENCODING 1041
SWIDTH 591 0
DWIDTH 23 0
BBX 20 28 2 0
BITMAP
0FFFF0
080000
080000
080000
080000
180000
100000
100000
100000
100000
100000
200000
200000
3FF800
200600
200100
200080
400080
400080
400080
400080
400080
400080
800100
800300
800600
801800
FFE000
ENDCHAR
STARTCHAR 0412
ENCODING 1042
SWIDTH 565 0
DWIDTH 22 0
BBX 19 28 2 0
BITMAP
0FF800
080700
0800C0
080060
080020
080020
100020
100020
100020
100060
100040
100080
200300
3FFC00
200E00
200180
200080
200040
400040
400040
400040
400040
4000C0
C00080
800100
800200
800C00
FFF000
ENDCHAR
STARTCHAR 0413
ENCODING 1043
SWIDTH 514 0
DWIDTH 20 0
BBX 20 28 2 0
BITMAP
0FFFF0
080000
080000
080000
080000
180000
100000
100000
100000
100000
100000
200000
200000
200000
200000
200000
200000
400000
400000
400000
400000
400000
400000
800000
800000
800000
800000
800000
ENDCHAR
STARTCHAR 0414
ENCODING 1044
SWIDTH 668 0
DWIDTH 26 0
BBX 26 35 -1 -7
BITMAP
0007FFC0
00040040
00080040
00080040
00080040
00080040
00080080
00100080
00100080
00100080
00100080
00200080
00200100
00200100
00600100
00400100
00400100
00C00100
00800200
00800200
01000200
01000200
02000200
06000200
04000400
08000400
18000400
7FFFFF00
40000100
80000100
80000300
80000200
80000200
80000200
80000200
ENDCHAR
STARTCHAR 0415
ENCODING 1045
SWIDTH 540 0
DWIDTH 21 0
BBX 21 28 2 0
BITMAP
0FFFF8
080000
080000
080000
080000
080000
100000
100000
100000
100000
100000
100000
200000
3FFF80
200000
200000
200000
200000
400000
400000
400000
400000
400000
800000
800000
800000
800000
FFFF00
ENDCHAR
STARTCHAR 0416
ENCODING 1046
SWIDTH 822 0
DWIDTH 32 0
BBX 35 28 -1 0
BITMAP
0400100060
06001000C0
0200100180
0100100300
0100100200
0080200400
00C0200800
0040201000
0020202000
0020204000
0010208000
0018418000
0008430000
000FFE0000
000C440000
0018420000
0030C30000
0060810000
00C0808000
0180808000
0300804000
0200806000
0401802000
0801001000
1001001800
2001000800
4001000C00
8001000400
ENDCHAR
STARTCHAR 0417
ENCODING 1047
SWIDTH 565 0
DWIDTH 22 0
BBX 21 28 1 0
BITMAP
007F00
01C0C0
030030
040010
080008
180008
100008
100008
000018
000010
000030
000060
000180
01FE00
001F00
000080
000040
000020
000020
000020
800020
800020
800040
800040
400080
600100
300600
0FF800
ENDCHAR
STARTCHAR 0418
ENCODING 1048
SWIDTH 668 0
DWIDTH 26 0
BBX 24 28 2 0
BITMAP
080001
080003
080006
08000A
08001A
080032
100022
100042
100084
100104
100304
100604
200404
200804
201008
202008
204008
20C008
418008
410008
420010
440010
480010
980010
B00010
A00030
C00020
800020
ENDCHAR
STARTCHAR 0419
ENCODING 1049
SWIDTH 668 0
DWIDTH 26 0
BBX 24 34 2 0
BITMAP
002010
002010
001020
000FC0
000000
000000
080001
080003
080006
08000A
08001A
080032
100022
100042
100084
100104
100304
100604
200404
200804
201008
202008
204008
20C008
418008
410008
420010
440010
480010
980010
B00010
A00030
C00020
800020
ENDCHAR
STARTCHAR 041A
ENCODING 1050
SWIDTH 591 0
DWIDTH 23 0
BBX 22 28 2 0
BITMAP
080004
080008
080010
080020
080040
080080
100100
100200
100400
100800
101000
102000
204000
278000
3F8000
208000
204000
206000
403000
401000
400800
400C00
400600
800200
800100
800080
8000C0
800040
ENDCHAR
STARTCHAR 041B
ENCODING 1051
SWIDTH 668 0
DWIDTH 26 0
BBX 26 28 -1 0
BITMAP
001FFFC0
00100040
00100040
00100040
00100040
00200040
00200080
00200080
00200080
00400080
00400080
00400080
00400100
00800100
00800100
00800100
00800100
00800100
01000200
01000200
01000200
02000200
02000200
06000200
04000400
08000400
30000400
E0000400
ENDCHAR
STARTCHAR 041C
ENCODING 1052
SWIDTH 822 0
DWIDTH 32 0
BBX 29 28 2 0
BITMAP
0C000008
0C000018
0C000018
0A000028
0A000028
0A000048
12000090
11000090
11000110
11000110
11000210
10800610
20800420
20800820
20800820
20401020
20403020
20402060
40404040
40204040
40208040
40218040
40210040
801200C0
80120080
80140080
801C0080
80080080
ENDCHAR
STARTCHAR 041D
ENCODING 1053
SWIDTH 668 0
DWIDTH 26 0
BBX 24 28 2 0
BITMAP
080001
080002
080002
080002
080002
080002
100002
100004
100004
100004
100004
100004
200004
3FFFF8
200008
200008
200008
200008
400018
400010
400010
400010
400010
800010
800020
800020
800020
800020
ENDCHAR
STARTCHAR 041E
ENCODING 1054
SWIDTH 642 0
DWIDTH 25 0
BBX 22 28 2 0
BITMAP
003F80
00C0C0
030020
060010
0C0008
080008
100008
100004
200004
200004
200004
400004
400008
400008
400008
400008
C00008
800018
800010
800010
800020
400020
400040
4000C0
200080
300300
180600
07F800
ENDCHAR
STARTCHAR 041F
ENCODING 1055
SWIDTH 668 0
DWIDTH 26 0
BBX 24 28 2 0
BITMAP
0FFFFF
080002
080002
080002
080002
080002
100002
100004
100004
100004
100004
100004
200004
200008
200008
200008
200008
200008
400018
400010
400010
400010
400010
C00010
800020
800020
800020
800020
ENDCHAR
STARTCHAR 0420
ENCODING 1056
SWIDTH 565 0
DWIDTH 22 0
BBX 20 28 2 0
BITMAP
0FFE00
080380
080060
080020
080010
080010
100010
100010
100010
100010
100030
100020
200060
2000C0
200300
3FFE00
200000
200000
400000
400000
400000
400000
400000
C00000
800000
800000
800000
800000
ENDCHAR
STARTCHAR 0421
ENCODING 1057
SWIDTH 617 0
DWIDTH 24 0
BBX 21 28 2 0
BITMAP
003F80
00C0C0
030020
060010
040008
080008
180008
100008
300008
200000
200000
200000
400000
400000
400000
400000
400000
400000
800000
C00000
400020
400020
400040
4000C0
200080
300300
180600
07F800
ENDCHAR
STARTCHAR 0422
ENCODING 1058
SWIDTH 565 0
DWIDTH 22 0
BBX 20 28 4 0
BITMAP
FFFFF0
004000
004000
004000
004000
004000
004000
008000
008000
008000
008000
008000
018000
010000
010000
010000
010000
010000
020000
020000
020000
020000
020000
020000
040000
040000
040000
040000
ENDCHAR
STARTCHAR 0423
ENCODING 1059
SWIDTH 591 0
DWIDTH 23 0
BBX 23 28 2 0
BITMAP
600002
200006
200004
100008
100008
180010
080030
080020
040040
0400C0
040080
020100
020300
030200
010400
010C00
008800
009000
00B000
006000
004000
00C000
008000
010000
030000
060000
0C0000
F00000
ENDCHAR
STARTCHAR 0424
ENCODING 1060
SWIDTH 668 0
DWIDTH 26 0
BBX 24 30 2 -1
BITMAP
000200
000200
000200
000400
003F80
01C470
060408
0C0404
100C02
200803
600801
400801
C00801
800801
801801
801001
801001
801002
801002
801004
80200C
402018
202030
102060
0E2780
03FC00
004000
004000
004000
004000
ENDCHAR
STARTCHAR 0425
ENCODING 1061
SWIDTH 565 0
DWIDTH 22 0
BBX 24 28 0 0
BITMAP
080003
0C0006
040004
020008
020010
010020
010060
0080C0
008080
004100
004200
002400
002C00
001800
003800
002800
004400
008400
010200
030200
060100
040100
080080
100080
200040
600040
C00020
800030
ENDCHAR
STARTCHAR 0426
ENCODING 1062
SWIDTH 668 0
DWIDTH 26 0
BBX 23 35 2 -7
BITMAP
080002
080002
080002
080002
100002
100004
100004
100004
100004
100004
200004
200008
200008
200008
200008
200008
400018
400010
400010
400010
400010
400010
800030
800020
800020
800020
800020
FFFFF8
000008
000008
000008
000010
000010
000010
000010
ENDCHAR
STARTCHAR 0427
ENCODING 1063
SWIDTH 617 0
DWIDTH 24 0
BBX 19 28 5 0
BITMAP
400020
400040
400040
400040
400040
C00040
800040
800080
800080
800080
800080
C00080
400080
300100
1FFF00
018100
000100
000100
000200
000200
000200
000200
000200
000200
000400
000400
000400
000400
ENDCHAR
STARTCHAR 0428
ENCODING 1064
SWIDTH 874 0
DWIDTH 34 0
BBX 32 28 2 0
BITMAP
08006001
08004003
08004002
08004002
08004002
10004002
10008002
10008004
10008004
10008004
30008004
20008004
20010004
20010008
20010008
20010008
60010008
40030008
40020008
40020010
40020010
40020010
80020010
80060010
80040010
80040020
80040020
FFFFFFE0
ENDCHAR
STARTCHAR 0429
ENCODING 1065
SWIDTH 874 0
DWIDTH 34 0
BBX 32 35 2 -7
BITMAP
08006001
08004003
08004002
08004002
08004002
10004002
10008002
10008004
10008004
10008004
30008004
20008004
20010004
20010008
20010008
20010008
60010008
40030008
40020008
40020010
40020010
40020010
80020010
80060010
80040010
80040020
80040020
FFFFFFF8
00000008
00000008
00000008
00000008
00000008
00000010
00000010
ENDCHAR
STARTCHAR 042A
ENCODING 1066
SWIDTH 745 0
DWIDTH 29 0
BBX 24 28 2 0
BITMAP
FFF000
002000
002000
002000
002000
002000
004000
004000
004000
004000
004000
004000
008000
00FFE0
008018
008004
008002
008002
010001
010001
010001
010002
010002
010006
02000C
020018
020060
03FF80
ENDCHAR
STARTCHAR 042B
ENCODING 1067
SWIDTH 771 0
DWIDTH 30 0
BBX 27 28 2 0
BITMAP
08000020
08000020
08000020
08000020
08000020
10000020
10000040
10000040
10000040
10000040
10000040
20000040
20000080
3FF80080
20060080
20010080
20008080
40008100
40008100
40008100
40008100
40008100
40008100
80010200
80030200
80060200
80180200
FFE00200
ENDCHAR
STARTCHAR 042C
ENCODING 1068
SWIDTH 565 0
DWIDTH 22 0
BBX 17 28 2 0
BITMAP
080000
080000
080000
080000
080000
100000
100000
100000
100000
100000
100000
200000
200000
3FF800
200600
200100
200080
400080
400080
400080
400080
400080
400080
800100
800300
800600
801800
FFE000
ENDCHAR
STARTCHAR 042D
ENCODING 1069
SWIDTH 617 0
DWIDTH 24 0
BBX 21 28 2 0
BITMAP
007F00
01C0C0
020060
040020
080010
100010
100010
200008
200008
000008
000008
000008
000018
01FFF0
01FFF0
000010
000010
000010
000020
000020
800060
800040
8000C0
800080
400100
600200
300C00
0FF000
ENDCHAR
STARTCHAR 042E
ENCODING 1070
SWIDTH 900 0
DWIDTH 35 0
BBX 31 28 2 0
BITMAP
04001F80
04006060
04018010
04030008
0806000C
08040004
08080004
08080004
08100002
08100002
10300002
10200004
10200004
1FE00004
10200004
10200004
20400004
20400008
20400008
20400008
20400010
60600010
40200020
40200060
401000C0
40180180
400C0300
C003FC00
ENDCHAR
STARTCHAR 042F
ENCODING 1071
SWIDTH 565 0
DWIDTH 22 0
BBX 22 28 0 0
BITMAP
000FFC
007804
00C004
010004
020008
040008
040008
080008
080008
080008
080010
080010
0C0010
040010
030010
01FFF0
008020
010020
030020
020020
040020
0C0040
080040
100040
200040
200040
400040
800080
ENDCHAR
STARTCHAR 0430
ENCODING 1072
SWIDTH 488 0
DWIDTH 19 0
BBX 16 21 1 0
BITMAP
01F8
070E
0802
1001
3001
2001
0001
0001
0001
0001
0FFF
3802
6002
C002
8002
8002
8004
800C
8014
C064
3F84
ENDCHAR
STARTCHAR 0431
ENCODING 1073
SWIDTH 514 0
DWIDTH 20 0
BBX 19 29 1 0
BITMAP
000020
000040
000180
003E00
00E000
010000
020000
040000
080000
180000
11FC00
370600
2C0100
380080
7000C0
600040
400040
400040
400040
C00040
800040
8000C0
800080
400080
400100
400200
200600
101C00
0FF000
ENDCHAR
STARTCHAR 0432
ENCODING 1074
SWIDTH 514 0
DWIDTH 20 0
BBX 17 21 1 0
BITMAP
0FF000
0FFE00
080180
100080
100080
100080
100080
100080
100100
200600
3FF800
200600
200100
200100
600080
400080
400100
400100
400200
400C00
FFF000
ENDCHAR
STARTCHAR 0433
ENCODING 1075
SWIDTH 385 0
DWIDTH 15 0
BBX 16 21 1 0
BITMAP
0FFF
0FFF
1000
1000
1000
1000
1000
1000
2000
2000
2000
2000
2000
6000
4000
4000
4000
4000
4000
8000
8000
ENDCHAR
STARTCHAR 0434
ENCODING 1076
SWIDTH 514 0
DWIDTH 20 0
BBX 21 27 -2 -6
BITMAP
003FF8
002008
002008
002010
004010
004010
004010
004010
008010
008020
008020
018020
010020
010020
020020
020040
040040
0C0040
080040
100040
7FFFE0
400020
400020
400020
800040
800040
800040
ENDCHAR
STARTCHAR 0435
ENCODING 1077
SWIDTH 488 0
DWIDTH 19 0
BBX 17 21 1 0
BITMAP
00F800
030C00
0C0200
080100
100100
200080
200080
400080
400080
7FFF80
800000
800000
800000
800000
800000
400000
400000
400000
200400
101800
0FF000
ENDCHAR
STARTCHAR 0436
ENCODING 1078
SWIDTH 745 0
DWIDTH 29 0
BBX 30 21 -1 0
BITMAP
0800800C
04008018
02008030
02008060
010080C0
00808180
00810300
00410600
00210C00
00211800
001FF000
00231000
00420800
00820C00
03020600
06020200
0C020100
18060180
30040080
60040040
80040020
ENDCHAR
STARTCHAR 0437
ENCODING 1079
SWIDTH 488 0
DWIDTH 19 0
BBX 16 21 1 0
BITMAP
01F8
070E
0803
1001
3001
2001
0001
0001
0002
000C
03F0
001C
0004
0002
0002
8002
8002
8004
400C
6018
1FE0
ENDCHAR
STARTCHAR 0438
ENCODING 1080
SWIDTH 514 0
DWIDTH 20 0
BBX 18 21 1 0
BITMAP
080040
0800C0
1001C0
100340
100280
100480
100880
101880
203080
206080
204100
208100
210100
430100
460100
4C0300
480200
500200
600200
E00200
C00200
ENDCHAR
STARTCHAR 0439
ENCODING 1081
SWIDTH 514 0
DWIDTH 20 0
BBX 18 28 1 0
BITMAP
010080
010080
010100
00C600
007C00
000000
000000
080040
0800C0
1001C0
100340
100280
100480
100880
101880
203080
206080
204100
208100
210100
430100
460100
4C0300
480200
500200
600200
E00200
C00200
ENDCHAR
STARTCHAR 043A
ENCODING 1082
SWIDTH 462 0
DWIDTH 18 0
BBX 18 21 1 0
BITMAP
0800C0
180180
100300
100600
100C00
101800
103000
306000
20C000
218000
3F0000
210000
208000
60C000
406000
402000
401000
401800
400C00
800400
800200
ENDCHAR
STARTCHAR 043B
ENCODING 1083
SWIDTH 514 0
DWIDTH 20 0
BBX 20 21 -1 0
BITMAP
007FF0
00FFF0
008010
008010
008020
018020
010020
010020
010020
010060
020040
020040
020040
020040
060040
0400C0
040080
080080
080080
300080
E00080
ENDCHAR
STARTCHAR 043C
ENCODING 1084
SWIDTH 694 0
DWIDTH 27 0
BBX 25 21 1 0
BITMAP
08000180
0C000100
0C000300
14000700
14000500
12000900
12001900
12001200
31002200
21006200
21004200
20808200
20808600
20810400
60C20400
40420400
40440400
404C0400
40280C00
40300800
80300800
ENDCHAR
STARTCHAR 043D
ENCODING 1085
SWIDTH 514 0
DWIDTH 20 0
BBX 18 21 1 0
BITMAP
080040
080040
100040
100040
100080
100080
100080
300080
200080
200180
3FFF00
200100
200100
600100
400100
400300
400200
400200
400200
800200
800200
ENDCHAR
STARTCHAR 043E
ENCODING 1086
SWIDTH 514 0
DWIDTH 20 0
BBX 18 21 1 0
BITMAP
00F800
030600
040100
080080
100080
200040
200040
400040
400040
400040
C00040
800040
8000C0
800080
800080
400100
400100
400200
200400
101800
0FF000
ENDCHAR
STARTCHAR 043F
ENCODING 1087
SWIDTH 514 0
DWIDTH 20 0
BBX 18 21 1 0
BITMAP
0FFFC0
0FFFC0
100040
100040
100080
100080
100080
300080
200080
200180
200100
200100
200100
600100
400100
400300
400200
400200
400200
800200
800200
ENDCHAR
STARTCHAR 0440
ENCODING 1088
SWIDTH 514 0
DWIDTH 20 0
BBX 18 29 0 -8
BITMAP
043E00
0CC100
0B0080
0E0040
0C0040
080040
080040
180040
100040
100040
100040
100040
100040
2000C0
200080
200080
200100
300300
300200
4C0C00
47F800
400000
400000
400000
400000
800000
800000
800000
800000
ENDCHAR
STARTCHAR 0441
ENCODING 1089
SWIDTH 488 0
DWIDTH 19 0
BBX 17 21 1 0
BITMAP
00F800
030600
0C0200
180100
100100
200080
200080
400000
400000
400000
400000
C00000
800000
800000
800000
400200
400200
400400
200C00
301800
0FE000
ENDCHAR
STARTCHAR 0442
ENCODING 1090
SWIDTH 437 0
DWIDTH 17 0
BBX 17 21 2 0
BITMAP
FFFF80
FFFF00
010000
010000
010000
010000
010000
030000
020000
020000
020000
020000
020000
060000
040000
040000
040000
040000
040000
080000
080000
ENDCHAR
STARTCHAR 0443
ENCODING 1091
SWIDTH 462 0
DWIDTH 18 0
BBX 21 29 -2 -8
BITMAP
080008
040010
040010
040020
040020
060040
020040
020080
020180
020100
010300
010200
010400
010400
018800
008800
009000
009000
00A000
006000
004000
00C000
008000
018000
010000
020000
060000
0C0000
F80000
ENDCHAR
STARTCHAR 0444
ENCODING 1092
SWIDTH 694 0
DWIDTH 27 0
BBX 23 37 2 -8
BITMAP
000200
000200
000200
000200
000400
000400
000400
000400
03E5F0
061E18
080C04
100804
200802
200802
400802
400802
401002
801002
801002
801002
801006
803004
802004
80200C
802008
802018
402030
606060
3FDFC0
004000
004000
004000
004000
008000
008000
008000
008000
ENDCHAR
STARTCHAR 0445
ENCODING 1093
SWIDTH 462 0
DWIDTH 18 0
BBX 18 21 0 0
BITMAP
100040
180080
080100
0C0200
040600
020C00
020800
011000
012000
00C000
00C000
01C000
036000
022000
043000
081000
100800
300800
600400
C00400
800200
ENDCHAR
STARTCHAR 0446
ENCODING 1094
SWIDTH 514 0
DWIDTH 20 0
BBX 18 27 1 -6
BITMAP
080040
080040
100040
100040
100080
100080
100080
100080
200080
200180
200100
200100
200100
600100
400100
400300
400200
400200
400200
800200
FFFF00
000100
000100
000100
000100
000200
000200
ENDCHAR
STARTCHAR 0447
ENCODING 1095
SWIDTH 488 0
DWIDTH 19 0
BBX 15 21 3 0
BITMAP
4002
4002
8002
8006
8004
8004
8004
8004
8004
800C
4008
39F8
0E08
0008
0008
0018
0010
0010
0010
0010
0010
ENDCHAR
STARTCHAR 0448
ENCODING 1096
SWIDTH 745 0
DWIDTH 29 0
BBX 27 21 1 0
BITMAP
08010020
08010020
10010020
10010020
10030020
10020020
10020040
10020040
20020040
20020040
20040040
20040040
20040080
60040080
40040080
40040080
40080080
40080180
40080100
80080100
FFFFFF00
ENDCHAR
STARTCHAR 0449
ENCODING 1097
SWIDTH 745 0
DWIDTH 29 0
BBX 27 27 1 -6
BITMAP
08010020
08010020
10010020
10010020
10030020
10020020
10020040
10020040
20020040
20020040
20040040
20040040
20040080
60040080
40040080
40040080
40080080
40080180
40080100
80080100
FFFFFFC0
00000040
00000040
00000080
00000080
00000080
00000080
ENDCHAR
STARTCHAR 044A
ENCODING 1098
SWIDTH 617 0
DWIDTH 24 0
BBX 19 21 2 0
BITMAP
FF0000
010000
010000
010000
020000
020000
020000
020000
03FE00
020180
040040
040020
040020
040020
040020
0C0020
080060
080040
080080
080300
0FFC00
ENDCHAR
STARTCHAR 044B
ENCODING 1099
SWIDTH 694 0
DWIDTH 27 0
BBX 25 21 1 0
BITMAP
08000080
08000080
08000100
10000100
10000100
10000100
10000100
10000100
1FF00200
201C0200
20020200
20030200
20010200
20010200
60010400
40010400
40020400
40020400
400C0400
40380C00
FFE00800
ENDCHAR
STARTCHAR 044C
ENCODING 1100
SWIDTH 488 0
DWIDTH 19 0
BBX 16 21 1 0
BITMAP
0800
0800
0800
1000
1000
1000
1000
1000
1FF0
201C
2002
2003
2001
2001
6001
4001
4002
4002
400C
4038
FFE0
ENDCHAR
STARTCHAR 044D
ENCODING 1101
SWIDTH 514 0
DWIDTH 20 0
BBX 17 21 1 0
BITMAP
01F800
070C00
0C0200
100100
100100
200080
200080
000080
000080
000080
07FF80
000100
000100
000100
800300
800200
C00600
400400
400800
203000
1FC000
ENDCHAR
STARTCHAR 044E
ENCODING 1102
SWIDTH 771 0
DWIDTH 30 0
BBX 27 21 1 0
BITMAP
08007E00
0801C380
080300C0
10040040
100C0020
10080020
10100020
10100020
30200020
20200020
3FE00020
20200020
20400020
20600040
60200040
402000C0
40200080
40300100
40100200
40080C00
8007F800
ENDCHAR
STARTCHAR 044F
ENCODING 1103
SWIDTH 514 0
DWIDTH 20 0
BBX 18 21 1 0
BITMAP
007FC0
03FF80
040080
080080
100080
100080
200080
200100
200100
100100
180100
0FFF00
020100
060200
0C0200
080200
100200
200200
600400
400400
800400
ENDCHAR
STARTCHAR 0450
ENCODING 1104
SWIDTH 488 0
DWIDTH 19 0
BBX 17 29 1 0
BITMAP
004000
004000
002000
002000
001000
000000
000000
000000
00F800
030C00
0C0200
080100
100100
200080
200080
400080
400080
7FFF80
800000
800000
800000
800000
800000
400000
400000
400000
200400
101800
0FF000
ENDCHAR
STARTCHAR 0451
ENCODING 1105
SWIDTH 488 0
DWIDTH 19 0
BBX 17 28 1 0
BITMAP
018180
018180
000000
000000
000000
000000
000000
00F800
030C00
0C0200
080100
100100
200080
200080
400080
400080
7FFF80
800000
800000
800000
800000
800000
400000
400000
400000
200400
101800
0FF000
ENDCHAR
STARTCHAR 0452
ENCODING 1106
SWIDTH 514 0
DWIDTH 20 0
BBX 17 37 1 -8
BITMAP
040000
040000
040000
040000
7FF000
080000
080000
080000
087C00
098300
130100
140080
180080
180080
100080
100080
200080
200080
200100
200100
200100
600100
400100
400100
400200
400200
400200
800200
800200
000600
000400
000400
000400
000800
000800
001000
03E000
ENDCHAR
STARTCHAR 0453
ENCODING 1107
SWIDTH 385 0
DWIDTH 15 0
BBX 16 29 1 0
BITMAP
000C
0018
0010
0020
0040
0000
0000
0000
0FFF
0FFF
1000
1000
1000
1000
1000
1000
2000
2000
2000
2000
2000
6000
4000
4000
4000
4000
4000
8000
8000
ENDCHAR
STARTCHAR 0454
ENCODING 1108
SWIDTH 514 0
DWIDTH 20 0
BBX 16 21 2 0
BITMAP
01F0
060C
0802
1002
2001
2001
4001
4000
8000
8000
FFF0
8000
8000
8000
8000
8006
8004
800C
4018
2030
1FC0
ENDCHAR
STARTCHAR 0455
ENCODING 1109
SWIDTH 462 0
DWIDTH 18 0
BBX 16 21 1 0
BITMAP
01F0
060C
0802
1001
3001
2001
2000
3000
1800
0E00
01C0
0030
000C
0004
0004
0006
8004
8004
C008
6030
1FE0
ENDCHAR
STARTCHAR 0456
ENCODING 1110
SWIDTH 180 0
DWIDTH 7 0
BBX 6 28 2 0
BITMAP
0C
08
00
00
00
00
00
10
10
10
20
20
20
20
20
20
40
40
40
40
40
40
80
80
80
80
80
80
ENDCHAR
STARTCHAR 0457
ENCODING 1111
SWIDTH 180 0
DWIDTH 7 0
BBX 11 28 1 0
BITMAP
4040
C060
0040
0000
0000
0000
0000
0800
0800
0800
1000
1000
1000
1000
1000
3000
2000
2000
2000
2000
2000
6000
4000
4000
4000
4000
4000
8000
ENDCHAR
STARTCHAR 0458
ENCODING 1112
SWIDTH 205 0
DWIDTH 8 0
BBX 14 36 -6 -8
BITMAP
000C
000C
0000
0000
0000
0000
0000
0010
0010
0010
0020
0020
0020
0020
0020
0020
0040
0040
0040
0040
0040
0040
0080
0080
0080
0080
0080
0080
0100
0100
0100
0100
0200
0200
0400
F800
ENDCHAR
STARTCHAR 0459
ENCODING 1113
SWIDTH 822 0
DWIDTH 32 0
BBX 31 21 -1 0
BITMAP
00FFF000
00FFF000
00801000
00801000
01802000
01002000
01002000
01002000
01002000
02007FF0
02004018
02004004
02004002
02004002
04004002
04008002
04008002
08008004
18008008
30008030
C000FFC0
ENDCHAR
STARTCHAR 045A
ENCODING 1114
SWIDTH 822 0
DWIDTH 32 0
BBX 29 21 1 0
BITMAP
08004000
08004000
10004000
10004000
10008000
10008000
10008000
30008000
20008000
3FFFFFC0
20010060
20010010
20010008
60010008
40010008
40020008
40020008
40020010
40020020
800200C0
8003FF00
ENDCHAR
STARTCHAR 045B
ENCODING 1115
SWIDTH 514 0
DWIDTH 20 0
BBX 17 29 1 0
BITMAP
040000
040000
040000
040000
7FF000
080000
080000
080000
087C00
098300
130100
140080
180080
180080
100080
100080
200080
200080
200100
200100
200100
600100
400100
400100
400200
400200
400200
800200
800200
ENDCHAR
STARTCHAR 045C
ENCODING 1116
SWIDTH 462 0
DWIDTH 18 0
BBX 18 29 1 0
BITMAP
000300
000200
000400
000800
001000
000000
000000
000000
0800C0
180180
100300
100600
100C00
101800
103000
306000
20C000
218000
3F0000
210000
208000
60C000
406000
402000
401000
401800
400C00
800400
800200
ENDCHAR
STARTCHAR 045D
ENCODING 1117
SWIDTH 514 0
DWIDTH 20 0
BBX 18 29 1 0
BITMAP
00C000
004000
006000
002000
001000
000000
000000
000000
080040
0800C0
1001C0
100340
100280
100480
100880
101880
203080
206080
204100
208100
210100
430100
460100
4C0300
480200
500200
600200
E00200
C00200
ENDCHAR
STARTCHAR 045E
ENCODING 1118
SWIDTH 462 0
DWIDTH 18 0
BBX 21 36 -2 -8
BITMAP
004020
004020
002040
001F80
000000
000000
000000
080008
040010
040010
040020
040020
060040
020040
020080
020180
020100
010300
010200
010400
010400
018800
008800
009000
009000
00A000
006000
004000
00C000
008000
018000
010000
020000
060000
0C0000
F80000
ENDCHAR
STARTCHAR 045F
ENCODING 1119
SWIDTH 514 0
DWIDTH 20 0
BBX 18 28 1 -7
BITMAP
080040
080040
100040
100040
100080
100080
100080
100080
200080
200180
200100
200100
200100
600100
400100
400300
400200
400200
400200
800200
FFFE00
010000
010000
030000
020000
020000
020000
020000
ENDCHAR
STARTCHAR 0460
ENCODING 1120
SWIDTH 848 0
DWIDTH 33 0
BBX 30 28 3 0
BITMAP
10008004
10008004
10008004
1000800C
30010008
20010008
20010008
20010008
20010008
20010010
40020010
40020010
40020010
40020010
40020010
40060020
80040020
80040020
80040020
80040020
80040060
800C0040
800C0040
801C0080
80140080
C0260100
60430200
3F81FC00
ENDCHAR
STARTCHAR 0461
ENCODING 1121
SWIDTH 848 0
DWIDTH 33 0
BBX 27 21 3 0
BITMAP
20020020
20020020
20020020
40020020
40040020
40040040
40040040
40040040
40040040
80040040
80080040
80080080
80080080
80080080
80080080
80180180
80180100
80280300
806C0200
40C60C00
3F83F800
ENDCHAR
STARTCHAR 0462
ENCODING 1122
SWIDTH 565 0
DWIDTH 22 0
BBX 17 28 2 0
BITMAP
080000
080000
080000
080000
080000
7FE000
100000
100000
100000
100000
100000
200000
200000
3FF800
200600
200100
200080
400080
400080
400080
400080
400080
400080
800100
800300
800600
801800
FFE000
ENDCHAR
STARTCHAR 0463
ENCODING 1123
SWIDTH 488 0
DWIDTH 19 0
BBX 16 29 1 0
BITMAP
0400
0400
0400
0400
0400
0800
0800
FFE0
0800
0800
0800
1000
1000
1000
1000
1000
1FF0
201C
2002
2003
2001
2001
6001
4001
4002
4002
400C
4038
FFE0
ENDCHAR
STARTCHAR 0464
ENCODING 1124
SWIDTH 848 0
DWIDTH 33 0
BBX 30 28 2 0
BITMAP
04003F80
0400E060
04018010
04020008
08060008
080C0004
08080004
08180004
08100004
08100000
10200000
10200000
10200000
1FFFF000
10200000
10400000
20400000
20400000
20400000
20400000
20400010
20400020
40200020
40200040
403000C0
40100180
400C0600
8007F800
ENDCHAR
STARTCHAR 0465
ENCODING 1125
SWIDTH 694 0
DWIDTH 27 0
BBX 25 21 1 0
BITMAP
0800F800
08030600
18040300
10080100
10100080
10300080
10200080
10200000
30400000
20400000
3FFFE000
20400000
20C00000
20800000
40400000
40400200
40400200
40400400
40200C00
40301800
800FE000
ENDCHAR
STARTCHAR 0466
ENCODING 1126
SWIDTH 565 0
DWIDTH 22 0
BBX 21 28 -1 0
BITMAP
000300
000300
000500
000500
000900
000880
001080
001080
002080
002080
004040
00C040
008040
018040
010040
030060
020020
07FFE0
041020
081020
081030
101010
101010
202010
202010
402010
C02008
802008
ENDCHAR
STARTCHAR 0467
ENCODING 1127
SWIDTH 488 0
DWIDTH 19 0
BBX 18 21 -1 0
BITMAP
000800
001800
001800
002800
006C00
004400
00C400
008400
010600
030200
020200
060200
07FF00
0FFF00
184100
104100
304180
204080
404080
40C080
8080C0
ENDCHAR
STARTCHAR 0468
ENCODING 1128
SWIDTH 848 0
DWIDTH 33 0
BBX 27 28 3 0
BITMAP
08000800
08000C00
08001400
08003400
08002400
08006400
10004200
1000C200
10008200
10010200
10010200
10020300
20020100
20040100
20040100
20080100
20080180
3FFFFF80
40304080
40204080
40604080
40404080
40808040
C0808040
81008040
81008040
82008040
82018020
ENDCHAR
STARTCHAR 0469
ENCODING 1129
SWIDTH 720 0
DWIDTH 28 0
BBX 23 21 2 0
BITMAP
180040
1000C0
1000C0
100160
100120
100220
300620
200430
200C10
200810
201010
203018
7FFFF8
7FFFF8
404108
40820C
408204
410204
830204
820206
840202
ENDCHAR
STARTCHAR 046A
ENCODING 1130
SWIDTH 745 0
DWIDTH 29 0
BBX 26 28 1 0
BITMAP
01FFFFC0
01000080
00800180
00800300
00400200
00400400
00200800
00201000
00103000
00102000
00184000
00088000
00090000
00070000
03FFFC00
0C040200
18040100
30040100
20040080
20040080
40080080
40080100
40080100
40080100
40080100
C0080100
80100100
80100200
ENDCHAR
STARTCHAR 046B
ENCODING 1131
SWIDTH 642 0
DWIDTH 25 0
BBX 22 21 1 0
BITMAP
07FFFC
03FFF8
030010
010020
018040
008080
004100
004200
002400
002C00
03FF80
0C1060
101030
201010
602010
402010
402010
402010
402010
802010
804010
ENDCHAR
STARTCHAR 046C
ENCODING 1132
SWIDTH 1002 0
DWIDTH 39 0
BBX 35 28 2 0
BITMAP
0401FFFFE0
0400800040
0400800080
0400400100
0800400300
0800200200
0800200400
0800100800
0800101000
0800082000
1000086000
1000044000
1000048000
1000030000
1FFFFFFE00
1006020300
2008020080
2010020080
2010060080
2020040080
2020040080
6020040080
4020040080
4020040080
4040080080
4040080100
4040080100
C040080100
ENDCHAR
STARTCHAR 046D
ENCODING 1133
SWIDTH 848 0
DWIDTH 33 0
BBX 29 21 1 0
BITMAP
0807FFF8
0807FFF0
08020020
10030040
100100C0
10018180
10008300
10004600
30004400
20002800
3FFFFF80
201C20C0
20302020
20602010
60402010
40402010
40802010
40804010
40804020
40804020
80804020
ENDCHAR
STARTCHAR 046E
ENCODING 1134
SWIDTH 488 0
DWIDTH 19 0
BBX 20 43 0 -7
BITMAP
001030
000860
000CC0
000580
000300
000000
000000
000000
03F800
000380
000040
000020
000010
000010
000010
000010
000030
000020
000060
0000C0
000300
01FC00
003E00
000100
000080
000040
000040
000040
000040
000040
000080
000080
000100
000600
003800
1FE000
600000
400000
800000
800000
400000
600000
300000
ENDCHAR
STARTCHAR 046F
ENCODING 1135
SWIDTH 462 0
DWIDTH 18 0
BBX 16 37 0 -7
BITMAP
0103
0086
00CC
0058
0030
0000
0000
0000
0000
0FC0
0FFC
0003
0001
0001
0001
0001
0003
0006
0018
07E0
001C
0006
0002
0002
0002
0002
0004
0008
0070
3F80
4000
8000
8000
8000
8000
C000
2000
ENDCHAR
STARTCHAR 0470
ENCODING 1136
SWIDTH 668 0
DWIDTH 26 0
BBX 22 28 4 0
BITMAP
201004
601004
401004
401004
401004
401008
402008
802008
802008
802008
802018
802010
804010
804030
804020
404040
604080
30C300
188E00
07F800
008000
008000
008000
018000
010000
010000
010000
010000
ENDCHAR
STARTCHAR 0471
ENCODING 1137
SWIDTH 642 0
DWIDTH 25 0
BBX 21 29 2 -8
BITMAP
200810
201010
201010
201008
201008
401008
401008
402008
402008
402008
402008
C02010
802010
C04010
404020
404020
404040
604080
208100
188600
0FF800
008000
008000
008000
010000
010000
010000
010000
010000
ENDCHAR
STARTCHAR 0472
ENCODING 1138
SWIDTH 642 0
DWIDTH 25 0
BBX 22 28 2 0
BITMAP
003F00
00C0C0
030020
060010
0C0008
080008
100008
100004
200004
200004
200004
400004
400008
400008
7FFFF8
400008
C00008
800018
800010
800010
800020
400020
400040
4000C0
200080
300300
180600
07F800
ENDCHAR
STARTCHAR 0473
ENCODING 1139
SWIDTH 540 0
DWIDTH 21 0
BBX 18 21 1 0
BITMAP
00FC00
030600
040100
080080
100080
300040
200040
400040
400040
400040
FFFFC0
800040
800080
800080
800080
800100
400300
400200
200400
301800
0FE000
ENDCHAR
STARTCHAR 0474
ENCODING 1140
SWIDTH 565 0
DWIDTH 22 0
BBX 22 28 3 0
BITMAP
C0000C
400030
400060
400040
400080
400080
400100
600100
200200
200200
200400
200400
200800
200800
201000
101000
102000
102000
104000
104000
108000
108000
090000
090000
0A0000
0A0000
0C0000
0C0000
ENDCHAR
STARTCHAR 0475
ENCODING 1141
SWIDTH 462 0
DWIDTH 18 0
BBX 18 21 2 0
BITMAP
8001C0
400200
400400
400400
400800
400800
401000
201000
202000
202000
204000
204000
208000
108000
110000
110000
120000
120000
140000
1C0000
080000
ENDCHAR
STARTCHAR 0476
ENCODING 1142
SWIDTH 565 0
DWIDTH 22 0
BBX 22 34 3 0
BITMAP
18C000
0C4000
042000
023000
011800
008000
C0000C
400030
400060
400040
400080
400080
400100
600100
200200
200200
200400
200400
200800
200800
201000
101000
102000
102000
104000
104000
108000
108000
090000
090000
0A0000
0A0000
0C0000
0C0000
ENDCHAR
STARTCHAR 0477
ENCODING 1143
SWIDTH 462 0
DWIDTH 18 0
BBX 18 28 2 0
BITMAP
210000
118000
08C000
0C4000
062000
000000
000000
8001C0
400200
400400
400400
400800
400800
401000
201000
202000
202000
204000
204000
208000
108000
110000
110000
120000
120000
140000
1C0000
080000
ENDCHAR
STARTCHAR 0478
ENCODING 1144
SWIDTH 1105 0
DWIDTH 43 0
BBX 42 36 2 -8
BITMAP
003F80000000
00C0C0000000
030020000000
060010000000
0C0008000000
080008000000
100008000000
100004600040
2000042000C0
200004200080
200004200100
400004200100
400008100200
400008100200
400008100400
400008100400
C00008180800
800018081800
800010081000
800010083000
800020082000
400020046000
400040044000
4000C0048000
200080048000
300300070000
180600030000
07F800020000
000000020000
000000040000
0000000C0000
000000080000
000000180000
000000100000
000000600000
000003C00000
ENDCHAR
STARTCHAR 0479
ENCODING 1145
SWIDTH 977 0
DWIDTH 38 0
BBX 39 29 1 -8
BITMAP
00F8020002
0306020004
040101000C
0800810008
1000810018
2000410010
2000418020
4000408020
4000408040
4000408040
C000408080
8000404080
8000C04100
8000804300
8000804200
4001004600
4001002400
4002002C00
2004002800
1018003000
0FF0003000
0000002000
0000002000
0000004000
0000004000
0000008000
0000018000
0000030000
00003C0000
ENDCHAR
STARTCHAR 047A
ENCODING 1146
SWIDTH 642 0
DWIDTH 25 0
BBX 22 33 2 -3
BITMAP
000400
000400
003F00
00C4C0
030420
060010
0C0008
080008
100008
10000C
200004
200004
200004
400004
400008
400008
400008
400008
C00008
800018
800010
800010
800020
400020
400040
4000C0
200080
304300
188600
07F800
008000
008000
008000
ENDCHAR
STARTCHAR 047B
ENCODING 1147
SWIDTH 514 0
DWIDTH 20 0
BBX 18 26 1 -3
BITMAP
001000
001000
00FC00
032600
042100
082080
100080
200040
200040
400040
400040
400040
800040
800040
800080
800080
800080
800100
400300
400200
210400
311800
0FE000
010000
010000
020000
ENDCHAR
STARTCHAR 047C
ENCODING 1148
SWIDTH 848 0
DWIDTH 33 0
BBX 29 34 3 0
BITMAP
0001F800
00020C00
00060200
000441C0
00004000
00004000
00404100
03C081C0
06000020
08000010
18000010
10000008
20000008
20000008
20000008
20000010
40020010
40020010
40020010
40020010
40020010
40060020
80040020
80040020
80040020
80040020
80040060
800C0040
800C0040
801C00C0
80140080
C0260100
60430200
3F81FC00
ENDCHAR
STARTCHAR 047D
ENCODING 1149
SWIDTH 797 0
DWIDTH 31 0
BBX 27 29 2 0
BITMAP
0001C000
00062000
000C1800
00080400
00188300
00018000
00010000
00010000
01820600
06000180
080000C0
10000040
30000040
20000060
20000020
40000020
40040040
40040040
40040040
40040040
80040040
800800C0
80080080
80080080
80180180
80140100
40240200
60460600
3F83F800
ENDCHAR
STARTCHAR 047E
ENCODING 1150
SWIDTH 848 0
DWIDTH 33 0
BBX 30 33 3 0
BITMAP
001FFF00
00004000
00004000
00000000
00000000
10008004
10008004
10008004
1000800C
30010008
20010008
20010008
20010008
20010008
20010010
40020010
40020010
40020010
40020010
40020010
40060020
80040020
80040020
80040020
80040020
80040060
800C0040
800C0040
801C0080
80140080
C0260100
60430200
3F81FC00
ENDCHAR
STARTCHAR 047F
ENCODING 1151
SWIDTH 848 0
DWIDTH 33 0
BBX 27 28 3 0
BITMAP
007FFC00
00010000
00010000
00010000
00000000
00000000
00000000
20020020
20020020
20020020
40020020
40040020
40040040
40040040
40040040
40040040
80040040
80080040
80080080
80080080
80080080
80080080
80180180
80180100
80280300
806C0200
40C60C00
3F83F800
ENDCHAR
STARTCHAR 0480
ENCODING 1152
SWIDTH 591 0
DWIDTH 23 0
BBX 20 35 3 -7
BITMAP
007F00
01C1C0
020060
040020
080030
100010
100010
200010
200010
400000
400000
400000
800000
800000
800000
800000
800000
800000
800000
800000
800000
800000
800000
400000
400000
200000
300000
0F0000
010000
010000
010000
010000
030000
020000
020000
ENDCHAR
STARTCHAR 0481
ENCODING 1153
SWIDTH 488 0
DWIDTH 19 0
BBX 16 28 2 -7
BITMAP
01F8
070C
0C02
1001
3001
2001
4001
4000
4000
8000
8000
8000
8000
8000
8000
8000
8000
4000
4000
3000
1F00
0200
0200
0200
0200
0200
0200
0400
ENDCHAR
STARTCHAR 0482
ENCODING 1154
SWIDTH 565 0
DWIDTH 22 0
BBX 20 25 2 0
BITMAP
000030
000060
0000C0
000080
00C180
00E300
003E00
001E00
000E00
001B80
0010C0
003060
006000
60C000
70C000
1D8000
0F0000
070000
07C000
0CE000
183000
101000
300000
600000
C00000
ENDCHAR
STARTCHAR 0483
ENCODING 1155
SWIDTH 0 0
DWIDTH 0 0
BBX 11 5 -13 24
BITMAP
0020
0020
7FE0
4000
C000
ENDCHAR
STARTCHAR 0484
ENCODING 1156
SWIDTH 0 0
DWIDTH 0 0
BBX 13 5 -14 25
BITMAP
0040
03B0
0408
1808
E008
ENDCHAR
STARTCHAR 0485
ENCODING 1157
SWIDTH 0 0
DWIDTH 0 0
BBX 3 5 -9 26
BITMAP
40
C0
C0
40
60
ENDCHAR
STARTCHAR 0486
ENCODING 1158
SWIDTH 0 0
DWIDTH 0 0
BBX 3 5 -8 26
BITMAP
60
60
60
C0
80
ENDCHAR
STARTCHAR 0488
ENCODING 1160
SWIDTH 0 0
DWIDTH 0 0
BBX 36 34 -28 -6
BITMAP
00000C0000
00003E0000
0000630000
0000E30000
0000000000
0000000000
01F0000F80
0330001DC0
06180018C0
0000000000
0000000000
0000000000
0000000000
0000000000
0000000000
1C000001C0
7E000007E0
E300000630
C300000C30
0000000000
0000000000
0000000000
0000000000
0000000000
0000000000
0F00007800
3F8000FC00
3180018E00
7180018600
0000000000
0001000000
0007C00000
000C600000
001C600000
ENDCHAR
STARTCHAR 0489
ENCODING 1161
SWIDTH 0 0
DWIDTH 0 0
BBX 34 36 -28 -8
BITMAP
00000C0000
00000C0000
00001C0000
0000180000
0080380000
00C0300000
00C0700300
00C0000F00
00E0003C00
0060003800
0060002000
0040000000
0000000000
0000000000
0000000000
0000000000
F000000C00
FE00000F80
3C00000FC0
04000000C0
0000000000
0000000000
0000000000
0000000000
0000000000
0000008000
030001C000
078001C000
1F0000C000
3C0380C000
100380E000
0003006000
0007000000
0006000000
0006000000
000C000000
ENDCHAR
STARTCHAR 048A
ENCODING 1162
SWIDTH 642 0
DWIDTH 25 0
BBX 24 39 2 -5
BITMAP
002010
002030
001060
000FC0
000000
000000
080001
080003
080006
08000A
08001A
080032
100022
100042
100084
100104
100304
100604
200404
200804
201008
202008
204008
20C008
418008
410008
420010
440010
480010
980010
B00010
A00030
C00030
800030
000010
000010
000020
000060
000040
ENDCHAR
STARTCHAR 048B
ENCODING 1163
SWIDTH 514 0
DWIDTH 20 0
BBX 18 33 1 -5
BITMAP
010080
010100
010100
008600
007800
000000
000000
080040
0800C0
1001C0
100340
100280
100480
100880
101880
203080
206080
204100
208100
210100
430100
460100
4C0300
480200
500200
600300
E00300
C00300
000200
000200
000200
000400
000800
ENDCHAR
STARTCHAR 048C
ENCODING 1164
SWIDTH 565 0
DWIDTH 22 0
BBX 17 28 2 0
BITMAP
080000
080000
080000
080000
080000
7FE000
100000
100000
100000
100000
100000
200000
200000
3FF800
200600
200100
200080
400080
400080
400080
400080
400080
400080
800100
800300
800600
801800
FFE000
ENDCHAR
STARTCHAR 048D
ENCODING 1165
SWIDTH 488 0
DWIDTH 19 0
BBX 16 31 1 0
BITMAP
0200
0400
0400
7FF0
0400
0400
0400
0800
0800
0800
0800
0800
0800
1000
1000
1000
1000
1000
3FF0
201C
2002
2003
2001
2001
6001
4001
4002
4002
400C
4038
FFE0
ENDCHAR
STARTCHAR 048E
ENCODING 1166
SWIDTH 591 0
DWIDTH 23 0
BBX 20 28 2 0
BITMAP
0FFC00
080380
080040
080020
080010
180010
100010
100010
100010
100010
100020
200420
200440
2002C0
200300
3FFD00
200080
4000C0
400000
400000
400000
400000
400000
800000
800000
800000
800000
800000
ENDCHAR
STARTCHAR 048F
ENCODING 1167
SWIDTH 540 0
DWIDTH 21 0
BBX 18 29 0 -8
BITMAP
043E00
0CC100
0B0080
0E0040
0C0040
080040
080040
180040
100040
100040
100040
100040
100040
2000C0
200080
200080
201900
300B00
300E00
4C0C00
47FE00
400200
400200
400000
400000
800000
800000
800000
800000
ENDCHAR
STARTCHAR 0490
ENCODING 1168
SWIDTH 514 0
DWIDTH 20 0
BBX 21 35 2 0
BITMAP
000008
000008
000008
000008
000008
000008
000010
0FFFF0
080000
080000
080000
080000
180000
100000
100000
100000
100000
100000
200000
200000
200000
200000
200000
200000
400000
400000
400000
400000
400000
400000
800000
800000
800000
800000
800000
ENDCHAR
STARTCHAR 0491
ENCODING 1169
SWIDTH 411 0
DWIDTH 16 0
BBX 17 28 1 0
BITMAP
000080
000080
000080
000100
000100
000100
000100
0FFF00
0FFF00
100000
100000
100000
100000
100000
100000
200000
200000
200000
200000
200000
600000
400000
400000
400000
400000
400000
800000
800000
ENDCHAR
STARTCHAR 0492
ENCODING 1170
SWIDTH 514 0
DWIDTH 20 0
BBX 20 28 2 0
BITMAP
0FFFF0
080000
080000
080000
080000
180000
100000
100000
100000
100000
100000
200000
200000
FFE000
200000
200000
200000
400000
400000
400000
400000
400000
400000
800000
800000
800000
800000
800000
ENDCHAR
STARTCHAR 0493
ENCODING 1171
SWIDTH 385 0
DWIDTH 15 0
BBX 17 21 0 0
BITMAP
07FF80
07FF80
080000
080000
080000
080000
080000
080000
100000
100000
FFE000
100000
100000
300000
200000
200000
200000
200000
200000
400000
400000
ENDCHAR
STARTCHAR 0494
ENCODING 1172
SWIDTH 514 0
DWIDTH 20 0
BBX 20 33 2 -5
BITMAP
0FFFF0
080000
080000
080000
080000
180000
100000
100000
100000
100000
100000
200000
3F8000
207000
200C00
200600
200200
400100
400100
400100
400100
400100
400100
800100
800100
800300
800200
800600
000400
000800
001000
006000
03C000
ENDCHAR
STARTCHAR 0495
ENCODING 1173
SWIDTH 462 0
DWIDTH 18 0
BBX 16 26 1 -5
BITMAP
0FFF
0FFF
1000
1000
1000
1000
1000
1000
2000
3E00
3FE0
2018
2008
6004
4004
4002
4002
4002
4004
8004
8004
0008
0010
0020
00C0
0300
ENDCHAR
STARTCHAR 0496
ENCODING 1174
SWIDTH 848 0
DWIDTH 33 0
BBX 35 35 -1 -7
BITMAP
0400100060
06001000C0
0200100180
0100100300
0100100200
0080200400
00C0200800
0040201000
0020202000
0020204000
0010208000
0018418000
0008430000
000FFE0000
000C440000
0018420000
0030C30000
0060810000
00C0808000
0180808000
0300804000
0200806000
0401802000
0801001000
1001001800
2001000800
4001000E00
8001000600
0000000200
0000000200
0000000400
0000000400
0000000400
0000000400
0000000400
ENDCHAR
STARTCHAR 0497
ENCODING 1175
SWIDTH 720 0
DWIDTH 28 0
BBX 30 28 -1 -7
BITMAP
0800800C
04008018
02008030
02008060
010080C0
00808180
00810300
00410600
00210C00
00211800
001FF000
00231000
00420800
00820C00
03020600
06020200
0C020100
18060180
30040080
60040060
80040020
00000020
00000020
00000020
00000020
00000040
00000040
00000040
ENDCHAR
STARTCHAR 0498
ENCODING 1176
SWIDTH 565 0
DWIDTH 22 0
BBX 21 36 1 -8
BITMAP
007F00
01C0C0
030030
040010
080008
180008
100008
100008
000018
000010
000030
000060
000180
01FE00
001F00
000080
000040
000020
000020
000020
800020
800020
800040
800040
400080
600100
300600
0FF800
008000
008000
008000
010000
010000
010000
010000
010000
ENDCHAR
STARTCHAR 0499
ENCODING 1177
SWIDTH 488 0
DWIDTH 19 0
BBX 16 29 1 -8
BITMAP
01F8
070E
0803
1001
3001
2001
0001
0001
0002
000C
03F0
001C
0004
0002
0002
8002
8002
8004
400C
6018
1FE0
0200
0200
0400
0400
0400
0400
0400
0400
ENDCHAR
STARTCHAR 049A
ENCODING 1178
SWIDTH 617 0
DWIDTH 24 0
BBX 22 35 2 -7
BITMAP
080004
080008
080010
080020
080040
080080
100100
100200
100400
100800
101000
102000
204000
278000
3F8000
208000
204000
206000
403000
401000
400800
400C00
400600
800200
800100
800080
8000C0
800060
000020
000060
000040
000040
000040
000040
000040
ENDCHAR
STARTCHAR 049B
ENCODING 1179
SWIDTH 514 0
DWIDTH 20 0
BBX 18 28 1 -7
BITMAP
0800C0
180180
100300
100600
100C00
101800
103000
306000
20C000
218000
3F0000
210000
208000
60C000
406000
402000
401000
401800
400C00
800500
800300
000200
000200
000200
000200
000200
000200
000400
ENDCHAR
STARTCHAR 049C
ENCODING 1180
SWIDTH 565 0
DWIDTH 22 0
BBX 21 28 2 0
BITMAP
080008
080018
080030
080020
080040
180080
100100
108300
110200
110400
110800
311000
213000
3FE000
226000
222000
223000
421000
420800
420800
400400
400400
400200
800300
800100
800180
800080
8000C0
ENDCHAR
STARTCHAR 049D
ENCODING 1181
SWIDTH 488 0
DWIDTH 19 0
BBX 18 21 1 0
BITMAP
080040
1800C0
100180
100300
100200
110400
110800
311800
233000
222000
3FC000
226000
222000
623000
461000
441800
400800
400400
400400
800200
800300
ENDCHAR
STARTCHAR 049E
ENCODING 1182
SWIDTH 617 0
DWIDTH 24 0
BBX 23 28 2 0
BITMAP
040006
04000C
0C0018
080030
080060
0800C0
FFE180
080300
100600
100C00
101800
103000
104000
138000
3F8000
20C000
204000
202000
201000
201800
400800
400400
400200
400300
400100
400080
800040
800060
ENDCHAR
STARTCHAR 049F
ENCODING 1183
SWIDTH 462 0
DWIDTH 18 0
BBX 17 29 2 0
BITMAP
0C0000
080000
080000
080000
7FF000
080000
180000
100000
100180
100300
100600
100800
201000
202000
20C000
218000
230000
3C0000
7C0000
420000
410000
418000
408000
404000
806000
802000
801000
800800
800C00
ENDCHAR
STARTCHAR 04A0
ENCODING 1184
SWIDTH 771 0
DWIDTH 30 0
BBX 28 28 4 0
BITMAP
FFE00030
00200060
004000C0
00400180
00400300
00400600
00400C00
00C01800
00803000
00804000
00808000
00810000
00820000
019C0000
01FC0000
01060000
01020000
01010000
01018000
0200C000
02004000
02002000
02003000
02001800
02000800
04000400
04000200
04000300
ENDCHAR
STARTCHAR 04A1
ENCODING 1185
SWIDTH 591 0
DWIDTH 23 0
BBX 22 21 2 0
BITMAP
FF000C
010018
010030
010060
0100C0
010180
020300
020600
020C00
021800
03F000
021000
041800
040C00
040400
040200
040300
040180
080080
080040
080060
ENDCHAR
STARTCHAR 04A2
ENCODING 1186
SWIDTH 642 0
DWIDTH 25 0
BBX 24 35 2 -7
BITMAP
080001
080002
080002
080002
080002
080002
100002
100004
100004
100004
100004
100004
200004
3FFFF8
200008
200008
200008
200008
400018
400010
400010
400010
400010
800010
800020
800020
800030
800030
000010
000010
000020
000020
000020
000020
000020
ENDCHAR
STARTCHAR 04A3
ENCODING 1187
SWIDTH 514 0
DWIDTH 20 0
BBX 18 28 1 -7
BITMAP
080040
080040
100040
100040
100080
100080
100080
300080
200080
200180
3FFF00
200100
200100
600100
400100
400300
400200
400200
400200
800300
800300
000200
000200
000200
000200
000200
000200
000400
ENDCHAR
STARTCHAR 04A4
ENCODING 1188
SWIDTH 1002 0
DWIDTH 39 0
BBX 38 28 2 0
BITMAP
080003FFFC
0800020000
0800020000
0800020000
0800020000
1000020000
1000040000
1000040000
1000040000
1000040000
1000040000
2000040000
2000080000
3FFFF80000
2000080000
2000080000
2000080000
4000080000
4000100000
4000100000
4000100000
4000100000
4000100000
8000100000
8000200000
8000200000
8000200000
8000200000
ENDCHAR
STARTCHAR 04A5
ENCODING 1189
SWIDTH 694 0
DWIDTH 27 0
BBX 27 21 1 0
BITMAP
08007FE0
08007FE0
10004000
10004000
10008000
10008000
10008000
30008000
20008000
20018000
3FFF0000
20010000
20010000
60010000
40010000
40030000
40020000
40020000
40020000
80020000
80020000
ENDCHAR
STARTCHAR 04A6
ENCODING 1190
SWIDTH 977 0
DWIDTH 38 0
BBX 35 33 1 -5
BITMAP
07FFFF0000
0400010000
0400010000
0400010000
0800010000
0800020000
0800020000
0800020000
0800020000
0800020000
1000040000
1000040000
100007F800
1000040600
1000040180
3000040080
2000080040
2000080040
2000080020
2000080020
2000080020
6000080020
4000100020
4000100040
4000100040
4000100040
4000100080
8000100080
0000000100
0000000300
0000000600
0000001800
0000006000
ENDCHAR
STARTCHAR 04A7
ENCODING 1191
SWIDTH 797 0
DWIDTH 31 0
BBX 28 26 1 -5
BITMAP
0FFFC000
0FFFC000
10004000
10004000
10008000
10008000
10008000
30008000
20008000
2001F000
2001FF00
200100C0
20010060
60010020
40010010
40030010
40020010
40020010
40020030
80020020
80020020
00000040
000000C0
00000180
00000600
00001800
ENDCHAR
STARTCHAR 04A8
ENCODING 1192
SWIDTH 720 0
DWIDTH 28 0
BBX 25 28 2 0
BITMAP
00703800
0180C600
02030100
04020180
08040080
180C0080
10080080
20080080
20100080
20100080
60100080
40100080
40100080
40200080
40200100
40200100
40200100
C0200100
C0200200
40200200
40200600
40100400
40100800
20081800
300C3000
18064000
0C018000
07FE7C00
ENDCHAR
STARTCHAR 04A9
ENCODING 1193
SWIDTH 565 0
DWIDTH 22 0
BBX 18 21 2 0
BITMAP
030F00
0C1880
182040
106040
204040
60C040
408040
408040
C08040
818040
810040
810040
8100C0
810080
810080
808100
C08300
404200
602C00
301800
1FE780
ENDCHAR
STARTCHAR 04AA
ENCODING 1194
SWIDTH 617 0
DWIDTH 24 0
BBX 21 36 2 -8
BITMAP
003F80
00C0C0
030020
060010
040008
080008
180008
100008
300008
200000
200000
200000
400000
400000
400000
400000
400000
400000
800000
C00000
400020
400020
400040
4000C0
200080
300300
180600
07F800
008000
008000
008000
010000
010000
010000
010000
010000
ENDCHAR
STARTCHAR 04AB
ENCODING 1195
SWIDTH 488 0
DWIDTH 19 0
BBX 17 29 1 -8
BITMAP
00F800
030600
0C0200
180100
100100
200080
200080
400000
400000
400000
400000
C00000
800000
800000
800000
400200
400200
400400
200C00
301800
0FE000
010000
010000
020000
020000
020000
020000
020000
020000
ENDCHAR
STARTCHAR 04AC
ENCODING 1196
SWIDTH 565 0
DWIDTH 22 0
BBX 20 35 4 -7
BITMAP
FFFFF0
004000
004000
004000
004000
004000
004000
008000
008000
008000
008000
008000
018000
010000
010000
010000
010000
010000
020000
020000
020000
020000
020000
020000
040000
040000
060000
060000
020000
020000
040000
040000
040000
040000
040000
ENDCHAR
STARTCHAR 04AD
ENCODING 1197
SWIDTH 437 0
DWIDTH 17 0
BBX 17 28 2 -7
BITMAP
FFFF80
FFFF00
010000
010000
010000
010000
010000
030000
020000
020000
020000
020000
020000
060000
040000
040000
040000
040000
040000
0C0000
0C0000
040000
040000
040000
040000
080000
080000
080000
ENDCHAR
STARTCHAR 04AE
ENCODING 1198
SWIDTH 565 0
DWIDTH 22 0
BBX 22 28 3 0
BITMAP
C0000C
400008
600010
200020
200060
100040
100080
180100
080300
080600
040400
040800
021000
023000
022000
014000
018000
008000
010000
010000
010000
010000
010000
010000
020000
020000
020000
020000
ENDCHAR
STARTCHAR 04AF
ENCODING 1199
SWIDTH 462 0
DWIDTH 18 0
BBX 17 29 2 -8
BITMAP
800080
400100
400100
400200
400600
400400
200C00
200800
201000
201000
302000
102000
104000
10C000
108000
198000
090000
0A0000
0A0000
0C0000
0C0000
080000
080000
080000
080000
080000
080000
100000
100000
ENDCHAR
STARTCHAR 04B0
ENCODING 1200
SWIDTH 565 0
DWIDTH 22 0
BBX 22 28 3 0
BITMAP
C0000C
400008
600010
200020
200060
100040
100080
180100
080300
080600
040400
040800
021000
023000
022000
014000
1FFC00
008000
010000
010000
010000
010000
010000
010000
020000
020000
020000
020000
ENDCHAR
STARTCHAR 04B1
ENCODING 1201
SWIDTH 462 0
DWIDTH 18 0
BBX 17 29 2 -8
BITMAP
800080
400100
400100
400200
400600
400400
200C00
200800
201000
201000
302000
102000
104000
10C000
108000
198000
090000
0A0000
0A0000
0C0000
FFC000
080000
080000
080000
080000
080000
080000
100000
100000
ENDCHAR
STARTCHAR 04B2
ENCODING 1202
SWIDTH 591 0
DWIDTH 23 0
BBX 24 35 0 -7
BITMAP
080003
0C0006
040004
020008
020010
010020
010060
0080C0
008080
004100
004200
002400
002C00
001800
003800
002800
004400
008400
010200
030200
060100
040100
080080
100080
200040
600040
C00030
800030
000010
000020
000020
000020
000020
000020
000020
ENDCHAR
STARTCHAR 04B3
ENCODING 1203
SWIDTH 437 0
DWIDTH 17 0
BBX 18 28 0 -7
BITMAP
100040
180080
080100
0C0200
040600
020C00
020800
011000
012000
00C000
00C000
01C000
036000
022000
043000
081000
100800
300800
600400
C00500
800300
000200
000200
000200
000200
000200
000600
000400
ENDCHAR
STARTCHAR 04B4
ENCODING 1204
SWIDTH 797 0
DWIDTH 31 0
BBX 27 35 3 -7
BITMAP
FFFFC020
00800020
00800020
01000060
01000040
01000040
01000040
01000040
02000040
02000080
02000080
02000080
02000080
02000080
04000080
04000100
04000100
04000100
04000100
04000100
08000100
08000200
08000200
08000200
08000200
08000200
10000600
1FFFFF80
00000080
00000100
00000100
00000100
00000100
00000100
00000100
ENDCHAR
STARTCHAR 04B5
ENCODING 1205
SWIDTH 617 0
DWIDTH 24 0
BBX 20 27 2 -6
BITMAP
FFF810
020010
020010
020010
040010
040030
040020
040020
040020
040020
080020
080060
080040
080040
080040
100040
100040
100080
100080
100080
1FFFE0
000040
000040
000040
000040
000040
000040
ENDCHAR
STARTCHAR 04B6
ENCODING 1206
SWIDTH 591 0
DWIDTH 23 0
BBX 19 35 5 -7
BITMAP
400020
400040
400040
400040
400040
C00040
800040
800080
800080
800080
800080
C00080
400080
300100
1FFF00
018100
000100
000100
000200
000200
000200
000200
000200
000200
000400
000400
000600
000600
000200
000200
000400
000400
000400
000400
000400
ENDCHAR
STARTCHAR 04B7
ENCODING 1207
SWIDTH 488 0
DWIDTH 19 0
BBX 15 28 3 -7
BITMAP
4002
4002
8002
8006
8004
8004
8004
8004
8004
800C
4008
39F8
0E08
0008
0008
0018
0010
0010
0010
0018
0018
0010
0010
0010
0010
0010
0010
0020
ENDCHAR
STARTCHAR 04B8
ENCODING 1208
SWIDTH 617 0
DWIDTH 24 0
BBX 19 28 5 0
BITMAP
400020
400040
400040
400040
400040
C00040
800040
804080
80C080
808080
808080
C08080
408080
308100
1FFF00
018100
010100
010100
010200
010200
000200
000200
000200
000200
000400
000400
000400
000400
ENDCHAR
STARTCHAR 04B9
ENCODING 1209
SWIDTH 514 0
DWIDTH 20 0
BBX 15 21 4 0
BITMAP
4002
4002
8002
8002
8004
8004
8104
8104
8104
810C
4108
3BF8
0608
0208
0208
0218
0010
0010
0010
0010
0010
ENDCHAR
STARTCHAR 04BA
ENCODING 1210
SWIDTH 617 0
DWIDTH 24 0
BBX 18 28 2 0
BITMAP
080000
080000
080000
080000
080000
100000
100000
100000
100000
100000
100000
200000
200000
27FC00
380300
200080
2000C0
400040
400040
400040
400040
400040
400040
800040
800080
800080
800080
800080
ENDCHAR
STARTCHAR 04BB
ENCODING 1211
SWIDTH 514 0
DWIDTH 20 0
BBX 17 29 1 0
BITMAP
040000
040000
040000
040000
080000
080000
080000
080000
087C00
098300
130100
140080
180080
180080
100080
100080
200080
200080
200100
200100
200100
600100
400100
400100
400200
400200
400200
800200
800200
ENDCHAR
STARTCHAR 04BC
ENCODING 1212
SWIDTH 694 0
DWIDTH 27 0
BBX 24 28 2 0
BITMAP
0007E0
001818
002004
00C002
008003
010001
020001
020001
840001
840001
840001
C40001
7FFFFF
0FFFFF
080000
080000
080000
080000
100000
100000
100000
080000
080000
080000
040000
060018
030070
00FFC0
ENDCHAR
STARTCHAR 04BD
ENCODING 1213
SWIDTH 565 0
DWIDTH 22 0
BBX 19 21 1 0
BITMAP
003F00
00E180
018040
030060
060020
840020
880020
880020
780020
3FFFE0
100000
100000
100000
100000
100000
100000
100000
080000
0C0180
060300
03FC00
ENDCHAR
STARTCHAR 04BE
ENCODING 1214
SWIDTH 694 0
DWIDTH 27 0
BBX 24 37 2 -9
BITMAP
0007E0
001818
002004
00C002
008003
010001
020001
020001
840001
840001
840001
C40001
7FFFFF
0FFFFF
080000
080000
080000
080000
100000
100000
100000
080000
080000
080000
040000
060018
030070
00FFC0
000800
000800
001000
001000
001000
001000
001000
001000
002000
ENDCHAR
STARTCHAR 04BF
ENCODING 1215
SWIDTH 565 0
DWIDTH 22 0
BBX 19 29 1 -8
BITMAP
003F00
00E180
018040
030060
060020
840020
880020
880020
780020
3FFFE0
100000
100000
100000
100000
100000
100000
100000
080000
0C0180
060300
03FC00
004000
004000
004000
004000
008000
008000
008000
008000
ENDCHAR
STARTCHAR 04C0
ENCODING 1216
SWIDTH 231 0
DWIDTH 9 0
BBX 5 28 3 0
BITMAP
08
08
08
08
18
10
10
10
10
10
20
20
20
20
20
20
40
40
40
40
40
40
80
80
80
80
80
80
ENDCHAR
STARTCHAR 04C1
ENCODING 1217
SWIDTH 822 0
DWIDTH 32 0
BBX 35 34 -1 0
BITMAP
0000804000
0000808000
0000C18000
00007E0000
0000000000
0000000000
0400100060
06001000C0
0200100180
0100100300
0100100200
0080200400
00C0200800
0040201000
0020202000
0020204000
0010208000
0018418000
0008430000
000FFE0000
000C440000
0018420000
0030C30000
0060810000
00C0808000
0180808000
0300804000
0200806000
0401802000
0801001000
1001001800
2001000800
4001000C00
8001000400
ENDCHAR
STARTCHAR 04C2
ENCODING 1218
SWIDTH 745 0
DWIDTH 29 0
BBX 30 28 -1 0
BITMAP
00040200
00040200
00040400
00031800
0001E000
00000000
00000000
0800800C
04008018
02008030
02008060
010080C0
00808180
00810300
00410600
00210C00
00211800
001FF000
00231000
00420800
00820C00
03020600
06020200
0C020100
18060180
30040080
60040040
80040020
ENDCHAR
STARTCHAR 04C3
ENCODING 1219
SWIDTH 565 0
DWIDTH 22 0
BBX 21 34 2 -6
BITMAP
080008
080010
080020
080040
080080
180100
100200
100400
100800
101000
102000
304000
208000
3FF000
200E00
200300
200180
4000C0
400040
400040
400040
400040
400040
800040
800040
800040
8000C0
800080
000180
000100
000200
000400
001800
00E000
ENDCHAR
STARTCHAR 04C4
ENCODING 1220
SWIDTH 488 0
DWIDTH 19 0
BBX 18 26 1 -5
BITMAP
0800C0
180180
100300
100600
100C00
101800
103000
304000
208000
210000
3FE000
203800
200C00
600400
400200
400200
400200
400200
400200
800200
800600
000400
000800
001000
006000
01C000
ENDCHAR
STARTCHAR 04C5
ENCODING 1221
SWIDTH 642 0
DWIDTH 25 0
BBX 26 33 -1 -5
BITMAP
001FFFC0
00100040
00100040
00100040
00100040
00200040
00200080
00200080
00200080
00400080
00400080
00400080
00400100
00800100
00800100
00800100
00800100
00800100
01000200
01000200
01000200
02000200
02000200
06000200
04000400
08000600
30000600
E0000600
00000200
00000400
00000400
00000800
00001800
ENDCHAR
STARTCHAR 04C6
ENCODING 1222
SWIDTH 514 0
DWIDTH 20 0
BBX 20 26 -1 -5
BITMAP
007FF0
00FFF0
008010
008010
008020
018020
010020
010020
010020
010060
020040
020040
020040
020040
060040
0400C0
040080
080080
0800C0
3000C0
E000C0
000080
000080
000080
000100
000200
ENDCHAR
STARTCHAR 04C7
ENCODING 1223
SWIDTH 668 0
DWIDTH 26 0
BBX 23 36 2 -8
BITMAP
080002
080002
080002
080002
080002
100002
100004
100004
100004
100004
100004
200004
200008
200008
3FFFF8
200008
200008
400008
400010
400010
400010
400010
400010
800030
800020
800020
800020
800020
000020
000060
000040
000040
0000C0
000080
000100
003E00
ENDCHAR
STARTCHAR 04C8
ENCODING 1224
SWIDTH 514 0
DWIDTH 20 0
BBX 18 29 1 -8
BITMAP
080040
080040
100040
100040
100080
100080
100080
300080
200080
200180
3FFF00
200100
200100
600100
400100
400300
400200
400200
400200
800200
800200
000400
000400
000400
000400
000800
000800
003000
03E000
ENDCHAR
STARTCHAR 04C9
ENCODING 1225
SWIDTH 642 0
DWIDTH 25 0
BBX 24 33 2 -5
BITMAP
080001
080002
080002
080002
080002
080002
100002
100004
100004
100004
100004
100004
200004
3FFFF8
200008
200008
200008
200008
400018
400010
400010
400010
400010
800010
800020
800030
800030
800030
000010
000020
000020
000060
0000C0
ENDCHAR
STARTCHAR 04CA
ENCODING 1226
SWIDTH 514 0
DWIDTH 20 0
BBX 18 26 1 -5
BITMAP
080040
080040
100040
100040
100080
100080
100080
300080
200080
200180
3FFF00
200100
200100
600100
400100
400300
400200
400200
400300
800300
800300
000200
000200
000200
000400
000800
ENDCHAR
STARTCHAR 04CB
ENCODING 1227
SWIDTH 617 0
DWIDTH 24 0
BBX 19 35 5 -7
BITMAP
400020
400040
400040
400040
400040
C00040
800040
800080
800080
800080
800080
C00080
400080
300100
1FFF00
018100
000100
000100
000200
000200
000200
000200
000200
000200
000400
000400
000C00
000C00
000800
000800
001000
001000
001000
001000
001000
ENDCHAR
STARTCHAR 04CC
ENCODING 1228
SWIDTH 488 0
DWIDTH 19 0
BBX 15 28 3 -7
BITMAP
4002
4002
8002
8006
8004
8004
8004
8004
8004
800C
4008
39F8
0E08
0008
0008
0018
0010
0010
0010
0030
0030
0060
0040
0040
0040
0040
0040
0080
ENDCHAR
STARTCHAR 04CD
ENCODING 1229
SWIDTH 797 0
DWIDTH 31 0
BBX 29 33 2 -5
BITMAP
0C000008
0C000018
0C000018
0A000028
0A000028
0A000048
12000090
11000090
11000110
11000110
11000210
10800610
20800420
20800820
20800820
20401020
20403020
20402060
40404040
40204040
40208040
40218040
40210040
801200C0
80120080
801400C0
801C00C0
800800C0
00000040
00000080
00000080
00000100
00000300
ENDCHAR
STARTCHAR 04CE
ENCODING 1230
SWIDTH 668 0
DWIDTH 26 0
BBX 25 26 1 -5
BITMAP
08000180
0C000100
0C000300
14000700
14000500
12000900
12001900
12001200
31002200
21006200
21004200
20808200
20808600
20810400
60C20400
40420400
40440400
404C0400
40280C00
40300C00
80300C00
00000400
00000400
00000800
00001800
00001000
ENDCHAR
STARTCHAR 04CF
ENCODING 1231
SWIDTH 231 0
DWIDTH 9 0
BBX 5 28 3 0
BITMAP
08
08
08
08
18
10
10
10
10
10
20
20
20
20
20
20
40
40
40
40
40
40
80
80
80
80
80
80
ENDCHAR
STARTCHAR 04D0
ENCODING 1232
SWIDTH 565 0
DWIDTH 22 0
BBX 21 34 -1 0
BITMAP
001008
001018
000830
0007E0
000000
000000
000300
000300
000500
000500
000900
000880
001080
001080
002080
002080
004040
00C040
008040
018040
010040
020060
020020
040020
040020
0FFFE0
080030
100010
100010
200010
600010
400010
C00008
800008
ENDCHAR
STARTCHAR 04D1
ENCODING 1233
SWIDTH 488 0
DWIDTH 19 0
BBX 17 28 1 0
BITMAP
010080
010080
008100
007E00
000000
000000
000000
01F800
070E00
080200
100100
300100
200100
000100
000100
000100
000100
0FFF00
380200
600200
C00200
800200
800200
800400
800C00
801400
C06400
3F8400
ENDCHAR
STARTCHAR 04D2
ENCODING 1234
SWIDTH 565 0
DWIDTH 22 0
BBX 21 34 -1 0
BITMAP
001818
001818
000000
000000
000000
000000
000300
000300
000500
000500
000900
000880
001080
001080
002080
002080
004040
00C040
008040
018040
010040
020060
020020
040020
040020
0FFFE0
080030
100010
100010
200010
600010
400010
C00008
800008
ENDCHAR
STARTCHAR 04D3
ENCODING 1235
SWIDTH 488 0
DWIDTH 19 0
BBX 17 28 1 0
BITMAP
018080
018180
000000
000000
000000
000000
000000
01F800
070E00
080200
100100
300100
200100
000100
000100
000100
000100
0FFF00
380200
600200
C00200
800200
800200
800400
800C00
801400
C06400
3F8400
ENDCHAR
STARTCHAR 04D4
ENCODING 1236
SWIDTH 848 0
DWIDTH 33 0
BBX 35 28 -1 0
BITMAP
000007FFE0
00000C0000
00001C0000
0000140000
0000240000
0000440000
0000C40000
0001880000
0001080000
0002080000
0004080000
000C080000
0008080000
00100FFE00
0020080000
0060100000
0040100000
0080100000
0100100000
03FFF00000
0200100000
0400100000
0800300000
1800200000
1000200000
2000200000
4000200000
C0003FFF00
ENDCHAR
STARTCHAR 04D5
ENCODING 1237
SWIDTH 797 0
DWIDTH 31 0
BBX 30 21 1 0
BITMAP
01F807C0
070C1830
08022018
10024008
30028004
20038004
00030004
00030004
00020004
07FFFFFC
1C020000
30020000
40060000
C0060000
80060000
80060000
80060000
800A0000
80190020
406080C0
3FC07F80
ENDCHAR
STARTCHAR 04D6
ENCODING 1238
SWIDTH 540 0
DWIDTH 21 0
BBX 21 34 2 0
BITMAP
008040
008040
004180
003F00
000000
000000
0FFFF8
080000
080000
080000
080000
080000
100000
100000
100000
100000
100000
100000
200000
3FFF80
200000
200000
200000
200000
400000
400000
400000
400000
400000
800000
800000
800000
800000
FFFF00
ENDCHAR
STARTCHAR 04D7
ENCODING 1239
SWIDTH 488 0
DWIDTH 19 0
BBX 17 28 1 0
BITMAP
010080
010180
018300
00FE00
000000
000000
000000
00F800
030C00
0C0200
080100
100100
200080
200080
400080
400080
7FFF80
800000
800000
800000
800000
800000
400000
400000
400000
200400
101800
0FF000
ENDCHAR
STARTCHAR 04D8
ENCODING 1240
SWIDTH 668 0
DWIDTH 26 0
BBX 22 28 3 0
BITMAP
007F80
0380E0
060030
080018
000008
000004
000004
000004
000004
000004
000004
000004
000004
000004
FFFFFC
FFFFFC
800008
800008
800008
800010
800010
800020
800020
400040
400080
200100
180600
07F800
ENDCHAR
STARTCHAR 04D9
ENCODING 1241
SWIDTH 488 0
DWIDTH 19 0
BBX 17 21 1 0
BITMAP
01F000
0E0C00
100600
000200
000100
000100
000100
000080
000080
000080
000100
FFFF00
800100
800100
800200
800200
800400
C00C00
401800
203000
1FC000
ENDCHAR
STARTCHAR 04DA
ENCODING 1242
SWIDTH 668 0
DWIDTH 26 0
BBX 22 33 3 0
BITMAP
00C040
00C0C0
000000
000000
000000
007F80
0380E0
060030
080018
000008
000004
000004
000004
000004
000004
000004
000004
000004
000004
FFFFFC
FFFFFC
800008
800008
800008
800010
800010
800020
800020
400040
400080
200100
180600
07F800
ENDCHAR
STARTCHAR 04DB
ENCODING 1243
SWIDTH 488 0
DWIDTH 19 0
BBX 17 28 1 0
BITMAP
018180
018180
000000
000000
000000
000000
000000
01F000
0E0C00
100600
000200
000100
000100
000100
000080
000080
000080
000100
FFFF00
800100
800100
800200
800200
800400
C00C00
401800
203000
1FC000
ENDCHAR
STARTCHAR 04DC
ENCODING 1244
SWIDTH 822 0
DWIDTH 32 0
BBX 35 34 -1 0
BITMAP
0000C0C000
000080C000
0000000000
0000000000
0000000000
0000000000
0400100060
06001000C0
0200100180
0100100300
0100100200
0080200400
00C0200800
0040201000
0020202000
0020204000
0010208000
0018418000
0008430000
000FFE0000
000C440000
0018420000
0030C30000
0060810000
00C0808000
0180808000
0300804000
0200806000
0401802000
0801001000
1001001800
2001000800
4001000C00
8001000400
ENDCHAR
STARTCHAR 04DD
ENCODING 1245
SWIDTH 745 0
DWIDTH 29 0
BBX 30 28 -1 0
BITMAP
00000200
00060600
00000000
00000000
00000000
00000000
00000000
0800800C
04008018
02008030
02008060
010080C0
00808180
00810300
00410600
00210C00
00211800
001FF000
00231000
00420800
00820C00
03020600
06020200
0C020100
18060180
30040080
60040040
80040020
ENDCHAR
STARTCHAR 04DE
ENCODING 1246
SWIDTH 565 0
DWIDTH 22 0
BBX 21 34 1 1
BITMAP
006060
000020
000000
000000
000000
000000
007F00
01C0C0
030030
040010
080008
180008
100008
100008
000018
000010
000030
000060
000180
01FE00
001F00
000080
000040
000020
000020
000020
800020
800020
800040
800040
400080
600100
300600
0FF800
ENDCHAR
STARTCHAR 04DF
ENCODING 1247
SWIDTH 488 0
DWIDTH 19 0
BBX 16 28 1 0
BITMAP
0303
0303
0000
0000
0000
0000
0000
01F8
070E
0803
1001
3001
2001
0001
0001
0002
000C
03F0
001C
0004
0002
0002
8002
8002
8004
400C
6018
1FE0
ENDCHAR
STARTCHAR 04E0
ENCODING 1248
SWIDTH 540 0
DWIDTH 21 0
BBX 20 28 1 0
BITMAP
0FFFF0
000010
000020
000040
000080
000100
000200
000400
000800
001000
002000
004000
00F000
000E00
000300
000100
000080
000080
000080
000080
400080
C00080
400100
400100
400200
200600
300800
0FF000
ENDCHAR
STARTCHAR 04E1
ENCODING 1249
SWIDTH 540 0
DWIDTH 21 0
BBX 20 29 0 -8
BITMAP
0FFFF0
0FFFF0
000020
000040
000080
000100
000200
000400
000800
001000
002000
004000
00C000
001C00
000200
000100
000100
000080
000080
000080
800080
800100
800100
C00100
400200
600400
301800
1FF000
010000
ENDCHAR
STARTCHAR 04E2
ENCODING 1250
SWIDTH 668 0
DWIDTH 26 0
BBX 24 34 2 0
BITMAP
003FF8
000000
000000
000000
000000
000000
080001
080003
080006
08000A
08001A
080032
100022
100042
100084
100104
100304
100604
200404
200804
201008
202008
204008
20C008
418008
410008
420010
440010
480010
980010
B00010
A00030
C00020
800020
ENDCHAR
STARTCHAR 04E3
ENCODING 1251
SWIDTH 514 0
DWIDTH 20 0
BBX 18 27 1 0
BITMAP
01FF80
000000
000000
000000
000000
000000
080040
0800C0
1001C0
100340
100280
100480
100880
101880
203080
206080
204100
208100
210100
430100
460100
4C0300
480200
500200
600200
E00200
C00200
ENDCHAR
STARTCHAR 04E4
ENCODING 1252
SWIDTH 668 0
DWIDTH 26 0
BBX 24 34 2 0
BITMAP
003010
003030
000000
000000
000000
000000
080001
080003
080006
08000A
08001A
080032
100022
100042
100084
100104
100304
100604
200404
200804
201008
202008
204008
20C008
418008
410008
420010
440010
480010
980010
B00010
A00030
C00020
800020
ENDCHAR
STARTCHAR 04E5
ENCODING 1253
SWIDTH 514 0
DWIDTH 20 0
BBX 18 28 1 0
BITMAP
010000
018180
010000
000000
000000
000000
000000
080040
0800C0
1001C0
100340
100280
100480
100880
101880
203080
206080
204100
208100
210100
430100
460100
4C0300
480200
500200
600200
E00200
C00200
ENDCHAR
STARTCHAR 04E6
ENCODING 1254
SWIDTH 642 0
DWIDTH 25 0
BBX 22 35 2 0
BITMAP
000020
006060
000020
000000
000000
000000
000000
003F80
00C0C0
030020
060010
0C0008
080008
100008
100004
200004
200004
200004
400004
400008
400008
400008
400008
C00008
800018
800010
800010
800020
400020
400040
4000C0
200080
300300
180600
07F800
ENDCHAR
STARTCHAR 04E7
ENCODING 1255
SWIDTH 514 0
DWIDTH 20 0
BBX 18 28 1 0
BITMAP
018180
018180
000000
000000
000000
000000
000000
00F800
030600
040100
080080
100080
200040
200040
400040
400040
400040
C00040
800040
8000C0
800080
800080
400100
400100
400200
200400
101800
0FF000
ENDCHAR
STARTCHAR 04E8
ENCODING 1256
SWIDTH 642 0
DWIDTH 25 0
BBX 22 28 2 0
BITMAP
003F00
00C0C0
030020
060010
0C0008
080008
100008
100004
200004
200004
200004
400004
400008
400008
7FFFF8
400008
C00008
800018
800010
800010
800020
400020
400040
4000C0
200080
300300
180600
07F800
ENDCHAR
STARTCHAR 04E9
ENCODING 1257
SWIDTH 540 0
DWIDTH 21 0
BBX 18 21 1 0
BITMAP
00FC00
030600
040100
080080
100080
300040
200040
400040
400040
400040
FFFFC0
800040
800080
800080
800080
800100
400300
400200
200400
301800
0FE000
ENDCHAR
STARTCHAR 04EA
ENCODING 1258
SWIDTH 642 0
DWIDTH 25 0
BBX 22 34 2 0
BITMAP
003030
003030
000000
000000
000000
000000
003F00
00C0C0
030020
060010
0C0008
080008
100008
100004
200004
200004
200004
400004
400008
400008
7FFFF8
400008
C00008
800018
800010
800010
800020
400020
400040
4000C0
200080
300300
180600
07F800
ENDCHAR
STARTCHAR 04EB
ENCODING 1259
SWIDTH 540 0
DWIDTH 21 0
BBX 18 28 1 1
BITMAP
018180
000000
000000
000000
000000
000000
000000
00FC00
030600
040100
080080
100080
300040
200040
400040
400040
400040
FFFFC0
800040
800080
800080
800080
800100
400300
400200
200400
301800
0FE000
ENDCHAR
STARTCHAR 04EC
ENCODING 1260
SWIDTH 617 0
DWIDTH 24 0
BBX 21 34 2 1
BITMAP
006030
002020
000000
000000
000000
000000
007F00
01C0C0
020060
040020
080010
100010
100010
200008
200008
000008
000008
000008
000018
01FFF0
01FFF0
000010
000010
000010
000020
000020
800060
800040
8000C0
800080
400100
600200
300C00
0FF000
ENDCHAR
STARTCHAR 04ED
ENCODING 1261
SWIDTH 514 0
DWIDTH 20 0
BBX 17 28 1 0
BITMAP
018180
018180
000000
000000
000000
000000
000000
01F800
070C00
0C0200
100100
100100
200080
200080
000080
000080
000080
07FF80
000100
000100
000100
800300
800200
C00600
400400
400800
203000
1FC000
ENDCHAR
STARTCHAR 04EE
ENCODING 1262
SWIDTH 591 0
DWIDTH 23 0
BBX 23 34 2 0
BITMAP
00FFE0
000000
000000
000000
000000
000000
600002
200006
200004
100008
100008
180010
080030
080020
040040
0400C0
040080
020100
020300
030200
010400
010C00
008800
009000
00B000
006000
004000
00C000
008000
010000
030000
060000
0C0000
F00000
ENDCHAR
STARTCHAR 04EF
ENCODING 1263
SWIDTH 462 0
DWIDTH 18 0
BBX 21 35 -2 -8
BITMAP
007FE0
000000
000000
000000
000000
000000
080008
040010
040010
040020
040020
060040
020040
020080
020180
020100
010300
010200
010400
010400
018800
008800
009000
009000
00A000
006000
004000
00C000
008000
018000
010000
020000
060000
0C0000
F80000
ENDCHAR
STARTCHAR 04F0
ENCODING 1264
SWIDTH 591 0
DWIDTH 23 0
BBX 23 34 2 0
BITMAP
006060
00C060
000000
000000
000000
000000
600002
200006
200004
100008
100008
180010
080030
080020
040040
0400C0
040080
020100
020300
030200
010400
010C00
008800
009000
00B000
006000
004000
00C000
008000
010000
030000
060000
0C0000
F00000
ENDCHAR
STARTCHAR 04F1
ENCODING 1265
SWIDTH 462 0
DWIDTH 18 0
BBX 21 36 -2 -8
BITMAP
006020
006060
000000
000000
000000
000000
000000
080008
040010
040010
040020
040020
060040
020040
020080
020180
020100
010300
010200
010400
010400
018800
008800
009000
009000
00A000
006000
004000
00C000
008000
018000
010000
020000
060000
0C0000
F80000
ENDCHAR
STARTCHAR 04F2
ENCODING 1266
SWIDTH 591 0
DWIDTH 23 0
BBX 23 35 2 0
BITMAP
000318
000630
000C60
0018C0
001180
002200
000000
600002
200006
200004
100008
100008
180010
080030
080020
040040
0400C0
040080
020100
020300
030200
010400
010C00
008800
009000
00B000
006000
004000
00C000
008000
010000
030000
060000
0C0000
F00000
ENDCHAR
STARTCHAR 04F3
ENCODING 1267
SWIDTH 462 0
DWIDTH 18 0
BBX 22 37 -2 -8
BITMAP
00018C
000318
000620
000C40
001880
003100
000000
000000
080008
040010
040010
040020
040020
060040
020040
020080
020180
020100
010300
010200
010400
010400
018800
008800
009000
009000
00A000
006000
004000
00C000
008000
018000
010000
020000
060000
0C0000
F80000
ENDCHAR
STARTCHAR 04F4
ENCODING 1268
SWIDTH 617 0
DWIDTH 24 0
BBX 19 34 5 0
BITMAP
030100
030300
000000
000000
000000
000000
400020
400040
400040
400040
400040
C00040
800040
800080
800080
800080
800080
C00080
400080
300100
1FFF00
018100
000100
000100
000200
000200
000200
000200
000200
000200
000400
000400
000400
000400
ENDCHAR
STARTCHAR 04F5
ENCODING 1269
SWIDTH 488 0
DWIDTH 19 0
BBX 15 27 3 1
BITMAP
0C0C
0800
0000
0000
0000
0000
4002
4002
8002
8006
8004
8004
8004
8004
8004
800C
4008
39F8
0E08
0008
0008
0018
0010
0010
0010
0010
0010
ENDCHAR
STARTCHAR 04F6
ENCODING 1270
SWIDTH 514 0
DWIDTH 20 0
BBX 21 35 1 -7
BITMAP
07FFF8
040000
040000
040000
040000
0C0000
080000
080000
080000
080000
080000
100000
100000
100000
100000
100000
100000
200000
200000
200000
200000
200000
200000
400000
400000
400000
600000
600000
600000
400000
400000
400000
400000
400000
C00000
ENDCHAR
STARTCHAR 04F7
ENCODING 1271
SWIDTH 385 0
DWIDTH 15 0
BBX 16 28 1 -7
BITMAP
0FFF
0FFF
1000
1000
1000
1000
1000
1000
2000
2000
2000
2000
2000
6000
4000
4000
4000
4000
4000
C000
C000
4000
4000
4000
4000
8000
8000
8000
ENDCHAR
STARTCHAR 04F8
ENCODING 1272
SWIDTH 771 0
DWIDTH 30 0
BBX 27 34 2 0
BITMAP
00060600
00060600
00000000
00000000
00000000
00000000
08000020
08000020
08000020
08000020
08000020
10000020
10000040
10000040
10000040
10000040
10000040
20000040
20000080
3FF80080
20060080
20010080
20008080
40008100
40008100
40008100
40008100
40008100
40008100
80010200
80030200
80060200
80180200
FFE00200
ENDCHAR
STARTCHAR 04F9
ENCODING 1273
SWIDTH 694 0
DWIDTH 27 0
BBX 25 28 1 0
BITMAP
00080800
00180C00
00000000
00000000
00000000
00000000
00000000
08000080
08000080
08000100
10000100
10000100
10000100
10000100
10000100
1FF00200
201C0200
20020200
20030200
20010200
20010200
60010400
40010400
40020400
40020400
400C0400
40380C00
FFE00800
ENDCHAR
STARTCHAR 04FA
ENCODING 1274
SWIDTH 514 0
DWIDTH 20 0
BBX 27 36 -5 -8
BITMAP
001FFFE0
00100000
00100000
00100000
00100000
00300000
00200000
00200000
00200000
00200000
00200000
00400000
03FF0000
00400000
00400000
00400000
00400000
00800000
00800000
00800000
00800000
00800000
00800000
01000000
01000000
01000000
01800000
01000000
01000000
01000000
01000000
03000000
02000000
06000000
0C000000
F8000000
ENDCHAR
STARTCHAR 04FB
ENCODING 1275
SWIDTH 411 0
DWIDTH 16 0
BBX 22 29 -5 -8
BITMAP
003FFC
003FFC
004000
004000
004000
004000
004000
004000
008000
07FF00
008000
008000
008000
018000
010000
010000
010000
010000
010000
030000
030000
010000
010000
010000
020000
020000
040000
0C0000
F80000
ENDCHAR
STARTCHAR 04FC
ENCODING 1276
SWIDTH 591 0
DWIDTH 23 0
BBX 24 36 0 -8
BITMAP
080003
0C0006
040004
020008
020010
010020
010060
0080C0
008080
004100
004200
002400
002C00
001800
003800
002800
004400
008400
010200
030200
060100
040100
080080
100080
200040
600040
C00030
800030
000010
000020
000020
000020
000060
000040
000080
001F00
ENDCHAR
STARTCHAR 04FD
ENCODING 1277
SWIDTH 437 0
DWIDTH 17 0
BBX 18 29 0 -8
BITMAP
100040
180080
080100
0C0200
040600
020C00
020800
011000
012000
00C000
00C000
01C000
036000
022000
043000
081000
100800
300800
600400
C00500
800300
000200
000200
000200
000200
000400
000C00
001800
01F000
ENDCHAR
STARTCHAR 04FE
ENCODING 1278
SWIDTH 565 0
DWIDTH 22 0
BBX 24 28 0 0
BITMAP
080003
0C0006
040004
020008
020010
010020
010060
0080C0
008080
004100
004200
002400
002C00
03FF80
003800
002800
004400
008400
010200
030200
060100
040100
080080
100080
200040
600040
C00020
800030
ENDCHAR
STARTCHAR 04FF
ENCODING 1279
SWIDTH 462 0
DWIDTH 18 0
BBX 18 21 0 0
BITMAP
100040
180080
080100
0C0200
040600
020C00
020800
011000
012000
00C000
0FFC00
01C000
036000
022000
043000
081000
100800
300800
600400
C00400
800200
ENDCHAR
STARTCHAR 0500
ENCODING 1280
SWIDTH 488 0
DWIDTH 19 0
BBX 20 28 0 0
BITMAP
000010
000010
000010
000010
000010
000010
000020
000020
000020
000020
000020
000060
000040
03FFC0
0C0040
180040
200040
6000C0
400080
400080
C00080
800080
800080
400100
400100
200100
180100
07FF00
ENDCHAR
STARTCHAR 0501
ENCODING 1281
SWIDTH 514 0
DWIDTH 20 0
BBX 19 29 2 0
BITMAP
000060
000040
000040
000040
000040
000040
000080
000080
01F080
061C80
080680
100280
200100
200100
400100
400100
400100
800100
800200
800200
800200
800200
800200
800600
800400
800C00
401C00
602400
1FC400
ENDCHAR
STARTCHAR 0502
ENCODING 1282
SWIDTH 694 0
DWIDTH 27 0
BBX 26 28 0 0
BITMAP
00001000
00001000
00001000
00001000
00001000
00001000
00002000
00002000
00002000
00002000
00002000
00006000
00004000
03FFC000
0C004040
18004040
20004040
6000C040
40008040
40008040
C0008040
80008040
80008040
40010080
40010180
20010100
18010600
07FFF800
ENDCHAR
STARTCHAR 0503
ENCODING 1283
SWIDTH 822 0
DWIDTH 32 0
BBX 27 30 2 0
BITMAP
00002000
00004000
00004000
00004000
00004000
00004000
00004000
00008000
00008000
01F08000
061C8000
08068000
10038020
30010020
20010020
40010020
40010020
40010020
80030020
80020020
80020020
80020060
80020040
80020040
800600C0
80040080
800A0100
401A0300
60220600
3FC1F800
ENDCHAR
STARTCHAR 0504
ENCODING 1284
SWIDTH 745 0
DWIDTH 29 0
BBX 23 28 4 0
BITMAP
FF0000
01F000
001800
000400
000400
000400
000400
000400
000400
000800
000802
001002
006002
7FC002
070002
008002
004002
004002
004002
004004
004004
004004
004008
004018
004010
004020
0020C0
003F80
ENDCHAR
STARTCHAR 0505
ENCODING 1285
SWIDTH 617 0
DWIDTH 24 0
BBX 20 21 2 0
BITMAP
FC0000
038000
006000
002000
001000
001000
002000
002010
006010
008010
FF0010
070010
008010
00C010
004010
004020
008020
008040
0080C0
00C180
007E00
ENDCHAR
STARTCHAR 0506
ENCODING 1286
SWIDTH 514 0
DWIDTH 20 0
BBX 13 34 5 -6
BITMAP
FE00
03C0
0020
0010
0018
0008
0008
0008
0008
0010
0010
0020
00C0
0380
FC00
0300
00C0
0040
0040
0020
0060
0040
0040
0040
0040
0040
0060
0060
0020
0040
0040
00C0
0080
0100
ENDCHAR
STARTCHAR 0507
ENCODING 1287
SWIDTH 462 0
DWIDTH 18 0
BBX 13 26 3 -5
BITMAP
7F00
FFE0
0010
0018
0008
0008
0008
0010
0010
0060
07C0
FF80
0040
0020
0020
0020
0020
0020
0020
0060
0060
0020
0020
0040
0040
0080
ENDCHAR
STARTCHAR 0508
ENCODING 1288
SWIDTH 925 0
DWIDTH 36 0
BBX 35 28 -1 0
BITMAP
000FFFC000
0008004000
0008004000
001000C000
0010008000
0010008000
0010008000
0020008000
0020008000
0020010000
0020010020
0040010020
0040010020
0040010020
0040010020
0040020020
0080020020
0080020020
0080020060
0080020040
0100020040
0100040040
0300040080
0200040080
0600040100
0C00060200
1800020400
E00001F800
ENDCHAR
STARTCHAR 0509
ENCODING 1289
SWIDTH 771 0
DWIDTH 30 0
BBX 29 21 -1 0
BITMAP
00FFF000
00FFE000
00802000
00802000
00802000
01002010
01004010
01004010
01004008
01004008
02004018
02004010
02008010
02008010
04008010
04008020
04008020
08008040
180080C0
3000C180
E0007E00
ENDCHAR
STARTCHAR 050A
ENCODING 1290
SWIDTH 900 0
DWIDTH 35 0
BBX 30 28 2 0
BITMAP
04000800
08000800
08000800
08000800
08000800
08000800
08001000
10001000
10001000
10001000
10001004
10001004
10002004
20002004
3FFFE004
20002004
20002004
20002004
20004004
40004004
40004008
40004008
40004008
40004010
40004030
80004060
800060C0
80003F80
ENDCHAR
STARTCHAR 050B
ENCODING 1291
SWIDTH 797 0
DWIDTH 31 0
BBX 27 21 1 0
BITMAP
1000C000
10008000
10008000
10008000
10008000
10008040
20010040
20010040
20010060
20010020
3FFF0060
20010040
40020040
40020040
40020040
40020080
40020080
40020100
80020300
80030600
8001F800
ENDCHAR
STARTCHAR 050C
ENCODING 1292
SWIDTH 591 0
DWIDTH 23 0
BBX 18 28 3 0
BITMAP
007F80
01C0C0
020000
040000
080000
100000
300000
200000
200000
400000
400000
400000
400000
800040
800040
800040
800040
800040
800040
800040
800040
800080
800080
C00100
400300
200600
300C00
0FF000
ENDCHAR
STARTCHAR 050D
ENCODING 1293
SWIDTH 488 0
DWIDTH 19 0
BBX 15 21 2 0
BITMAP
01F8
0706
0C00
1800
1000
2000
2000
4000
4000
C000
8000
8002
8002
8002
8002
8002
4004
4004
6008
3010
1FE0
ENDCHAR
STARTCHAR 050E
ENCODING 1294
SWIDTH 668 0
DWIDTH 26 0
BBX 22 28 3 0
BITMAP
FFFFFC
002000
002000
002000
002000
002000
006000
004000
004000
004000
004010
004010
008010
008010
008010
008010
008010
008010
010010
010010
010030
010020
010020
010040
0100C0
010180
018300
00FE00
ENDCHAR
STARTCHAR 050F
ENCODING 1295
SWIDTH 591 0
DWIDTH 23 0
BBX 18 21 3 0
BITMAP
FFFF00
010000
010000
010000
010000
010040
020040
020040
020040
020040
020040
020040
040040
040080
040080
040080
040100
040300
040200
020C00
03F800
ENDCHAR
STARTCHAR 0510
ENCODING 1296
SWIDTH 617 0
DWIDTH 24 0
BBX 22 28 2 0
BITMAP
007F80
01C060
060010
0C0008
08000C
100004
100004
300004
200000
100000
100000
080000
040000
03FE00
07C000
180000
200000
400000
C00000
800000
800010
800010
800020
800060
800040
400180
300700
0FFC00
ENDCHAR
STARTCHAR 0511
ENCODING 1297
SWIDTH 514 0
DWIDTH 20 0
BBX 18 21 1 0
BITMAP
01FC00
070700
080180
100080
300040
200040
200000
200000
100000
0C0000
03F000
1C0000
200000
400000
800000
800100
800100
800300
400600
601C00
1FF000
ENDCHAR
STARTCHAR 0512
ENCODING 1298
SWIDTH 642 0
DWIDTH 25 0
BBX 26 36 -1 -8
BITMAP
001FFFC0
00100040
00100040
00100040
00100040
00200040
00200080
00200080
00200080
00400080
00400080
00400080
00400100
00800100
00800100
00800100
00800100
00800100
01000200
01000200
01000200
02000200
02000200
06000200
04000400
08000400
30000600
E0000600
00000200
00000600
00000400
00000400
00000C00
00000800
00001000
0003E000
ENDCHAR
STARTCHAR 0513
ENCODING 1299
SWIDTH 514 0
DWIDTH 20 0
BBX 20 29 -1 -8
BITMAP
007FF0
00FFF0
008010
008010
008020
018020
010020
010020
010020
010060
020040
020040
020040
020040
060040
0400C0
040080
080080
080080
3000C0
E000C0
000080
000080
000080
000080
000100
000100
000600
007C00
ENDCHAR
STARTCHAR 1E00
ENCODING 7680
SWIDTH 565 0
DWIDTH 22 0
BBX 21 34 -1 -6
BITMAP
000300
000300
000500
000500
000900
000880
001080
001080
002080
002080
004040
00C040
008040
018040
010040
020060
020020
040020
040020
0FFFE0
080030
100010
100010
200010
600010
400010
C00008
800008
000000
000000
00F000
009800
009000
00F000
ENDCHAR
STARTCHAR 1E01
ENCODING 7681
SWIDTH 488 0
DWIDTH 19 0
BBX 16 27 1 -6
BITMAP
01F8
070E
0802
1001
3001
2001
0001
0001
0001
0001
0FFF
3802
6002
C002
8002
8002
8004
800C
8014
C064
3F84
0000
0000
0F00
1900
1100
0E00
ENDCHAR
STARTCHAR 1E3E
ENCODING 7742
SWIDTH 822 0
DWIDTH 32 0
BBX 29 35 2 0
BITMAP
00000400
00000800
00001000
00002000
00004000
00000000
00000000
0C000008
0C000018
0C000018
0A000028
0A000028
0A000048
12000090
11000090
11000110
11000110
11000210
10800610
20800420
20800820
20800820
20401020
20403020
20402060
40404040
40204040
40208040
40218040
40210040
801200C0
80120080
80140080
801C0080
80080080
ENDCHAR
STARTCHAR 1E3F
ENCODING 7743
SWIDTH 848 0
DWIDTH 33 0
BBX 30 29 1 0
BITMAP
00000400
00000C00
00001800
00001000
00002000
00000000
00000000
00000000
187C03E0
11830E18
12011804
1400A004
1800C004
1800C004
30008004
30008004
20008004
20010004
20010004
20010004
60010008
40010008
40010008
40020008
40020008
40020008
80020010
80020010
80020010
ENDCHAR
STARTCHAR 1E80
ENCODING 7808
SWIDTH 874 0
DWIDTH 34 0
BBX 32 35 4 0
BITMAP
00040000
00020000
00030000
00010000
00008000
00000000
00000000
80010003
80010002
80030002
80028004
80048004
80048008
80088008
C0088018
40108010
40108010
40304020
40204020
40204060
40404040
40404040
40804080
40804080
61002100
21002100
23002300
22002200
26002200
24002400
24002400
28002C00
28001800
30001800
10001000
ENDCHAR
STARTCHAR 1E81
ENCODING 7809
SWIDTH 720 0
DWIDTH 28 0
BBX 25 29 3 0
BITMAP
00100000
00100000
00080000
00080000
00040000
00000000
00000000
00000000
80080080
80080080
80140180
C0140100
40240300
40240200
40440600
40440400
40840400
40840800
41820800
41021000
63021000
22023000
26022000
24026000
24024000
28014000
28018000
30018000
30010000
ENDCHAR
STARTCHAR 1E82
ENCODING 7810
SWIDTH 874 0
DWIDTH 34 0
BBX 32 35 4 0
BITMAP
00001000
00002000
00004000
0000C000
00018000
00000000
00000000
80010003
80010002
80030002
80028004
80048004
80048008
80088008
C0088018
40108010
40108010
40304020
40204020
40204060
40404040
40404040
40804080
40804080
61002100
21002100
23002300
22002200
26002200
24002400
24002400
28002C00
28001800
30001800
10001000
ENDCHAR
STARTCHAR 1E83
ENCODING 7811
SWIDTH 720 0
DWIDTH 28 0
BBX 25 29 3 0
BITMAP
0000C000
00018000
00010000
00020000
00040000
00000000
00000000
00000000
80080080
80080080
80140180
C0140100
40240300
40240200
40440600
40440400
40840400
40840800
41820800
41021000
63021000
22023000
26022000
24026000
24024000
28014000
28018000
30018000
30010000
ENDCHAR
STARTCHAR 1E84
ENCODING 7812
SWIDTH 874 0
DWIDTH 34 0
BBX 32 34 4 0
BITMAP
00180C00
00180800
00000000
00000000
00000000
00000000
80010003
80010002
80030002
80028004
80048004
80048008
80088008
C0088018
40108010
40108010
40304020
40204020
40204060
40404040
40404040
40804080
40804080
61002100
21002100
23002300
22002200
26002200
24002400
24002400
28002C00
28001800
30001800
10001000
ENDCHAR
STARTCHAR 1E85
ENCODING 7813
SWIDTH 720 0
DWIDTH 28 0
BBX 25 28 3 0
BITMAP
00606000
00606000
00000000
00000000
00000000
00000000
00000000
80080080
80080080
80140180
C0140100
40240300
40240200
40440600
40440400
40840400
40840800
41820800
41021000
63021000
22023000
26022000
24026000
24024000
28014000
28018000
30018000
30010000
ENDCHAR
STARTCHAR 1EA0
ENCODING 7840
SWIDTH 565 0
DWIDTH 22 0
BBX 21 33 -1 -5
BITMAP
000300
000300
000500
000500
000900
000880
001080
001080
002080
002080
004040
00C040
008040
018040
010040
020060
020020
040020
040020
0FFFE0
080030
100010
100010
200010
600010
400010
C00008
800008
000000
000000
000000
006000
006000
ENDCHAR
STARTCHAR 1EA1
ENCODING 7841
SWIDTH 488 0
DWIDTH 19 0
BBX 16 26 1 -5
BITMAP
01F8
070E
0802
1001
3001
2001
0001
0001
0001
0001
0FFF
3802
6002
C002
8002
8002
8004
800C
8014
C064
3F84
0000
0000
0000
0400
0400
ENDCHAR
STARTCHAR 1EA2
ENCODING 7842
SWIDTH 565 0
DWIDTH 22 0
BBX 21 37 -1 0
BITMAP
0001E0
000010
000010
000010
000030
0001C0
000100
000000
000000
000300
000300
000500
000500
000900
000880
001080
001080
002080
002080
004040
00C040
008040
018040
010040
020060
020020
040020
040020
0FFFE0
080030
100010
100010
200010
600010
400010
C00008
800008
ENDCHAR
STARTCHAR 1EA3
ENCODING 7843
SWIDTH 488 0
DWIDTH 19 0
BBX 17 31 1 0
BITMAP
000E00
000100
000080
000100
000300
000C00
001000
000000
000000
000000
01F800
070E00
080200
100100
300100
200100
000100
000100
000100
000100
0FFF00
380200
600200
C00200
800200
800200
800400
800C00
801400
C06400
3F8400
ENDCHAR
STARTCHAR 1EA4
ENCODING 7844
SWIDTH 565 0
DWIDTH 22 0
BBX 25 36 -1 0
BITMAP
00000180
00000300
00018600
0003CC00
00046000
00182000
00301000
00000000
00030000
00030000
00050000
00050000
00090000
00088000
00108000
00108000
00208000
00208000
00404000
00C04000
00804000
01804000
01004000
02006000
02002000
04002000
04002000
0FFFE000
08003000
10001000
10001000
20001000
60001000
40001000
C0000800
80000800
ENDCHAR
STARTCHAR 1EA5
ENCODING 7845
SWIDTH 488 0
DWIDTH 19 0
BBX 21 30 1 0
BITMAP
000018
000030
000020
003C40
006600
00C300
010180
000000
000000
01F800
070E00
080200
100100
300100
200100
000100
000100
000100
000100
0FFF00
380200
600200
C00200
800200
800200
800400
800C00
801400
C06400
3F8400
ENDCHAR
STARTCHAR 1EA6
ENCODING 7846
SWIDTH 565 0
DWIDTH 22 0
BBX 21 36 -1 0
BITMAP
00C000
004000
002180
0023C0
000460
001820
003010
000000
000300
000300
000500
000500
000900
000880
001080
001080
002080
002080
004040
00C040
008040
018040
010040
020060
020020
040020
040020
0FFFE0
080030
100010
100010
200010
600010
400010
C00008
800008
ENDCHAR
STARTCHAR 1EA7
ENCODING 7847
SWIDTH 488 0
DWIDTH 19 0
BBX 17 30 1 0
BITMAP
040000
040000
020000
033C00
006600
008300
030180
000000
000000
01F800
070E00
080200
100100
300100
200100
000100
000100
000100
000100
0FFF00
380200
600200
C00200
800200
800200
800400
800C00
801400
C06400
3F8400
ENDCHAR
STARTCHAR 1EA8
ENCODING 7848
SWIDTH 565 0
DWIDTH 22 0
BBX 26 38 -1 0
BITMAP
00000780
000000C0
000000C0
00000180
0003C600
00066400
00083000
00301800
00000000
00000000
00030000
00030000
00050000
00050000
00090000
00088000
00108000
00108000
00208000
00208000
00404000
00C04000
00804000
01804000
01004000
02006000
02002000
04002000
04002000
0FFFE000
08003000
10001000
10001000
20001000
60001000
40001000
C0000800
80000800
ENDCHAR
STARTCHAR 1EA9
ENCODING 7849
SWIDTH 488 0
DWIDTH 19 0
BBX 22 32 1 0
BITMAP
000038
000004
000004
000008
001C30
006240
00C300
018180
000000
000000
000000
01F800
070E00
080200
100100
300100
200100
000100
000100
000100
000100
0FFF00
380200
600200
C00200
800200
800200
800400
800C00
801400
C06400
3F8400
ENDCHAR
STARTCHAR 1EAA
ENCODING 7850
SWIDTH 565 0
DWIDTH 22 0
BBX 21 38 -1 0
BITMAP
000300
000488
000470
000000
000180
000240
000C20
001830
000000
000000
000300
000300
000500
000500
000900
000880
001080
001080
002080
002080
004040
00C040
008040
018040
010040
020060
020020
040020
040020
0FFFE0
080030
100010
100010
200010
600010
400010
C00008
800008
ENDCHAR
STARTCHAR 1EAB
ENCODING 7851
SWIDTH 488 0
DWIDTH 19 0
BBX 18 32 1 0
BITMAP
001000
006CC0
004780
000000
001800
003400
004200
018100
000080
000000
000000
01F800
070E00
080200
100100
300100
200100
000100
000100
000100
000100
0FFF00
380200
600200
C00200
800200
800200
800400
800C00
801400
C06400
3F8400
ENDCHAR
STARTCHAR 1EAC
ENCODING 7852
SWIDTH 565 0
DWIDTH 22 0
BBX 21 40 -1 -5
BITMAP
000180
0003C0
000660
000C20
001810
000000
000000
000300
000300
000500
000500
000900
000880
001080
001080
002080
002080
004040
00C040
008040
018040
010040
020060
020020
040020
040020
0FFFE0
080030
100010
100010
200010
600010
400010
C00008
800008
000000
000000
000000
006000
006000
ENDCHAR
ENDFONT
